<svg width="24" height="24" viewBox="0 0 24 24" fill="none" xmlns="http://www.w3.org/2000/svg">
<g clip-path="url(#clip0_1489_96075)">
<mask id="mask0_1489_96075" style="mask-type:luminance" maskUnits="userSpaceOnUse" x="0" y="0" width="24" height="24">
<path d="M24 0H0V24H24V0Z" fill="white"/>
</mask>
<g mask="url(#mask0_1489_96075)">
<path d="M23.52 12.2725C23.52 11.4216 23.4437 10.6034 23.3018 9.81787H12V14.4597H18.4582C18.18 15.9597 17.3346 17.2306 16.0637 18.0815V21.0925H19.9418C22.2109 19.0034 23.52 15.927 23.52 12.2725Z" fill="#4285F4"/>
<path d="M11.9993 24C15.2393 24 17.9556 22.9254 19.941 21.0928L16.0629 18.0819C14.9884 18.8019 13.6138 19.2273 11.9993 19.2273C8.8738 19.2273 6.2284 17.1163 5.28472 14.28H1.27563V17.3891C3.25023 21.3109 7.3084 24 11.9993 24Z" fill="#34A853"/>
<path d="M5.2854 14.2802C5.0454 13.5602 4.90908 12.7911 4.90908 12.0002C4.90908 11.2092 5.0454 10.4402 5.2854 9.72016V6.61108H1.27632C0.463679 8.23108 0 10.0638 0 12.0002C0 13.9365 0.463679 15.7692 1.27632 17.3892L5.2854 14.2802Z" fill="#FBBC04"/>
<path d="M11.9993 4.77276C13.761 4.77276 15.3429 5.37816 16.5866 6.56724L20.0284 3.1254C17.9502 1.18908 15.2338 0 11.9993 0C7.3084 0 3.25023 2.68908 1.27563 6.61092L5.28472 9.72C6.2284 6.88368 8.8738 4.77276 11.9993 4.77276Z" fill="#E94235"/>
</g>
</g>
<defs>
<clipPath id="clip0_1489_96075">
<rect width="24" height="24" fill="white"/>
</clipPath>
</defs>
</svg>
