<svg width="100" height="100" viewBox="0 0 100 100" fill="none" xmlns="http://www.w3.org/2000/svg">
<path fill-rule="evenodd" clip-rule="evenodd" d="M91.6667 50C91.6667 73.0125 73.0125 91.6667 50 91.6667C26.9875 91.6667 8.33337 73.0125 8.33337 50C8.33337 26.9875 26.9875 8.33331 50 8.33331C73.0125 8.33331 91.6667 26.9875 91.6667 50ZM66.7917 37.375C67.3769 37.9609 67.7056 38.7552 67.7056 39.5833C67.7056 40.4114 67.3769 41.2057 66.7917 41.7916L45.9584 62.625C45.3724 63.2102 44.5782 63.5389 43.75 63.5389C42.9219 63.5389 42.1277 63.2102 41.5417 62.625L33.2084 54.2916C32.9013 54.0056 32.6551 53.6606 32.4843 53.2772C32.3135 52.8939 32.2216 52.4801 32.2142 52.0605C32.2068 51.6409 32.284 51.2241 32.4412 50.835C32.5984 50.4459 32.8323 50.0924 33.129 49.7957C33.4258 49.4989 33.7793 49.265 34.1684 49.1078C34.5575 48.9506 34.9743 48.8734 35.3939 48.8809C35.8135 48.8883 36.2273 48.9801 36.6106 49.1509C36.9939 49.3217 37.3389 49.568 37.625 49.875L43.75 56L53.0625 46.6875L62.375 37.375C62.961 36.7898 63.7552 36.4611 64.5834 36.4611C65.4115 36.4611 66.2058 36.7898 66.7917 37.375Z" fill="url(#paint0_linear_1449_255634)"/>
<path fill-rule="evenodd" clip-rule="evenodd" d="M91.6667 50C91.6667 73.0125 73.0125 91.6667 50 91.6667C26.9875 91.6667 8.33337 73.0125 8.33337 50C8.33337 26.9875 26.9875 8.33331 50 8.33331C73.0125 8.33331 91.6667 26.9875 91.6667 50ZM66.7917 37.375C67.3769 37.9609 67.7056 38.7552 67.7056 39.5833C67.7056 40.4114 67.3769 41.2057 66.7917 41.7916L45.9584 62.625C45.3724 63.2102 44.5782 63.5389 43.75 63.5389C42.9219 63.5389 42.1277 63.2102 41.5417 62.625L33.2084 54.2916C32.9013 54.0056 32.6551 53.6606 32.4843 53.2772C32.3135 52.8939 32.2216 52.4801 32.2142 52.0605C32.2068 51.6409 32.284 51.2241 32.4412 50.835C32.5984 50.4459 32.8323 50.0924 33.129 49.7957C33.4258 49.4989 33.7793 49.265 34.1684 49.1078C34.5575 48.9506 34.9743 48.8734 35.3939 48.8809C35.8135 48.8883 36.2273 48.9801 36.6106 49.1509C36.9939 49.3217 37.3389 49.568 37.625 49.875L43.75 56L53.0625 46.6875L62.375 37.375C62.961 36.7898 63.7552 36.4611 64.5834 36.4611C65.4115 36.4611 66.2058 36.7898 66.7917 37.375Z" fill="#6B9A30"/>
<defs>
<linearGradient id="paint0_linear_1449_255634" x1="60.7842" y1="9.75307" x2="39.2159" y2="90.2469" gradientUnits="userSpaceOnUse">
<stop stop-color="#91C738"/>
<stop offset="1" stop-color="#DBD666"/>
</linearGradient>
</defs>
</svg>
