<svg width="60" height="16" viewBox="0 0 60 16" fill="none" xmlns="http://www.w3.org/2000/svg">
<g clip-path="url(#clip0_2772_207689)">
<path d="M47.9876 4.12817C48.5554 4.1454 49.3124 4.10253 49.8506 4.15553C49.9481 4.28071 50.0029 4.34356 50.1169 4.4545C50.1614 5.5332 50.1254 6.8612 50.1248 7.95528C50.1242 9.29879 50.157 10.7735 50.1157 12.1077C50.0094 12.2352 49.9502 12.2849 49.8222 12.3922C49.4384 12.4597 48.1355 12.4502 47.7412 12.3858C47.6243 12.2597 47.5921 12.2213 47.5092 12.0725C46.9874 12.2151 46.6405 12.359 46.09 12.4016C45.161 12.4734 44.5973 12.3413 43.7319 12.046C39.3283 10.0172 40.9912 4.06963 45.6889 4.13441C45.8943 4.13723 46.1545 4.12135 46.3534 4.15971C46.722 4.23076 47.0849 4.38523 47.4553 4.45424C47.5367 4.46972 47.6703 4.15027 47.9876 4.12817ZM45.9485 10.3261C47.0949 10.1582 47.8871 9.11142 47.7204 7.98489C47.554 6.85835 46.4914 6.07614 45.3438 6.23533C44.1901 6.39542 43.3886 7.4461 43.5558 8.57881C43.7231 9.71151 44.796 10.4949 45.9485 10.3261Z" fill="#0B9FFA"/>
<path d="M19.0067 1.92581C19.0462 1.92233 19.0858 1.92331 19.1254 1.92407C19.7596 1.93612 20.3944 1.91213 21.0284 1.93632C21.0735 1.99855 21.1621 2.08641 21.2174 2.14486C21.3264 2.66141 21.2777 3.58977 21.2769 4.1519L21.2754 7.39028C21.2754 8.36082 21.2362 9.14594 21.3846 10.1166L21.5781 10.2656C22.6408 10.3211 23.744 10.2483 24.8116 10.277C25.2292 10.2952 26.0956 10.2046 26.4455 10.4016C26.7657 10.582 26.7396 11.9675 26.5342 12.2697C26.4683 12.3668 26.4188 12.3767 26.3155 12.4005C25.9358 12.4619 24.8402 12.426 24.3758 12.4297C23.2481 12.4388 22.1026 12.4254 20.9717 12.4312C20.1617 12.4716 19.8049 12.1224 19.2796 11.5978C18.6173 10.9362 18.6534 10.6113 18.6563 9.75365L18.6607 8.13503C18.6629 6.19998 18.6323 4.21063 18.6645 2.28088C18.7607 2.14085 18.8608 2.01751 19.0067 1.92581Z" fill="#0B9FFA"/>
<path d="M27.8652 10.7282C28.1094 10.5445 28.2494 10.5028 28.5241 10.3827C28.8375 10.2251 29.0235 10.3687 29.3108 10.4721C29.7921 10.6454 29.7394 10.753 29.7438 11.2054C29.7446 11.2745 29.7441 11.6007 29.7549 11.648C29.7883 12.2072 29.4766 12.3375 28.9534 12.401C28.5471 12.4503 28.2412 12.2608 27.8817 12.119C27.849 11.7089 27.8643 11.1507 27.8652 10.7282Z" fill="#0B9FFA"/>
<path d="M6.37046 0H6.51891C6.70474 0.0308777 7.31071 0.113022 7.45538 0.167072C8.18227 0.438642 8.91812 0.822152 9.62227 1.15113L11.2134 1.90414C13.1176 2.81136 12.899 2.83168 12.9 4.89712L12.9001 7.81407L12.8993 10.0296C12.8991 10.3642 12.9064 10.7112 12.8905 11.0478C12.875 11.378 12.6555 11.7867 12.4493 12.0424C12.3657 12.146 12.2679 12.2285 12.1966 12.3454C11.3132 12.6828 10.401 13.2021 9.49822 13.5363C9.0058 13.7185 8.49806 14.0052 7.9863 14.1552C6.58562 14.4877 5.31712 14.3851 4.02498 13.8264L2.22631 13.0293C1.62344 12.7605 0.947347 12.5738 0.457828 12.1185C0.128116 11.8119 0.131334 11.5329 0 11.3561V3.16291C0.167487 2.86829 0.207788 2.62034 0.560801 2.44179C2.15462 1.63566 3.79298 0.858069 5.43524 0.152621C5.59532 0.0838596 6.1527 0.0497531 6.37046 0Z" fill="#0B9FFA"/>
<path d="M11.7743 11.0549C11.769 11.0822 11.7619 11.1092 11.753 11.1356C11.671 11.3751 11.4001 11.54 11.1812 11.6446C10.5687 11.9375 9.92206 12.1835 9.29739 12.452C8.92511 12.6121 8.56139 12.799 8.18414 12.9466C7.1279 13.36 6.06902 13.4189 4.98946 13.0527C4.31833 12.8251 3.67054 12.4981 3.02018 12.2175C2.53329 12.0074 1.99339 11.8268 1.53589 11.5657C1.4043 11.4906 1.20921 11.363 1.14454 11.2215C1.01287 10.9332 1.03448 4.83654 1.07788 4.07729C1.08476 3.95691 1.10014 3.84468 1.14273 3.73096C1.30625 3.60983 2.04863 3.98992 2.24388 4.0747L4.14586 4.91366C5.49697 5.50874 6.3249 5.95697 7.79387 5.31726C8.73328 4.90814 9.68162 4.47887 10.6252 4.0766C10.958 3.9347 11.4025 3.68097 11.758 3.67847C11.8059 3.91801 11.861 4.17668 11.8641 4.42103C11.8878 6.30048 11.8706 8.18109 11.8741 10.0608C11.8745 10.2881 11.8941 10.8841 11.7743 11.0549Z" fill="#FEFEFE"/>
<path d="M11.758 3.67847C11.8059 3.91801 11.861 4.17668 11.8641 4.42103C11.8878 6.30048 11.8706 8.18109 11.8741 10.0608C11.8745 10.2881 11.8942 10.8841 11.7743 11.0549C11.716 10.7093 11.7445 9.14635 11.7443 8.71939C11.7362 7.03907 11.7408 5.35873 11.758 3.67847Z" fill="#0B9FFA"/>
<path d="M2.95202 9.5563C3.48012 9.50393 3.67574 9.83524 4.08132 10.1213C4.83944 10.6561 5.77876 10.9103 6.70767 10.8372C7.38343 10.7812 8.0345 10.5613 8.60239 10.1972C8.82323 10.0531 9.32136 9.60476 9.5676 9.55636C9.91275 9.48853 10.261 9.73578 10.2 10.1139C10.1469 10.4434 10.0657 10.5088 9.81364 10.7142C7.97529 12.2402 5.41615 12.4073 3.42912 11.0459C2.93693 10.7086 2.02108 10.0631 2.95202 9.5563Z" fill="#0B9FFA"/>
<path d="M31.4965 4.14913C31.8961 4.12142 33.0917 4.11503 33.4937 4.14427C33.6519 4.26997 33.7216 4.34277 33.8579 4.48801C37.336 2.99961 41.3441 6.17647 39.842 9.79693C38.8685 12.1437 36.1474 12.9512 33.8371 12.0609L33.8373 14.417C33.8379 14.7929 33.8482 15.1815 33.8265 15.557C33.8116 15.8146 33.5253 15.8558 33.3812 16H33.0496C32.8667 15.8729 32.6992 15.8529 32.5357 15.7465C32.1794 15.5149 31.3231 14.6833 31.2519 14.295C31.2293 14.1713 31.2367 13.3203 31.237 13.1423V10.7402L31.2367 6.48965C31.2367 5.96464 31.2041 4.88458 31.2449 4.38827C31.3216 4.30864 31.408 4.21319 31.4965 4.14913ZM35.727 10.3533C36.8959 10.332 37.8244 9.38102 37.7971 8.23293C37.7696 7.08481 36.7969 6.17748 35.6283 6.20985C34.4675 6.24202 33.5514 7.1895 33.5787 8.32979C33.6059 9.47008 34.566 10.3745 35.727 10.3533Z" fill="#0B9FFA"/>
<path d="M57.8363 4.14765C57.8568 4.14641 57.8773 4.14531 57.8979 4.14434C58.4243 4.11818 59.2892 4.10865 59.8215 4.15775C59.8646 4.16172 59.9627 4.24526 59.9999 4.27835V4.68318C59.7928 4.98376 59.3413 6.29441 59.198 6.66937L57.9403 9.91421C57.8264 10.2025 57.6875 10.4854 57.5768 10.7721L56.8903 12.5517C56.6352 13.2047 56.4482 13.7279 56.0671 14.3476C55.8172 14.7516 55.4867 15.102 55.0956 15.3777C54.4098 15.8646 53.9642 15.9304 53.2789 16H52.5597C51.9788 16 50.9981 15.8802 51.1657 15.1844C51.2967 14.6416 51.6046 14.1664 51.7558 13.6344C51.8149 13.4261 51.9105 13.4957 51.9813 13.4957C52.2786 13.696 52.724 13.7242 53.0809 13.7119C53.6987 13.6904 54.2727 13.0104 54.2355 12.4172C54.2167 12.1161 53.9829 11.8132 53.8921 11.5281C53.1793 9.55435 52.3432 7.62068 51.6397 5.64373C51.5299 5.3353 51.0251 4.505 51.2979 4.19616C51.5621 4.0896 53.0214 4.13518 53.382 4.14773C53.4679 4.20313 53.6779 4.33711 53.7286 4.4197C54.0008 4.8648 54.1684 5.40491 54.3518 5.88036L55.3036 8.30224C55.3552 8.42934 55.4905 8.89683 55.5679 8.95418C55.7806 8.91337 55.8374 8.37743 55.9376 8.17944C56.1304 7.79757 56.2411 7.30966 56.4184 6.93095C56.6545 6.50983 56.7682 6.05012 56.9466 5.60661C57.1871 5.00727 57.2413 4.50534 57.8363 4.14765Z" fill="#0B9FFA"/>
</g>
<defs>
<clipPath id="clip0_2772_207689">
<rect width="60" height="16" fill="white"/>
</clipPath>
</defs>
</svg>
