<svg width="48" height="16" viewBox="0 0 48 16" fill="none" xmlns="http://www.w3.org/2000/svg">
<g clip-path="url(#clip0_2772_207658)">
<path d="M16.3756 7.99994C16.3756 9.58216 15.8953 11.1288 14.9956 12.4444C14.0959 13.7599 12.8171 14.7853 11.321 15.3908C9.82493 15.9962 8.17866 16.1547 6.59039 15.846C5.00212 15.5374 3.54318 14.7755 2.39806 13.6568C1.4459 12.7265 0.743257 11.5812 0.352362 10.3222C-0.0385338 9.06323 -0.105612 7.7295 0.157069 6.43915C0.41975 5.1488 1.00408 3.94166 1.8583 2.92466C2.71253 1.90766 3.81027 1.1122 5.0543 0.608728C6.29833 0.105258 7.65024 -0.0906757 8.99028 0.0382831C10.3303 0.167242 11.6171 0.617112 12.7367 1.34804C13.8563 2.07898 14.7741 3.06841 15.4089 4.2287C16.0436 5.38898 16.3757 6.68431 16.3756 7.99994ZM9.55717 4.23993V8.26185L6.69138 4.23993H4.33946V11.77H6.81623V7.73593L9.68202 11.7599H12.0422V4.23993H9.55717ZM46.0703 3.82203L43.7856 8.90829L41.2013 3.82203H39.2143L42.8742 10.8787L41.3655 14.1852H43.2951L47.9998 3.83197L46.0703 3.82203ZM37.9443 11.6872H36.0559V10.9528C35.369 11.5411 34.4834 11.8599 33.5701 11.8477C31.312 11.8477 29.5447 10.0419 29.5447 7.75459C29.5447 5.46723 31.31 3.66151 33.5701 3.66151C34.4831 3.6487 35.3687 3.96678 36.0559 4.55435V3.82203H37.9443V11.6872ZM36.2775 7.76461C36.2775 6.28187 35.2184 5.15628 33.8144 5.15628C32.4103 5.15628 31.351 6.28187 31.351 7.76461C31.351 9.24735 32.4082 10.3729 33.8143 10.3729C35.2204 10.3729 36.2775 9.23733 36.2775 7.76461ZM20.2054 14.1851H22.176V11.0191C22.8502 11.567 23.7029 11.861 24.5798 11.8477C26.8377 11.8477 28.6071 10.0419 28.6071 7.75459C28.6071 5.46723 26.8398 3.66151 24.5798 3.66151C23.6643 3.64544 22.7756 3.96383 22.0877 4.55435V3.82203H20.1993L20.2054 14.1851ZM24.3457 5.1562C25.7498 5.1562 26.809 6.28179 26.809 7.76453C26.809 9.24727 25.7498 10.3729 24.3457 10.3729C22.9417 10.3729 21.8826 9.24727 21.8826 7.76453C21.8826 6.28179 22.9293 5.1562 24.3457 5.1562Z" fill="#00DE5A"/>
</g>
<defs>
<clipPath id="clip0_2772_207658">
<rect width="48" height="16" fill="white"/>
</clipPath>
</defs>
</svg>
