<svg width="37" height="16" viewBox="0 0 37 16" fill="none" xmlns="http://www.w3.org/2000/svg">
<g clip-path="url(#clip0_2772_207663)">
<path d="M0 0H37V16H0V0Z" fill="white"/>
<path d="M30.4938 4.41337C32.4401 4.16199 34.2173 5.56752 34.4618 7.55138C34.706 9.53523 33.3247 11.3448 31.3778 11.5914C29.4342 11.8376 27.6623 10.4328 27.4184 8.45231C27.1745 6.47183 28.5508 4.66433 30.4938 4.41337Z" fill="#FF3749"/>
<path d="M30.9596 6.0806C31.9965 6.09859 32.8217 6.97143 32.8011 8.02806C32.7804 9.08468 31.9215 9.92322 30.8848 9.89899C29.8523 9.87485 29.0337 9.00398 29.0543 7.95176C29.0749 6.89955 29.9271 6.06269 30.9596 6.0806Z" fill="white"/>
<path d="M2.79834 4.5858C3.04016 4.56534 3.29602 4.58666 3.54154 4.5758C3.73874 4.56705 3.77371 4.50246 3.97672 4.49497C4.47268 4.4816 4.96886 4.47892 5.46494 4.48691C5.61356 4.48945 5.80351 4.51274 5.93646 4.51005L5.96999 4.52977L5.95796 4.56972C6.02213 4.60771 6.21486 4.54106 6.28167 4.59955C6.91488 4.64147 7.38685 4.82119 7.85255 5.27389C8.50426 5.90743 8.59396 6.71282 8.50164 7.57782C8.45063 8.05572 8.21378 8.50046 7.88364 8.83706C7.21825 9.53158 6.4074 9.56202 5.52084 9.56007L4.48061 9.5618C4.47008 10.1209 4.44578 10.8543 4.48114 11.4061C4.30288 11.4001 4.05786 11.413 3.87385 11.4149L2.76642 11.4156C2.75652 10.0794 2.75392 8.74313 2.75861 7.40684C2.75863 6.5079 2.75838 5.60424 2.76277 4.70494C2.76311 4.63509 2.75901 4.6233 2.79834 4.5858Z" fill="#FF3749"/>
<path d="M2.79834 4.5858C3.04016 4.56534 3.29602 4.58666 3.54154 4.5758C3.73873 4.56705 3.77371 4.50246 3.97672 4.49497C4.47268 4.4816 4.96886 4.47892 5.46494 4.48691C5.61356 4.48945 5.80351 4.51274 5.93646 4.51005L5.96999 4.52977L5.95796 4.56972C6.02213 4.60771 6.21486 4.54106 6.28167 4.59955C6.21715 4.60811 5.95676 4.60402 5.87994 4.6043L5.0039 4.60625L3.53586 4.60371C3.3685 4.6031 2.93868 4.61133 2.79834 4.5858Z" fill="#FFE7E8"/>
<path d="M4.35584 6.14812C4.35382 6.09818 4.3551 6.08565 4.36247 6.03687C4.43299 5.98447 5.8005 6.01452 5.9921 6.04092C6.02735 6.04578 6.1055 6.12402 6.17012 6.14812L6.18423 6.15325C6.44952 6.24051 6.67692 6.34774 6.81614 6.61587C6.93153 6.83814 6.92308 7.23363 6.84557 7.46654C6.78341 7.65867 6.64711 7.81668 6.46813 7.90416C6.04964 8.11349 4.87771 8.02592 4.35543 8.0321L4.35584 6.14812Z" fill="white"/>
<path d="M4.35584 6.14812C4.35382 6.09818 4.3551 6.08565 4.36247 6.03687C4.43299 5.98447 5.8005 6.01452 5.9921 6.04092C6.02735 6.04578 6.1055 6.12402 6.17012 6.14812L6.18423 6.15325C5.59442 6.13227 4.95147 6.15103 4.35584 6.14812Z" fill="#FF3749"/>
<path d="M10.6146 4.59819L12.0603 4.60093C12.2916 4.59958 12.6388 4.58263 12.8604 4.59581L14.4978 9.05429C14.7527 9.74669 15.0968 10.5849 15.3163 11.2719C15.3355 11.3461 15.35 11.3495 15.3272 11.4068C14.9625 11.4174 14.5976 11.4215 14.2328 11.4191C14.1003 11.4195 13.7745 11.4278 13.6583 11.4147L13.6377 11.3816C13.5965 11.2109 13.4709 10.9104 13.4042 10.7374C13.3287 10.5416 13.2447 10.2961 13.1628 10.11L11.3077 10.1108C11.0338 10.111 10.5777 10.0981 10.3198 10.1193C10.2404 10.3585 9.97179 11.2682 9.83057 11.3842L9.78108 11.3979C9.64324 11.4251 9.30811 11.4213 9.16049 11.4218L8.16138 11.4225C8.18456 11.2851 8.20622 11.1944 8.26511 11.0699C8.46025 10.5583 8.60471 10.0404 8.80028 9.52943C8.90954 9.24393 9.01028 8.95276 9.11731 8.66598L9.98639 6.31048C10.1979 5.74404 10.4281 5.17338 10.6146 4.59819Z" fill="#FF3749"/>
<path d="M8.16138 11.4224C8.18456 11.285 8.20622 11.1944 8.26511 11.0698L8.27165 11.0823C8.32416 11.1848 8.28152 11.208 8.34172 11.27C8.64364 11.3559 9.38837 11.1794 9.68105 11.3908L9.78108 11.3979C9.64324 11.425 9.30811 11.4213 9.16049 11.4217L8.16138 11.4224Z" fill="#FF3749"/>
<path d="M15.3163 11.272C15.3355 11.3462 15.35 11.3495 15.3272 11.4069C14.9625 11.4174 14.5976 11.4216 14.2328 11.4192C14.1003 11.4195 13.7745 11.4279 13.6583 11.4148L13.6377 11.3817L13.7241 11.3697C13.7021 11.3527 13.6888 11.3399 13.6688 11.3205C13.7805 11.2481 15.0762 11.2964 15.2729 11.3166L15.3163 11.272Z" fill="#FF3749"/>
<path d="M11.6933 6.27368C11.8327 6.40002 12.461 8.22329 12.5729 8.52508L11.8243 8.53239C11.5258 8.53395 11.2273 8.53007 10.929 8.52071C11 8.36451 11.0721 8.13257 11.1337 7.9676C11.3421 7.40964 11.5029 6.84035 11.6933 6.27368Z" fill="white"/>
<path d="M24.1086 4.4078C25.1372 4.31848 26.2558 4.66404 26.9555 5.44537C27.0318 5.53065 27.1219 5.5883 27.123 5.71288C27.0356 5.8617 26.5904 6.20133 26.4343 6.33456C26.2723 6.472 26.1147 6.61481 25.9621 6.76273C25.5164 6.30747 24.9415 6.00003 24.3 6.04302C23.8499 6.06477 23.2505 6.29425 22.9665 6.66533C21.9107 8.04481 22.7327 10.0851 24.5699 9.90361C25.273 9.83416 25.5539 9.59911 25.9875 9.10151C26.1743 9.18513 26.3357 9.31835 26.4992 9.44252C26.7843 9.67517 27.0197 9.80435 27.2748 10.0916C27.2282 10.1586 27.1792 10.224 27.1281 10.2876C26.5078 11.05 25.899 11.4771 24.9155 11.5406C23.8073 11.6122 22.9246 11.5212 22.0458 10.7764C21.3221 10.1665 20.8704 9.28506 20.7925 8.33137C20.7147 7.43626 20.962 6.4131 21.5372 5.72109C22.2252 4.89325 23.0572 4.49767 24.1086 4.4078Z" fill="#FF3749"/>
<path d="M14.22 4.59834C14.8618 4.60419 15.5214 4.58405 16.156 4.59423C16.2563 4.8573 16.4136 5.1166 16.5326 5.373C16.8331 6.0205 17.242 6.73696 17.4801 7.40804L18.4515 5.51577C18.5154 5.39186 18.8748 4.62312 18.9591 4.6155C19.5727 4.5601 20.2166 4.62402 20.8353 4.59462C20.6422 5.05744 20.3286 5.53205 20.1007 5.97736C19.7311 6.70018 19.355 7.41034 18.9696 8.12338C18.8276 8.38596 18.4441 8.97781 18.3998 9.22296C18.3297 9.61241 18.3615 10.2648 18.3546 10.6857C18.3519 10.8539 18.3436 11.2528 18.351 11.4099C17.8875 11.4217 17.3289 11.4306 16.8669 11.4139C16.7976 11.4151 16.7399 11.4234 16.6877 11.3844C16.6632 11.2378 16.6679 10.9157 16.6664 10.7503C16.6624 10.2749 16.6655 9.79952 16.6757 9.32427C16.6552 9.11325 16.5039 8.86152 16.3982 8.67804C15.7365 7.52847 15.144 6.33958 14.482 5.1898C14.3725 4.99977 14.285 4.80864 14.22 4.59834Z" fill="#FF3749"/>
<path d="M16.6758 9.32446L16.7533 9.33792C16.8217 9.57013 16.7741 10.981 16.7835 11.2899L16.7586 11.3671C16.7896 11.4032 16.8138 11.3995 16.867 11.4141C16.7977 11.4153 16.74 11.4236 16.6877 11.3846C16.6633 11.238 16.6679 10.9159 16.6665 10.7505C16.6625 10.2751 16.6656 9.79971 16.6758 9.32446Z" fill="#FF3749"/>
<path d="M16.7834 11.2898C17.1849 11.282 17.5897 11.2812 17.9911 11.2922C18.1165 11.2957 18.1854 11.2941 18.2728 11.3902L18.351 11.4101C17.8876 11.4219 17.3289 11.4307 16.8669 11.414C16.8138 11.3994 16.7895 11.4032 16.7585 11.367L16.7834 11.2898Z" fill="#FF3749"/>
</g>
<defs>
<clipPath id="clip0_2772_207663">
<rect width="37" height="16" fill="white"/>
</clipPath>
</defs>
</svg>
