<svg width="31" height="12" viewBox="0 0 31 12" fill="none" xmlns="http://www.w3.org/2000/svg">
<path d="M1.69481 8.112V4.632H0V2.792H1.69481V0.592L3.77038 0V2.792H6.34618V4.632H3.77038V8.08C3.77038 9 4.23328 9.536 5.03215 9.536C5.48758 9.536 5.81609 9.44 6.167 9.168L6.90614 10.824C6.36112 11.28 5.62944 11.496 4.8455 11.496C2.82218 11.48 1.69481 10.264 1.69481 8.112ZM7.0032 7.016C7.0032 4.488 8.83986 2.584 11.3111 2.584C13.7824 2.584 15.6191 4.488 15.6191 7.016C15.6191 9.552 13.7824 11.448 11.3111 11.448C8.83986 11.448 7.0032 9.56 7.0032 7.016ZM11.3111 9.48C12.5804 9.48 13.5211 8.432 13.5211 7.032C13.5211 5.632 12.5729 4.576 11.3111 4.576C10.0419 4.576 9.10117 5.624 9.10117 7.024C9.10117 8.424 10.0494 9.48 11.3111 9.48ZM16.1492 9.248L18.2098 8.656C18.3442 9.344 18.934 9.728 19.8972 9.728C20.6811 9.728 21.256 9.344 21.256 8.84C21.256 8.472 20.8528 8.2 20.2406 8.064L18.7026 7.712C17.2467 7.384 16.3582 6.544 16.3582 5.36C16.3582 3.696 17.7021 2.592 19.6732 2.592C21.4352 2.592 22.7716 3.456 23.1225 4.84L21.1813 5.4C21.0544 4.736 20.4496 4.296 19.5985 4.296C18.8892 4.296 18.4114 4.656 18.4114 5.16C18.4114 5.552 18.7324 5.752 19.27 5.888L21.0693 6.328C22.4431 6.656 23.2718 7.488 23.2718 8.672C23.2718 10.416 21.913 11.456 19.7105 11.456C17.7768 11.456 16.4329 10.616 16.1492 9.248ZM23.7721 9.248L25.8327 8.656C25.9671 9.344 26.5569 9.728 27.52 9.728C28.304 9.728 28.8789 9.344 28.8789 8.84C28.8789 8.472 28.4757 8.2 27.8635 8.064L26.3255 7.72C24.8696 7.392 23.9811 6.552 23.9811 5.368C23.9811 3.704 25.325 2.6 27.2961 2.6C29.0581 2.6 30.3945 3.464 30.7454 4.848L28.8042 5.408C28.6773 4.744 28.0725 4.304 27.2214 4.304C26.5121 4.304 26.0343 4.664 26.0343 5.168C26.0343 5.56 26.3553 5.76 26.8929 5.896L28.6922 6.336C30.066 6.664 30.8947 7.496 30.8947 8.68C30.8947 10.424 29.5359 11.464 27.3334 11.464C25.3997 11.456 24.0632 10.616 23.7721 9.248Z" fill="#202632"/>
</svg>
