<svg width="24" height="24" viewBox="0 0 24 24" fill="none" xmlns="http://www.w3.org/2000/svg">
<path d="M3.59467 18.7822C3.30178 19.0751 3.30178 19.5499 3.59467 19.8428C3.88756 20.1357 4.36244 20.1357 4.65533 19.8428L4.125 19.3125L3.59467 18.7822ZM8.625 14.8125L9.15533 14.2822C8.86244 13.9893 8.38756 13.9893 8.09467 14.2822L8.625 14.8125ZM10.875 17.0625L10.3447 17.5928C10.6376 17.8857 11.1124 17.8857 11.4053 17.5928L10.875 17.0625ZM15.9375 12L16.4678 11.4697C16.1749 11.1768 15.7001 11.1768 15.4072 11.4697L15.9375 12ZM19.9072 17.0303C20.2001 17.3232 20.6749 17.3232 20.9678 17.0303C21.2607 16.7374 21.2607 16.2626 20.9678 15.9697L20.4375 16.5L19.9072 17.0303ZM4.125 19.3125L4.65533 19.8428L9.15533 15.3428L8.625 14.8125L8.09467 14.2822L3.59467 18.7822L4.125 19.3125ZM8.625 14.8125L8.09467 15.3428L10.3447 17.5928L10.875 17.0625L11.4053 16.5322L9.15533 14.2822L8.625 14.8125ZM10.875 17.0625L11.4053 17.5928L16.4678 12.5303L15.9375 12L15.4072 11.4697L10.3447 16.5322L10.875 17.0625ZM15.9375 12L15.4072 12.5303L19.9072 17.0303L20.4375 16.5L20.9678 15.9697L16.4678 11.4697L15.9375 12ZM6.375 3V3.75H17.625V3V2.25H6.375V3ZM21 6.375H20.25V17.625H21H21.75V6.375H21ZM17.625 21V20.25H6.375V21V21.75H17.625V21ZM3 17.625H3.75V6.375H3H2.25V17.625H3ZM6.375 21V20.25C4.92525 20.25 3.75 19.0747 3.75 17.625H3H2.25C2.25 19.9032 4.09683 21.75 6.375 21.75V21ZM21 17.625H20.25C20.25 19.0747 19.0747 20.25 17.625 20.25V21V21.75C19.9032 21.75 21.75 19.9032 21.75 17.625H21ZM17.625 3V3.75C19.0747 3.75 20.25 4.92525 20.25 6.375H21H21.75C21.75 4.09683 19.9032 2.25 17.625 2.25V3ZM6.375 3V2.25C4.09683 2.25 2.25 4.09683 2.25 6.375H3H3.75C3.75 4.92525 4.92525 3.75 6.375 3.75V3ZM9.75 8.0625H9C9 8.58027 8.58027 9 8.0625 9V9.75V10.5C9.40869 10.5 10.5 9.40869 10.5 8.0625H9.75ZM8.0625 9.75V9C7.54473 9 7.125 8.58027 7.125 8.0625H6.375H5.625C5.625 9.40869 6.71631 10.5 8.0625 10.5V9.75ZM6.375 8.0625H7.125C7.125 7.54473 7.54473 7.125 8.0625 7.125V6.375V5.625C6.71631 5.625 5.625 6.71631 5.625 8.0625H6.375ZM8.0625 6.375V7.125C8.58027 7.125 9 7.54473 9 8.0625H9.75H10.5C10.5 6.71631 9.40869 5.625 8.0625 5.625V6.375Z" fill="black"/>
</svg>
