<svg width="24" height="24" viewBox="0 0 24 24" fill="none" xmlns="http://www.w3.org/2000/svg">
<path d="M4.10557 18.1074L3.31176 17.4992L3.31176 17.4992L4.10557 18.1074ZM5.26855 14.8377L4.26855 14.8254V14.8377H5.26855ZM5.29296 12.8609L6.29296 12.8732V12.8609H5.29296ZM19.9006 18.1233L20.7065 17.5312L20.7065 17.5312L19.9006 18.1233ZM18.7814 14.8377L17.7814 14.8247V14.8377H18.7814ZM18.8058 12.9588L19.8058 12.9718V12.9588H18.8058ZM4.10557 18.1074L4.89939 18.7156C5.58054 17.8265 6.26855 16.4851 6.26855 14.8377H5.26855H4.26855C4.26855 15.9189 3.81418 16.8434 3.31176 17.4992L4.10557 18.1074ZM5.26855 14.8377L6.26848 14.8501L6.29289 12.8732L5.29296 12.8609L4.29304 12.8485L4.26863 14.8254L5.26855 14.8377ZM19.9006 18.1233L20.7065 17.5312C20.2257 16.8767 19.7814 15.9405 19.7814 14.8377H18.7814H17.7814C17.7814 16.4822 18.4401 17.8243 19.0948 18.7153L19.9006 18.1233ZM18.7814 14.8377L19.7813 14.8507L19.8057 12.9718L18.8058 12.9588L17.8059 12.9458L17.7815 14.8247L18.7814 14.8377ZM18.8058 12.9588H19.8058C19.8058 8.67158 16.303 5.21053 12 5.21053V6.21053V7.21053C15.2145 7.21053 17.8058 9.79212 17.8058 12.9588H18.8058ZM19.4933 19.0394V20.0394C20.2194 20.0394 20.6784 19.5334 20.864 19.101C21.0482 18.6718 21.0878 18.0502 20.7065 17.5312L19.9006 18.1233L19.0947 18.7153C18.9586 18.53 19.0028 18.3665 19.0262 18.312C19.051 18.2543 19.1836 18.0394 19.4933 18.0394V19.0394ZM5.29296 12.8609H6.29296C6.29296 9.74826 8.84007 7.21053 12 7.21053V6.21053V5.21053C7.75154 5.21053 4.29296 8.62772 4.29296 12.8609H5.29296ZM4.50763 19.0394V18.0394C4.82438 18.0394 4.95436 18.2618 4.97604 18.3139C4.99661 18.3633 5.04246 18.5288 4.89939 18.7156L4.10557 18.1074L3.31176 17.4992C2.91365 18.0189 2.94973 18.6504 3.12969 19.0826C3.31075 19.5175 3.76928 20.0394 4.50763 20.0394V19.0394ZM19.4933 19.0394V18.0394H4.50763V19.0394V20.0394H19.4933V19.0394ZM15.2 19.0395H14.2C14.2 20.0504 13.2897 21 12 21V22V23C14.2449 23 16.2 21.2986 16.2 19.0395H15.2ZM12 22V21C10.7103 21 9.8 20.0504 9.8 19.0395H8.8H7.8C7.8 21.2986 9.75506 23 12 23V22ZM14.1333 4.10526H13.1333C13.1333 4.70324 12.6385 5.21053 12 5.21053V6.21053V7.21053C13.718 7.21053 15.1333 5.8327 15.1333 4.10526H14.1333ZM12 6.21053V5.21053C11.3615 5.21053 10.8667 4.70324 10.8667 4.10526H9.86667H8.86667C8.86667 5.8327 10.282 7.21053 12 7.21053V6.21053ZM9.86667 4.10526H10.8667C10.8667 3.50729 11.3615 3 12 3V2V1C10.282 1 8.86667 2.37783 8.86667 4.10526H9.86667ZM12 2V3C12.6385 3 13.1333 3.50729 13.1333 4.10526H14.1333H15.1333C15.1333 2.37783 13.718 1 12 1V2Z" fill="#242423"/>
</svg>
