<svg width="45" height="16" viewBox="0 0 45 16" fill="none" xmlns="http://www.w3.org/2000/svg">
<g clip-path="url(#clip0_2772_207652)">
<path d="M35.9997 16H8.99955C4.02903 16 0 12.4186 0 7.99968C0 3.58144 4.02903 0 8.99955 0H35.9997C40.9702 0 45 3.58144 45 7.99968C45 12.4186 40.9702 16 35.9997 16Z" fill="#FFE000"/>
<path d="M11.6316 3.80078C8.91828 3.80078 6.71973 5.34526 6.71973 7.25027C6.71973 8.39326 7.51381 9.40505 8.73308 10.033L8.15506 11.9528C8.09953 12.137 8.33023 12.2837 8.50855 12.1772L11.0173 10.6716C11.2187 10.6892 11.4232 10.6998 11.6316 10.6998C14.3448 10.6998 16.5434 9.15523 16.5434 7.25027C16.5434 5.34521 14.3448 3.80078 11.6316 3.80078ZM21.1744 5.60942V8.99822C21.2671 9.00878 21.5009 9.02926 21.7223 9.02926C22.9347 9.02926 23.4008 8.27289 23.4008 7.08121C23.4008 6.03417 23.0867 5.40195 22.119 5.40195C21.8042 5.40195 21.4546 5.48521 21.1744 5.60942ZM21.1744 10.0551V12.1796H19.4729V4.34505H20.6728L20.8828 4.84249C21.2447 4.52142 21.7918 4.17923 22.6785 4.17923C24.3453 4.17923 25.1387 5.28835 25.1263 7.08121C25.1263 8.95657 23.9024 10.1589 22.1537 10.1589C21.8157 10.1589 21.5595 10.1377 21.1744 10.0551ZM29.7013 8.55273V7.51625H28.9203C28.0452 7.51625 27.6022 7.79635 27.6022 8.35587C27.6022 8.78062 27.8476 8.98803 28.3485 8.98803C28.8154 8.98803 29.4103 8.78062 29.7013 8.55273ZM28.7335 6.55246H29.7013V6.36622C29.7013 5.74387 29.3054 5.4539 28.617 5.4539C28.0923 5.4539 27.4163 5.58867 26.8683 5.82713L26.4015 4.81113C27.008 4.43859 27.941 4.17966 28.7683 4.17966C30.4004 4.17966 31.2871 4.9459 31.2871 6.40713V10.0034H30.0863L29.9111 9.52638C29.2236 9.9723 28.5939 10.1586 28.0228 10.1586C26.775 10.1586 26.0758 9.49534 26.0758 8.37635C26.0758 7.18462 27.008 6.55246 28.7335 6.55246ZM36.2861 9.42302C35.6918 10.8327 34.9804 11.8586 33.9432 12.428L32.8937 11.5679C33.5002 11.1016 33.9308 10.6458 34.3043 10.0348L32.0425 4.55251L33.7325 4.14825L35.1787 8.59395L36.6125 4.12777L38.2801 4.5419L36.2861 9.42302Z" fill="black"/>
</g>
<defs>
<clipPath id="clip0_2772_207652">
<rect width="45" height="16" fill="white"/>
</clipPath>
</defs>
</svg>
