<svg width="311" height="326" viewBox="0 0 311 326" fill="none" xmlns="http://www.w3.org/2000/svg">
<g filter="url(#filter0_f_2626_99349)">
<circle cx="103.39" cy="122.827" r="25.7903" fill="#C6DEA1" fill-opacity="0.44"/>
</g>
<g filter="url(#filter1_f_2626_99349)">
<circle cx="215.896" cy="94.7938" r="39.9937" fill="#C6DEA1" fill-opacity="0.44"/>
</g>
<g filter="url(#filter2_f_2626_99349)">
<circle cx="181.882" cy="194.217" r="27.6592" fill="#C6DEA1" fill-opacity="0.44"/>
</g>
<g filter="url(#filter3_f_2626_99349)">
<circle cx="122.078" cy="219.634" r="43.7315" fill="#C6DEA1" fill-opacity="0.44"/>
</g>
<g filter="url(#filter4_f_2626_99349)">
<ellipse cx="77.9737" cy="148.804" rx="23.1739" ry="23.3608" fill="#FBFFF4" fill-opacity="0.24"/>
</g>
<g filter="url(#filter5_f_2626_99349)">
<ellipse cx="158.147" cy="227.483" rx="43.1708" ry="43.3577" fill="#FBFFF4" fill-opacity="0.24"/>
</g>
<g filter="url(#filter6_f_2626_99349)">
<ellipse cx="176.463" cy="135.161" rx="36.0691" ry="36.256" fill="#FBFFF4" fill-opacity="0.24"/>
</g>
<path d="M26.3926 201.388C33.266 202.386 40.0898 203.7 46.8426 205.325C53.8984 207.052 60.9199 208.916 67.9032 210.915C78.9733 213.967 89.3106 216.894 100.187 220.642C102.447 221.422 104.699 222.225 106.943 223.051C108.145 223.494 110.255 224.22 111.26 224.867H51.1849H49.853H45.913H44.2734H42.5356H41.5414H39.9724H39.4402H36.9231H35.8663H26.3926V223.269V221.877V213.774V212.736V201.388Z" fill="#FDFDFC"/>
<path d="M41.541 224.867C42.9061 220.389 45.8449 214.276 49.9956 211.543C50.2339 211.386 50.4543 211.363 50.7314 211.437C52.0112 212.977 46.809 221.45 45.929 223.257C47.1214 222.529 51.57 219.825 52.7474 221.173C53.0149 222.317 51.7752 223.844 51.1846 224.867H49.8527H45.9126H44.273H42.5352H41.541Z" fill="#356516"/>
<path d="M42.5352 224.867C44.1315 220.394 46.2681 215.966 49.9131 212.799C49.3496 214.402 48.9765 215.307 48.2144 216.819C47.0397 219.149 45.0139 222.41 44.273 224.867H42.5352Z" fill="#FDFDFC"/>
<path d="M45.9131 224.867C46.8826 223.47 49.2083 222.29 50.8494 222.002C51.18 221.947 51.5119 221.898 51.8447 221.858C51.204 223.036 50.5711 223.775 49.8531 224.867H45.9131Z" fill="#FDFDFC"/>
<path d="M39.4607 220.771C40.0316 217.146 41.4778 211.031 44.4827 208.591C44.6288 208.473 44.7256 208.464 44.9007 208.457C45.2601 208.595 45.1389 208.479 45.3194 208.762C45.3223 209.172 43.9146 210.65 43.5842 211.198C41.065 215.374 40.5974 220.097 39.9723 224.867H39.44H36.923H35.8662C34.7387 221.562 33.8623 216.535 34.9597 213.063C34.9824 212.991 35.0644 212.931 35.1221 212.882C35.6164 212.832 35.8896 213.096 36.1488 213.5C37.5481 215.683 38.5936 218.355 39.4607 220.771Z" fill="#356516"/>
<path d="M35.6216 214.483C37.6738 218.678 38.4822 220.2 39.4398 224.867H36.9227C35.7037 220.872 35.3196 218.704 35.6216 214.483Z" fill="#FDFDFC"/>
<path d="M26.3926 213.774C28.1151 213.955 29.5848 214.444 31.1788 215.102C29.6604 217.783 28.66 219.662 26.3926 221.877V213.774Z" fill="#FDFDFC"/>
<path d="M26.3926 212.736C27.3501 212.848 32.7064 213.664 32.1586 215.271C31.1707 218.171 28.6198 221.196 26.3926 223.269V221.877C28.66 219.662 29.6604 217.783 31.1788 215.102C29.5848 214.444 28.1151 213.955 26.3926 213.774V212.736Z" fill="#356516"/>
<path d="M28.2319 204.71L28.4857 204.856C28.934 205.473 29.012 208.52 28.5585 209.193L28.1794 209.034C27.647 208.485 27.7449 205.444 28.2319 204.71Z" fill="#356516"/>
<path d="M31.4183 205.95C31.7892 206.022 31.6366 205.939 31.8997 206.193C32.0077 206.754 31.2089 208.663 30.9635 209.366L30.5202 209.236C29.7366 208.392 30.8292 206.683 31.4183 205.95Z" fill="#356516"/>
<path d="M26.3926 177.356C40.6203 177.814 54.8999 178.366 69.0949 179.431C80.3623 180.276 91.6244 181.898 102.864 183.07C108.742 183.686 114.634 184.166 120.534 184.513C122.893 184.662 125.214 184.857 127.578 184.936L137.071 185.265C138.395 185.323 141.467 185.208 142.341 186.096L142.207 186.41C141.184 186.799 138.365 186.392 137.159 186.355C125.403 185.993 113.616 185.31 101.916 184.065L84.9437 182.151C80.987 181.67 76.171 180.994 72.2064 180.7C56.9582 179.546 41.6812 178.812 26.3926 178.5L26.3926 177.356Z" fill="#356516"/>
<path d="M26.3926 175.108C38.376 175.477 50.3543 175.998 62.3245 176.671C65.3268 176.835 68.5736 176.805 71.5296 177.085C83.514 178.22 95.4599 179.673 107.449 180.759C114.318 181.429 121.205 181.896 128.102 182.161L135.622 182.411C136.636 182.452 139.072 182.279 139.675 183.148L139.595 183.368C138.798 183.726 133.879 183.38 132.699 183.337C119.089 182.883 105.503 181.889 91.9731 180.358C90.6303 180.219 89.2021 180.017 87.8631 179.816C83.7849 179.204 79.6393 179.002 75.567 178.531C70.5475 177.95 65.7567 177.831 60.7173 177.59L41.4441 176.718C36.3119 176.536 31.6327 176.128 26.3926 176.102L26.3926 175.108Z" fill="#356516"/>
<path d="M26.3926 200.227C28.1533 200.649 30.0587 200.793 31.8611 201.117C36.1372 201.891 40.3964 202.756 44.6358 203.712C51.6699 205.389 58.6723 207.197 65.6391 209.135C81.0969 213.45 96.5722 217.835 111.521 223.71C112.162 223.962 113.38 224.337 113.785 224.867H111.26C110.255 224.22 108.145 223.494 106.943 223.051C104.699 222.225 102.447 221.422 100.187 220.642C89.3106 216.894 78.9733 213.967 67.9032 210.915C60.9199 208.916 53.8984 207.052 46.8426 205.325C40.0898 203.7 33.266 202.386 26.3926 201.388V200.227Z" fill="#356516"/>
<path d="M235.331 193.161C233.902 193.176 231.995 192.918 230.488 192.874C225.444 192.727 220.417 192.307 215.393 192.003C211.085 191.743 206.666 191.713 202.321 191.473C191.054 190.845 179.798 190.038 168.557 189.052C167.072 188.927 159.394 188.597 159.086 187.59L159.248 187.362C159.734 187.137 160.351 187.179 160.875 187.23C166.079 187.742 171.366 188.303 176.581 188.675C185.883 189.397 195.194 190.004 204.512 190.496L223.986 191.553C227.832 191.765 231.476 191.9 235.331 192.204V193.161Z" fill="#356516"/>
<path d="M110.858 167.015C111.983 167.066 113.084 167.157 114.216 167.165C116.482 167.18 132.741 166.928 133.52 167.245C133.667 167.304 133.652 167.394 133.7 167.532C133.627 167.877 133.599 167.896 133.388 168.191C132.385 168.28 130.761 168.231 129.706 168.229L123.381 168.226L115.515 168.244C114.022 168.248 112.261 168.296 110.789 168.205C110.483 167.947 110.58 168.103 110.477 167.724C110.546 167.319 110.553 167.309 110.858 167.015Z" fill="#356516"/>
<path d="M201.589 178.91L201.947 179.003C202.582 179.626 202.407 182.391 202.012 183.162C201.762 183.057 201.628 183.048 201.532 182.741C201.289 181.961 201.273 179.588 201.589 178.91Z" fill="#356516"/>
<path d="M175.508 177.71C175.943 177.75 175.847 177.673 176.083 177.922C176.135 178.388 175.256 180.523 175.025 181.422L174.59 181.358C173.87 180.486 174.973 178.503 175.508 177.71Z" fill="#356516"/>
<path d="M204.892 180.144C205.256 180.125 205.386 180.124 205.585 180.407C205.606 181.004 204.481 182.561 204.093 183.192C203.845 183.303 203.737 183.291 203.522 183.183C203.162 182.381 204.351 180.7 204.892 180.144Z" fill="#356516"/>
<path d="M198.678 179.91C199.605 180.107 200.741 182.418 200.401 183.35C200.129 183.356 200.111 183.378 199.863 183.282C199.372 182.559 198.983 181.618 198.62 180.818C198.448 180.44 198.52 180.297 198.678 179.91Z" fill="#356516"/>
<path d="M169.2 177.885C169.97 178.167 171.232 180.418 170.637 181.333L170.293 181.221C169.828 180.792 169.087 179.092 168.969 178.446C168.92 178.182 169.043 178.107 169.2 177.885Z" fill="#356516"/>
<path d="M171.98 177.594C172.416 177.627 172.5 177.569 172.763 177.8C172.882 178.504 173.028 180.346 172.914 181.029C172.465 181.013 172.535 181.079 172.199 180.877C171.796 180.233 171.925 178.396 171.98 177.594Z" fill="#356516"/>
<path d="M120.65 175.149C120.989 175.148 121.088 175.13 121.414 175.245C121.702 175.739 122.491 177.26 122.463 177.771C121.13 178.099 120.647 176.146 120.65 175.149Z" fill="#356516"/>
<path d="M189.881 171.668L190.346 171.985C190.678 172.618 189.971 173.884 189.364 174.235C188.991 174.287 189.149 174.329 188.863 174.17C188.648 173.591 189.486 172.133 189.881 171.668Z" fill="#356516"/>
<path d="M123.635 174.942C124.005 174.984 124.179 174.984 124.337 175.358C124.597 175.968 124.526 177.155 124.292 177.74C124.049 177.724 123.811 177.729 123.704 177.481C123.421 176.825 123.436 175.604 123.635 174.942Z" fill="#356516"/>
<path d="M29.0173 170.418C29.9098 170.538 30.7568 172.151 30.1049 173.058C29.4716 172.754 29.1319 171.482 28.8195 170.87C28.759 170.751 28.946 170.533 29.0173 170.418Z" fill="#356516"/>
<path d="M31.616 170.378C31.7817 170.365 32.097 170.328 32.2147 170.419C32.7569 170.836 32.4653 172.423 32.245 172.834C31.7628 172.775 31.8921 172.863 31.6099 172.571C31.4 171.912 31.5529 171.091 31.616 170.378Z" fill="#356516"/>
<path d="M186.78 171.46C187.068 171.48 187.106 171.46 187.363 171.602C187.806 172.294 187.619 173.225 187.561 174.071C187.061 174.023 187.153 174.112 186.873 173.832C186.635 173.075 186.747 172.273 186.78 171.46Z" fill="#356516"/>
<path d="M184.352 172.156C185.546 172.268 185.681 173.16 185.739 174.222C184.475 174.36 184.506 173.135 184.352 172.156Z" fill="#356516"/>
<path d="M133.969 81.2224C133.275 81.2629 132.204 81.4323 131.73 80.7886C131.882 80.1668 133.529 80.2065 134.131 80.1404C134.996 80.0426 135.844 79.8303 136.653 79.5092C138.536 78.7551 140.315 77.4652 141.548 75.8401C141.941 75.323 142.513 74.3898 142.971 74.0005L143.123 74.0158C145.424 76.2371 147.012 77.4855 146.955 80.9324C146.949 81.3388 146.942 82.2261 147.128 82.5585C146.869 82.9038 146.883 83.2278 147.008 83.6339L147.216 83.7615C146.809 84.0904 146.73 84.2629 146.709 84.8111C146.569 88.5264 145.831 91.9846 142.817 94.4785C141.264 95.7641 139.916 95.7192 137.998 95.3441C137.657 95.9317 137.325 96.524 137.003 97.1211C138.397 97.9305 139.951 98.5217 141.298 99.335C143.738 100.809 145.59 103.832 147.333 106.06C148.219 107.193 149.557 108.773 150.192 109.988C150.216 110.35 150.159 110.413 150.009 110.76C150.34 111.394 153.219 114.606 153.971 115.568C156.15 113.117 161.189 107.958 162.435 105.319L162.402 105.165C161.905 102.86 160.464 100.885 161.956 98.5214C162.845 97.1134 164.165 97.0338 165.067 95.5907C165.099 95.5369 166.077 95.0843 166.196 95.0295C168.234 96.0782 169.9 97.3115 171.353 99.0728C171.67 99.4561 172.073 99.7646 172.425 100.233C172.762 102.507 172.096 103.274 170.911 105.121C169.891 106.71 168.027 107.777 167.126 109.269C166.024 111.094 165.158 113.297 164.108 115.17C162.201 118.43 158.99 125.206 155.13 126.22C152.185 126.995 147.568 121.904 145.709 120.015C144.989 119.282 143.802 118.162 143.101 117.382C141.527 118.129 141.385 117.413 140.48 116.152C139.265 118.192 138.496 119.118 136.917 120.817C133.797 124.173 131.637 129.135 131.049 133.657C130.87 135.03 130.642 135.371 129.402 135.762C129.168 136.851 128.576 138.3 128.171 139.377C129.524 140.6 130.524 141.322 131.641 142.81C131.653 143.235 131.209 143.398 131.412 143.597C135.126 147.244 138.822 150.903 142.328 154.752C143.162 155.667 143.985 156.601 144.847 157.479C147.368 155.959 150.021 155.928 151.902 158.466C153.191 157.306 154.246 157.185 155.948 157.136C155.945 155.353 155.835 150.619 156.018 149.096C158.177 149.053 160.338 149.047 162.499 149.077C162.516 147.893 162.342 143.82 162.683 142.996C163.342 142.527 170.95 142.621 171.961 142.783L171.981 142.913C172.277 145.055 171.717 151.819 172.448 152.988C173.019 153.247 174.009 152.767 174.697 152.549L174.706 140.676C174.704 139.425 174.616 134.524 174.849 133.663C175.137 133.893 175.517 134.208 175.82 134.403C175.821 135.049 175.778 136.638 175.94 137.194C176.041 138.438 175.964 140.782 175.96 142.127L175.882 152.363C178.262 149.671 180.494 148.181 183.668 150.911C185.408 149.168 185.759 148.954 188.306 149.238C188.507 145.337 189.982 141.5 194.54 141.735C195.074 139.803 195.69 139.086 196.848 137.466C196.721 136.701 196.647 135.929 196.629 135.155C196.567 131.409 198.071 130.265 200.417 127.848C200.492 125.237 200.869 122.947 202.435 120.876C206.616 115.346 213.809 117.376 215.662 123.733C215.961 124.759 216.032 125.745 216.184 126.759C216.807 127.316 217.306 127.734 217.967 128.242C218.79 127.306 220.314 125.614 220.975 124.583L220.813 124.336C220.75 123.878 220.793 123.828 220.946 123.373C221.405 123.195 221.936 122.924 222.409 123.029C223.334 124.134 219.394 128.051 218.65 129.011C219.602 130.334 219.949 131.074 220.612 132.541C221.195 131.866 221.55 131.38 222.338 130.946L222.625 130.94C222.993 131.908 221.3 133.83 220.683 134.542C220.593 135.937 220.501 136.633 220.113 137.97C220.51 138.642 220.988 139.354 221.316 140.054C223.801 145.361 221.842 150.945 217.656 154.649C218.889 154.404 220.916 153.404 221.541 153.639C221.983 154.289 221.465 155.284 221.221 155.972C223.679 155.175 223.925 154.483 225.746 153.417C226.46 153.723 227.358 154.428 228.013 154.894C229.485 155.939 230.619 156.391 232.328 156.852C231.952 156.112 231.035 154.49 231.102 153.731C231.386 153.335 231.744 153.423 232.18 153.577C233.23 153.947 234.25 154.371 235.332 154.653V155.663V166.997V168.035V169.596V170.707V175.377V178.857V182.171V183.355V188.904V189.874C228.984 189.634 222.773 189.183 216.428 188.893C198.152 188.228 179.898 187.075 161.684 185.434C160.666 185.338 159.645 185.288 158.625 185.233C158.077 185.205 157.769 185.028 157.645 184.474L157.76 184.313C159.135 183.877 166.404 184.843 168.417 185.01L179.066 185.813C187.215 186.413 195.372 186.873 203.536 187.193C206.746 187.344 211.673 187.816 214.673 187.72C213.151 186.824 210.949 186.141 209.59 184.979C209.378 184.798 209.434 184.717 209.449 184.487C210.538 182.633 214.049 182.958 215.826 183.203C214.357 181.788 209.539 177.175 210.262 175.098C210.829 174.45 211.747 174.791 212.497 174.91C215.02 175.312 216.796 176.767 218.659 178.395C217.38 175.421 216.845 171.391 216.835 168.165C210.593 168.003 203.665 168.158 197.376 168.173L165.851 168.16L156.835 168.172C155.501 168.186 154.173 168.218 152.84 168.263C152.418 168.277 152.122 168.101 151.844 167.803C151.743 167.457 151.721 167.611 151.868 167.321C152.6 166.84 159.053 167.121 160.417 167.091C161.284 164.797 163.011 165.13 163.329 164.535C164.844 161.712 165.883 161.809 168.762 162.313C169.288 159.74 170.443 158.883 173.009 158.511C174.502 156.756 175.617 156.213 177.91 156.952C179.6 155.546 180.888 154.889 183.119 155.709C183.483 155.843 183.674 156.211 184.053 156.268C184.718 155.656 185.425 155.78 186.364 155.776C186.403 153.422 186.74 152.081 188.301 150.259C187.264 150.047 185.905 149.968 185.236 150.866C183.67 152.969 183.247 151.406 181.436 150.793C179.257 150.057 177.363 151.597 176.717 153.693L175.583 153.267C174.755 153.442 173.919 153.595 173.53 154.401C172.739 154.739 172.015 153.705 170.913 153.665C169.126 153.601 169.255 154.829 168.316 155.66C167.701 155.894 166.825 155.432 166.157 155.234C165.362 154.817 164.167 155.625 163.565 155.576C161.632 155.419 160.016 155.071 159.054 157.256C158.36 158.987 158.095 158.827 156.349 158.352C154.059 157.729 153.441 158.862 151.745 159.726C150.373 158.413 149.35 156.878 147.08 157.505C146.601 157.637 145.989 157.863 145.728 158.309C145.759 158.878 147.164 161.038 147.433 162.016C148.093 164.408 148.593 166.728 149.385 169.082C150.338 171.915 151.45 174.693 152.443 177.495C153.932 181.698 155.34 185.877 157.114 189.979C157.75 191.448 158.534 192.77 159.161 194.219C160.896 194.218 161.031 194.71 162.626 195.209C164.069 195.597 165.804 195.946 167.299 195.921C169.145 195.84 170.79 194.987 172.557 194.558C174.004 194.208 175.717 195.16 176.128 196.622C176.605 198.316 175.523 199.396 174.574 200.562C172.89 202.635 170.861 204.149 168.305 204.976C166.846 205.453 165.205 205.745 163.798 206.389C161.352 207.811 157.354 210.757 154.419 209.047C153.88 207.626 153.523 206.192 152.898 204.78C152.279 203.384 152.077 201.693 151.697 200.193C151.907 199.661 152.074 199.315 152.335 198.806C152.034 197.794 151.315 196.494 150.852 195.503C149.405 192.404 147.479 189.458 145.489 186.677C143.701 184.178 141.969 181.977 140.513 179.231C139.082 176.53 138.529 174.43 137.954 171.439C137.787 170.573 137.526 168.898 137.266 168.097C136.266 165.021 131.825 163.233 129.219 161.64C128.12 160.969 126.2 159.798 125.101 159.267C123.258 161.38 123.129 159.92 120.811 160.015C119.614 160.064 118.662 161.271 117.946 162.153C115.582 161.485 115.142 161.742 113.124 160.215C110.558 163.549 104.694 170.061 101.477 172.52C100.841 173.016 100.134 173.413 99.3795 173.697C95.8486 175.01 93.0137 172.712 90.1882 171.925C86.9234 171.018 68.4283 164.399 66.5707 165.061C66.0579 166.334 64.1787 166.319 63.0165 166.854C61.4387 167.583 59.5063 169.427 58.3727 170.742C57.5383 171.771 56.9038 173.373 55.6997 174.006C54.4148 174.681 51.735 173.953 51.2274 172.5C50.2233 169.625 51.7836 165.177 53.0814 162.582C53.6767 161.39 54.9169 160.328 55.4578 159.066C56.8587 155.809 56.7421 152.701 60.4654 151.113C62.8867 152.114 66.727 154.12 68.3491 156.197C68.5092 156.402 68.5663 156.948 68.5997 157.222C70.8406 157.668 73.1013 158.191 75.3735 158.395C78.115 158.641 80.9553 158.463 83.6723 158.623C87.3265 158.838 91.6628 160.324 94.7912 162.253C96.0534 159.839 97.1293 158.596 98.3666 155.788C97.3504 154.567 96.0644 154.081 94.4959 154.23C92.9655 154.376 91.9967 155.343 90.6982 155.999C89.7363 155.389 88.9944 154.223 87.8495 153.826C85.7476 153.099 84.4135 153.757 82.5903 154.667C80.0051 155.958 79.8349 151.442 77.769 150.909C75.9267 150.434 74.8245 151.106 73.2369 151.836C71.6112 151.038 72.47 147.11 67.2944 148.43C66.4185 149.781 65.3589 149.489 63.8965 149.474C64.3726 150.004 66.556 151.93 66.2476 152.491C65.0865 152.833 61.7719 149.447 62.9047 148.503C63.4839 148.357 64.7939 148.47 65.4162 148.547C64.4902 147.674 60.3575 144.095 61.0758 142.799C61.5678 142.535 62.6993 142.848 63.2933 142.963C62.4996 142.103 58.6964 137.737 59.8638 136.846C60.4577 136.795 61.2728 136.943 61.8827 137.029C61.2497 136.368 58.5483 133.347 58.9611 132.488C59.4208 132.344 59.9455 132.434 60.4408 132.472C58.9268 130.127 57.9909 128.886 56.861 126.149C56.4002 127.427 56.0986 128.218 55.4374 129.431C55.1051 130.041 53.8577 131.835 53.7351 132.268C54.0495 132.389 54.5434 132.09 55.215 132.175C56.2278 132.998 53.1958 136.41 52.5514 137.103C53.1855 137.022 54.4281 136.678 54.756 137.267C54.799 138.725 52.4777 141.536 51.5326 142.774C52.2403 142.753 53.7115 142.492 54.2367 142.747C54.2806 142.837 54.3231 142.909 54.3376 143.012C54.4673 143.929 52.8522 145.477 52.325 146.207C52.2783 146.271 52.0899 146.508 52.0855 146.575C52.0416 147.25 52.3621 148.126 52.4 148.835C52.4959 150.627 50.6339 154.226 50.6737 154.471C51.9035 154.914 54.0945 153.079 55.221 153.415C55.8588 154.087 55.3775 155.898 54.6335 155.91C54.3867 155.712 54.2476 155.204 54.1272 154.884C53.8566 154.741 52.1996 155.429 51.6337 155.454C50.9501 155.485 50.3956 155.48 49.7128 155.444C47.5848 157.172 45.9824 158.141 43.2215 158.486C43.2849 161.22 43.3711 163.954 43.4801 166.687C44.3602 166.672 48.2407 166.495 48.6918 166.872C48.7833 167.173 48.7716 167.153 48.6997 167.463C48.5003 167.649 48.3013 167.724 48.0279 167.722C45.9497 167.706 43.8356 167.682 41.7603 167.682L26.3926 167.708V166.665V160.641V159.517V152.003V151.048V143.393V139.185V132.321V124.999V112.42V110.386C26.6233 110.733 27.7904 112.681 27.8755 113.008C27.9062 113.125 29.3091 112.994 29.6999 112.997C31.3581 113.023 32.9061 113.832 33.8734 115.179C35.0803 116.886 35.0432 118.538 34.8324 120.505C37.7667 121.697 38.7279 124.621 37.5604 127.485C37.3049 128.111 36.9218 128.633 36.6298 129.23C37.7157 128.36 38.5987 127.626 39.9815 127.249C43.6948 126.237 46.6563 129.425 47.1186 132.889C47.1903 133.426 47.2228 133.97 47.2606 134.511C49.2625 136.425 50.7495 137.786 50.8029 140.776C50.806 141.182 50.801 141.588 50.788 141.994C51.8413 140.825 52.6778 139.487 53.5115 138.155C52.6992 138.164 51.9402 138.286 51.3027 137.814C51.0442 137.183 51.5563 136.702 51.9723 136.244C52.8358 135.293 53.3999 134.592 53.959 133.428C53.0226 133.459 52.7667 133.553 52.0774 132.849C53.4164 130.458 55.1132 128.381 55.9593 125.694C56.0955 125.261 56.3518 124.525 56.7431 124.3C56.945 124.3 57.1409 124.262 57.2675 124.472C57.867 125.465 58.3632 126.879 58.8714 127.928C59.4066 129.037 60.0374 130.097 60.7569 131.097C61.1525 131.64 61.9793 132.528 61.9422 133.15C61.5669 133.688 61.1077 133.575 60.4877 133.584C61.1465 134.653 61.7861 135.419 62.6789 136.305C63.0348 136.658 63.5111 137.105 63.5099 137.625C63.0246 138.321 61.6422 138.081 60.8535 138.04C61.4469 138.971 62.0931 139.867 62.789 140.724C63.2124 141.239 64.9607 143.099 64.8463 143.722C64.2175 144.078 63.1383 143.922 62.3743 143.885C63.7596 145.528 64.3983 146.177 66.0052 147.605C69.8723 146.827 71.5941 146.879 73.5815 150.576C74.7137 149.865 76.0557 149.332 77.4088 149.667C80.1353 150.34 80.5172 153.198 81.6072 153.676C82.4213 154.033 87.1396 150.135 90.8329 154.922C93.2397 152.564 96.4344 152.516 98.9241 154.797C99.6641 153.268 100.318 151.987 101.22 150.545C100.666 150.033 100.069 149.455 99.6521 148.82C100.111 147.81 100.926 146.844 101.514 145.886C102.127 144.887 102.685 143.862 103.249 142.834C101.647 137.315 103.489 132.385 107.259 128.238C106.818 128.104 106.414 128.023 106.054 127.748C105.508 126.207 110.765 122.08 111.496 120.446C112.121 119.049 113.134 117.231 113.589 115.703C114.205 112.488 114.359 108.967 114.544 105.696C113.332 105.813 112.532 105.971 111.356 106.362C109.934 106.833 109.816 105.594 109.716 104.619C106.977 105.114 104.169 105.7 101.405 105.913C99.4871 111.101 95.6707 115.881 94.2736 121.323L94.334 121.432C94.5485 121.814 95.426 123.046 95.745 123.373C97.2809 124.943 96.918 126.562 96.8429 128.728C96.294 129.477 96.1489 129.608 95.299 130.004L95.2369 130.032C94.8564 131.516 94.9092 131.625 93.5257 132.247C92.2197 131.773 89.4926 131.944 88.5052 131.182C88.2354 130.924 88.1745 130.926 87.8051 130.809C86.625 130.378 86.0425 129.572 85.8043 128.34C85.1471 125.393 87.4525 122.754 88.2004 120.195C89.7931 114.747 90.7809 109.213 93.0136 103.947C94.4263 100.614 94.9384 99.0762 98.5027 97.8147C101.827 96.6379 105.347 96.257 108.463 94.6348C108.686 94.5186 109.75 94.3452 110.055 94.2898C109.038 93.9065 108.072 93.1127 107.217 92.8434C105.17 92.1996 103.243 92.3907 102.999 94.9089C102.976 95.1435 102.86 95.182 102.691 95.2586C102.373 95.1205 102.27 94.8121 102.104 94.4939C102.366 91.8302 103.008 90.117 105.374 88.6501C107.581 87.2816 110.206 87.0776 112.706 87.6078C114.571 88.0035 116.261 88.6652 118.213 88.3802C120.371 88.1383 120.991 87.2898 122.824 86.3607C123.162 86.1896 123.356 86.1333 123.677 86.2523C123.741 87.0431 122.494 87.6712 121.906 88.0775C117.138 91.3717 112.622 87.2911 107.602 88.6854C105.868 89.1669 104.695 90.2574 103.814 91.7989C106.502 91.3188 107.568 91.5146 109.871 93.0458C111.573 94.1776 113.101 93.5278 114.849 93.0873C116.332 92.7139 117.965 92.2948 119.487 92.0788C121.149 91.8432 122.853 92.4753 124.467 92.7667C125.372 92.9295 126.299 93.0283 127.221 93.1902C128.817 92.097 129.731 90.2397 130.275 88.4307C128.097 86.8328 127.513 86.0345 128.081 83.2259C127.031 83.5931 125.528 84.5668 124.856 84.6576C124.54 84.4636 124.664 84.5895 124.479 84.2568C124.771 82.8603 129.373 81.8837 130.723 81.8565C131.311 82.3258 131.571 82.5537 132.087 83.0975L132.169 83.045C133.085 82.4666 133.323 82.1149 133.969 81.2224Z" fill="#356516"/>
<path d="M26.3926 112.42C26.6967 112.937 26.7422 114.067 27.267 114.249C27.4438 114.31 28.324 114.157 28.5362 114.15C31.7587 113.531 34.2899 116.106 33.8687 119.283C33.7781 119.966 33.6173 120.563 33.4371 121.234C36.4493 122.28 38.1006 124.104 36.385 127.478C36.0184 128.199 35.3978 128.969 34.9264 129.644C37.0836 130.634 38.4135 131.496 37.0943 133.967L37.0302 134.085C40.2946 136.487 41.2429 140.239 37.1772 142.616C36.5597 142.977 35.2619 142.913 34.6683 143.487C34.2718 144.647 34.8406 145.975 33.9203 147.043C33.1983 147.881 32.9085 147.863 31.9805 148.174C30.825 148.562 29.4593 147.317 28.8643 148.262C28.0745 149.517 27.7247 150.267 26.3926 151.048V143.393V139.185V132.321V124.999V112.42Z" fill="#FDFDFC"/>
<path d="M26.3926 124.999C26.6628 125.442 26.6253 128.073 26.9545 129.336L27.048 129.239C28.0959 128.137 28.1955 127.269 29.0306 126.1C29.1832 126.042 29.3128 125.992 29.4194 125.951L29.6618 125.998C30.1724 127.15 27.543 130.427 26.8251 131.38C28.2069 131.28 30.2393 130.519 31.0664 130.743L31.1523 130.896C30.581 132.125 27.6172 132.395 26.3926 132.321V124.999Z" fill="#356516"/>
<path d="M26.3926 139.185C27.3178 137.739 27.7128 137.811 28.5748 139.263C28.0891 140.438 27.0496 142.272 26.3926 143.393V139.185Z" fill="#356516"/>
<path d="M218.176 165.575C224.58 169.748 225.676 176.452 225.757 183.449C225.763 183.956 225.634 184.784 226.231 184.905C226.751 184.494 227.092 182.058 227.293 181.259C228.346 177.063 231.477 172.78 235.331 170.707V175.377V178.857V182.171V183.355V188.904L223.341 188.168C222.035 188.096 218.351 188.124 217.449 187.788C215.452 187.041 212.623 185.551 210.604 184.57C212.846 183.734 215.331 183.848 217.486 184.887C217.946 185.115 218.863 185.755 219.301 185.733L219.476 185.523C219.526 185.157 219.447 184.935 219.162 184.675C216.171 181.947 212.991 179.576 211.236 175.778C214.944 175.955 217.724 178.582 219.609 181.569C220.005 182.197 221.35 185.226 222.072 184.969C222.248 184.687 222.204 184.321 222.074 184.037C220.424 180.447 219.01 177.006 218.235 173.094C217.755 170.678 217.677 168.015 218.176 165.575Z" fill="#FDFDFC"/>
<path d="M235.332 183.355C234.352 183.791 232.725 185.138 231.863 185.828C231.236 185.349 231.589 184.556 231.885 183.976C232.934 181.923 233.876 179.899 234.511 177.673C234.712 176.967 234.998 176.01 235.332 175.377V178.857V182.171V183.355Z" fill="#356516"/>
<path d="M235.332 178.857V182.171C234.678 182.444 234.015 182.917 233.415 183.312C233.869 182.213 234.788 179.817 235.332 178.857Z" fill="#FDFDFC"/>
<path d="M220.821 172.663L221.151 172.723C222.516 173.69 224.82 184.086 224.384 185.963C224.073 185.936 223.969 185.917 223.661 185.848C223.425 185.528 223.31 183.17 223.165 182.49C222.528 179.52 221.797 176.41 220.723 173.568C220.544 173.092 220.623 173.096 220.821 172.663Z" fill="#356516"/>
<path d="M231.163 178.221C231.191 178.232 231.22 178.241 231.246 178.253C231.392 178.319 231.649 178.455 231.688 178.613C231.781 178.985 229.209 185.46 228.868 186.206C228.749 186.162 228.21 185.96 228.241 185.826C228.737 183.619 229.882 180.051 231.163 178.221Z" fill="#356516"/>
<path d="M87.5062 129.264C86.9452 128.408 86.6168 127.739 86.8324 126.686C87.2782 124.509 88.6418 122.702 89.301 120.63C90.7107 116.199 93.3395 102.211 96.8893 99.8612C98.8931 98.5348 105.186 97.1351 107.806 96.4059C108.776 98.9821 109.3 100.799 109.747 103.534C108.13 103.759 106.5 103.993 104.886 104.222C103.732 104.385 101.779 104.798 100.707 104.735C100.04 105.96 99.7036 107.173 99.0597 108.511C97.3195 112.125 93.1701 117.85 93.3589 121.844C93.4066 122.85 97.6782 126.436 95.2531 128.935L95.0378 128.881C94.76 128.139 94.8751 126.893 94.8384 126.074C94.7678 126.032 94.6972 125.989 94.6267 125.947C92.7243 126.322 94.774 130.28 93.5824 130.975C92.189 130.837 92.849 128.653 91.8036 128.247C91.4445 128.33 91.5739 128.235 91.3795 128.51C91.2505 129.419 91.835 130.266 91.7343 130.908L91.6064 130.984C89.8231 130.528 90.8727 128.734 89.6701 128.204C88.9093 128.444 89.6665 130.016 89.5705 130.698C88.9712 130.343 88.8737 129.973 88.5974 129.343C88.5317 128.785 88.4862 128.369 88.12 127.947L87.8814 127.843C87.409 128.061 87.4631 128.285 87.484 128.762L87.5062 129.264Z" fill="#FDFDFC"/>
<path d="M26.3926 152.003C27.8397 151.449 29.0674 150.651 29.5948 149.115C30.1036 149.174 30.6611 149.251 31.1668 149.294C31.2267 154.653 34.7324 158.072 39.9411 158.679C39.956 161.339 39.7314 163.958 39.7504 166.657L36.8868 166.675C36.7417 163.26 35.2885 161.956 31.9298 162.002C30.667 159.694 28.9922 158.924 26.3926 159.517V152.003Z" fill="#FDFDFC"/>
<path d="M232.343 154.738C233.4 155.14 234.211 155.486 235.331 155.663V166.997C233.56 166.834 230.606 166.921 228.719 166.923C228.26 163.543 228.097 159.65 227.999 156.245C229.004 156.691 232.918 158.703 233.622 157.523C233.617 156.746 232.757 155.53 232.343 154.738Z" fill="#FDFDFC"/>
<path d="M222.371 167.94C225.953 168.243 231.61 168.051 235.332 168.035V169.596C231.284 171.568 228.084 175.568 226.616 179.795C226.265 175.512 225.268 171.252 222.371 167.94Z" fill="#FDFDFC"/>
<path d="M26.3926 160.64C29.1317 159.654 30.1788 161.012 31.3679 163.307C33.5424 162.855 35.2965 163.048 35.7725 165.64C35.8309 165.973 35.8638 166.309 35.8708 166.647L26.3926 166.664V160.64Z" fill="#FDFDFC"/>
<path d="M88.5977 129.343C88.8739 129.973 88.9715 130.343 89.5707 130.698C89.1988 130.796 88.8812 131.015 88.5057 131.182C88.236 130.923 88.1751 130.926 87.8057 130.808C88.0633 130.467 88.2395 130.339 88.5155 129.94C88.5031 129.728 88.5053 129.702 88.5558 129.503L88.5977 129.343Z" fill="#356516"/>
<path d="M120.001 93.3112C121.3 93.2297 124.766 93.9245 126.269 94.1502C126.996 95.9268 128.139 97.8132 129.283 99.3592C131.907 102.908 137.076 105.487 137.545 98.7199C138.555 99.2604 140.529 100.084 141.333 100.726C142.936 102.006 144.514 104.437 145.823 106.084C146.827 107.348 148.103 108.888 148.987 110.18C148.148 111.181 143.109 116.042 142.109 116.259C141.589 116.036 141.184 115.329 140.874 114.851C140.956 114.129 141.426 106.385 141.334 105.995C141.089 105.752 141.232 105.813 140.896 105.799C139.826 106.47 140.092 111.309 139.862 112.649C139.73 113.416 139.638 114.698 139.374 115.483C138.492 118.099 136.135 119.646 134.562 121.765C133.652 122.99 132.952 124.441 132.261 125.77C130.446 129.321 130.553 131.001 129.591 134.492C125.4 134.636 121.685 133.482 118.021 131.518C114.009 129.367 112.187 127.748 107.486 126.874C108.912 124.81 110.849 123.319 112.383 121.338C113.048 120.694 113.156 119.368 113.57 118.676C114.914 116.431 115.106 114.409 115.268 111.817C115.395 109.803 115.557 107.623 115.855 105.567C116.732 105.47 118.234 105.677 118.754 104.9C118.8 104.543 118.84 104.694 118.705 104.418C117.535 103.835 112.457 104.825 110.89 105.058C110.736 101.215 110.201 99.1617 108.684 95.6886C112.281 95.1192 116.251 93.6245 120.001 93.3112Z" fill="#FDFDFC"/>
<path d="M122.708 128.923C121.062 128.361 115.078 122.376 116.256 120.779C116.752 120.71 116.97 121.494 117.309 122.06C119.115 125.072 120.773 126.633 123.629 128.509C123.122 128.928 123.365 128.815 122.708 128.923Z" fill="#356516"/>
<path d="M121.203 94.5031C121.929 94.4934 122.32 94.5603 122.565 95.3155C123.251 97.4357 122.473 100.525 121.321 102.292C121.023 102.395 120.992 102.434 120.68 102.38C120.589 102.257 120.49 102.149 120.564 101.977C121.439 99.9583 122.347 97.9606 121.665 95.7143C121.523 95.245 121.236 95.1085 121.203 94.5031Z" fill="#356516"/>
<path d="M131.883 117.345L132.147 117.383L132.288 117.599L132.233 117.835C131.464 118.562 127.52 120.098 126.343 120.356C125.876 120.459 125.135 120.543 124.634 120.586C124.24 120.425 124.333 120.53 124.173 120.215C124.263 120.043 124.344 119.909 124.555 119.86C127.146 119.259 129.439 118.386 131.883 117.345Z" fill="#356516"/>
<path d="M123.628 128.509C124.145 128.847 124.842 129.173 124.962 129.742C124.37 130.086 123.183 129.311 122.707 128.923C123.365 128.815 123.121 128.928 123.628 128.509Z" fill="#356516"/>
<path d="M207.378 118.805C211.538 118.49 213.745 120.882 214.801 124.798C214.941 125.32 215.083 126.963 215.409 127.358C216.353 128.507 217.697 129.28 218.46 130.645C220.225 133.271 219.599 135.528 219.01 138.401C223.902 144.834 220.643 152.468 213.854 155.902C212.497 156.587 211.216 156.734 209.718 156.856C209.667 156.243 209.517 153.771 209.751 153.245C210.532 151.485 212.147 149.421 213.154 147.737C213.675 146.863 214.837 145.532 214.421 144.577C214.28 144.502 214.16 144.427 213.997 144.415C213.185 144.355 210.429 147.318 209.625 147.968C209.45 143.589 209.419 138.769 209.333 134.354C209.339 134.018 209.327 133.964 209.269 133.627C208.903 133.132 208.416 133.186 207.925 133.45C207.751 133.661 207.662 133.945 207.648 134.215C207.483 137.46 206.901 140.855 206.799 144.072C206.156 143.424 203.872 140.749 203.532 140.545C203.141 140.53 203.32 140.487 202.975 140.686C202.474 141.987 206.116 146.536 206.312 147.75C206.694 150.102 206.197 154.556 206.059 156.932C200.264 155.586 195.121 151.199 195.067 144.812C195.049 142.813 195.884 140.463 197.14 138.913C197.497 138.472 197.865 137.876 198.18 137.395C197.227 135.597 197.618 132.964 198.687 131.302C199.396 130.2 200.375 129.348 201.342 128.482C201.776 126.184 201.557 123.818 203.117 121.698C204.177 120.26 205.588 119.107 207.378 118.805Z" fill="#FDFDFC"/>
<path d="M129.685 143.783C130.13 143.892 135.003 148.706 135.606 149.372C138.816 152.921 142.791 156.454 145.412 160.456C146.798 162.86 146.931 165.889 147.923 168.44C150.68 175.536 152.885 183.305 155.976 190.23C154.323 191.587 152.751 192.31 150.702 192.823C149.95 191.023 148.544 188.924 147.41 187.342C144.347 183.226 141.085 178.762 139.645 173.772C138.858 171.046 139.139 167.078 136.825 165.173C132.068 161.258 126.123 158.826 121.041 155.282C119.649 154.312 118.133 153.311 116.7 152.416C117.386 151.883 117.836 151.618 118.305 150.889C118.437 149.174 118.298 148.238 118.099 146.54C119.556 147.009 120.597 147.365 122.131 147.588L122.169 147.568C122.888 147.203 123.82 146.49 124.49 145.993C126.238 144.696 127.625 144.262 129.685 143.783Z" fill="#FDFDFC"/>
<path d="M101.885 151.455C102.827 151.971 104.095 153.16 105.022 153.8C107.444 155.472 110.774 157.077 113.592 157.862C109.906 161.445 102.649 172.276 97.2331 172.948C96.5697 173.029 86.1501 169.361 84.213 168.741C81.5369 167.91 78.8984 166.925 76.1996 166.149C74.8537 165.764 73.424 165.336 72.126 164.821C72.1522 162.996 72.481 160.983 73.3502 159.36C74.9241 159.517 76.4928 159.661 78.0745 159.711C81.4771 159.819 85.1215 159.661 88.4111 160.695C90.3588 161.307 92.0523 162.308 93.9158 163.089C94.2653 163.236 94.7873 163.436 95.1494 163.27C96.5971 162.607 101.122 153.307 101.885 151.455Z" fill="#FDFDFC"/>
<path d="M40.775 128.17C42.761 128.033 44.2898 128.951 45.2404 130.66C46.0449 132.106 46.1321 133.547 46.324 135.149C49.111 137.661 50.5447 139.284 49.2936 143.213C49.7394 144.082 50.3688 145.152 50.6974 146.045C51.4545 148.105 51.3573 150.383 50.4276 152.371C49.2999 154.763 47.1345 156.266 44.6988 157.127C44.2588 157.282 43.6337 157.536 43.2233 157.342C43.0642 156.685 43.0759 154.007 43.0628 153.202C43.7717 151.948 45.8725 149.844 45.9714 148.696C45.8178 148.392 45.9341 148.499 45.5958 148.38C45.0112 148.549 43.5446 150.792 42.8724 151.526L42.7803 151.626C42.9329 148.948 42.5112 146.098 42.3921 143.41C42.3686 143.194 42.3089 142.232 42.1489 142.117C40.9058 141.232 40.8535 143.104 40.8096 143.424C40.677 145.794 40.6348 148.096 40.378 150.459C39.7524 149.502 39.1173 148.507 38.4522 147.575C38.2037 147.228 37.8699 146.78 37.4171 147C37.0943 148.002 39.9607 151.358 40.072 152.027C40.2475 153.083 39.982 156.51 39.9229 157.647C35.3041 157.087 32.3878 153.942 32.1797 149.288C35.0652 148.404 35.5323 146.897 35.7966 144.168C41.2819 142.8 42.6574 137.831 38.5635 133.871C38.6987 132.798 38.7205 132.317 38.5897 131.248C38.3724 131.01 37.9715 130.589 37.888 130.297C37.5129 128.987 39.9556 128.374 40.775 128.17Z" fill="#FDFDFC"/>
<path d="M134.923 81.1426C138.692 80.2458 140.789 78.5292 143.17 75.4812C145.009 77.1671 146.043 78.6521 146.046 81.2252C146.048 81.4377 146.019 81.3858 145.864 81.5166C145.804 81.8971 145.8 81.8776 145.898 82.2478C145.961 82.6741 145.839 83.8485 145.802 84.2967C145.596 86.7783 145.414 89.0468 144.075 91.2433C143.293 92.5296 142.112 94.0785 140.546 94.4499C138.886 94.8437 136.568 93.606 135.328 92.5617C134.741 92.0667 134.171 91.3031 133.514 90.8892C133.145 90.9402 133.295 90.8595 133.047 91.1379C132.834 92.4454 135.903 94.3628 136.933 94.8834C136.432 95.8049 134.841 98.2862 135.263 99.1853C135.586 99.3332 135.425 99.313 135.76 99.2716C136.125 98.994 136.367 98.4388 136.598 98.0156C136.54 98.6291 136.505 99.3114 136.357 99.9041C135.537 103.178 133.12 101.676 131.502 100.103C129.687 98.3372 128.648 96.3786 127.457 94.2309C129.644 93.0797 130.683 90.8509 131.338 88.6079C131.465 88.1752 131.89 88.1109 131.829 87.4949C129.595 86.9101 128.15 85.9553 129.344 83.3015C129.7 82.8225 130.604 82.5926 130.883 83.2803C132.001 86.0291 134.483 82.4291 134.923 81.1426Z" fill="#FDFDFC"/>
<path d="M145.897 82.2477C145.226 82.3146 144.196 82.5554 143.7 82.0558C144.021 81.3798 145.24 81.4062 145.863 81.5165C145.803 81.897 145.799 81.8775 145.897 82.2477Z" fill="#356516"/>
<path d="M138.213 88.6208C140.493 89.4355 145.094 88.5943 142.079 91.6948C141.522 92.1209 141.228 92.1963 140.575 92.4127C139.057 91.9642 137.086 90.224 138.213 88.6208Z" fill="#356516"/>
<path d="M138.933 89.8435C139.747 89.9973 141.603 90.0209 142.093 90.3993C142.063 90.6736 142.01 90.629 141.732 90.8727C140.254 91.8316 139.642 91.2363 138.933 89.8435Z" fill="#FDFDFC"/>
<path d="M142.343 83.5273C142.543 83.5445 142.71 83.5704 142.907 83.5993C143.046 83.7741 143.093 84.5254 143.079 84.6715C142.995 85.5968 143.847 86.4562 143.782 87.1963C143.534 87.7521 143.188 87.8697 142.628 88.124C142.312 88.1756 142.222 88.2106 141.905 88.1345L141.817 87.9686C142.085 86.9502 142.435 87.4728 142.923 86.9371L142.9 86.7319C142.121 85.7821 142.149 84.6999 142.343 83.5273Z" fill="#356516"/>
<path d="M138.298 80.6508C139.16 80.6106 140.595 80.5375 141.022 81.4745L140.927 81.6475C140.56 81.8097 140.464 81.76 140.046 81.6994C138.563 81.1605 138.531 81.7363 137.517 81.5054C137.366 81.2133 137.401 81.3752 137.497 80.9913C137.71 80.7431 137.968 80.7302 138.298 80.6508Z" fill="#356516"/>
<path d="M144.47 83.6416C145.629 83.9964 145.706 84.5347 144.93 85.4325C143.662 85.4432 143.748 84.2773 144.47 83.6416Z" fill="#356516"/>
<path d="M138.925 82.9991L139.282 83.0318C140.079 83.4932 139.766 84.2665 139.382 84.9027C138.087 84.6793 138.44 83.8147 138.925 82.9991Z" fill="#356516"/>
<path d="M163.981 98.0278C165.032 98.4908 165.867 99.1827 166.78 99.8711C166.362 100.061 166.14 100.152 165.703 100.286C165.245 100.01 163.882 99.0041 163.498 99.5325C163.622 100.13 164.868 101.134 165.22 102.082C165.662 103.271 165.107 103.573 165.645 104.685L165.856 104.733L166.102 104.554C166.468 103.888 166.365 102.977 166.345 102.213C167.029 102.747 168.292 103.699 169.159 103.754C169.79 103.794 170.153 103.405 170.623 103.024L170.783 103.195C169.528 105.758 168.537 105.775 167.163 107.376C164.685 110.264 163.388 114.849 161.126 118.111C157.318 123.598 155.599 128.535 149.188 121.786C147.815 120.356 145.37 117.974 143.879 116.522C145.695 114.972 147.453 113.355 149.147 111.673C150.559 113.372 151.852 114.91 153.387 116.493C153.164 117.081 152.628 118.201 153.091 118.707L153.336 118.706C154.121 117.938 154.58 116.635 155.303 115.754C157.043 113.631 163.175 107.963 163.435 105.362C163.607 103.647 162.188 102.083 162.368 100.367C162.477 99.3276 163.199 98.6276 163.981 98.0278Z" fill="#FDFDFC"/>
<path d="M108.725 128.237C109.593 128.717 111.113 128.987 112.322 129.62C111.387 130.838 110.096 134.019 110.009 135.508C109.779 139.439 114.668 143.312 116.915 146.038C117.535 150.766 117.702 150.214 114.164 153.383C113.946 153.593 113.476 153.898 113.211 154.082C109.343 149.783 104.091 145.583 103.925 139.484C103.799 134.864 105.697 131.503 108.725 128.237Z" fill="#FDFDFC"/>
<path d="M112.915 129.929C113.607 130.185 115.841 131.654 116.666 132.103C119.021 133.386 121.825 134.557 124.408 135.212C125.306 135.439 127.335 135.637 128.302 135.755C127.85 136.77 127.471 137.723 127.196 138.799C126.537 138.084 124.384 135.903 123.503 136.022C123.063 136.745 124.085 137.487 124.598 137.948C125.92 139.135 127.346 140.253 128.682 141.424C129.089 141.782 129.52 142.2 129.921 142.572C126.023 143.323 124.958 144.271 121.813 146.439C121.228 146.323 118.091 145.622 117.734 145.271C115.423 142.998 111.452 139.285 110.992 135.966C110.788 134.498 112.468 131.55 112.875 130.077L112.915 129.929Z" fill="#FDFDFC"/>
<path d="M116.186 135.21C117.672 135.202 121.372 135.584 122.504 136.511C122.677 136.874 122.639 136.725 122.548 137.184C120.964 137.105 119.076 136.135 117.41 136.212C117.086 136.227 116.429 136.192 116.179 136.011C116.044 135.725 116.125 135.528 116.186 135.21Z" fill="#356516"/>
<path d="M193.284 142.783C193.603 142.75 193.788 142.693 194.068 142.842C193.951 145.238 193.883 146.119 194.558 148.444C195.519 151.75 197.203 153.067 199.627 155.274C199.854 158.776 198.245 161.867 194.507 162.255L194.514 157.203C194.514 156.207 194.546 154.62 194.39 153.67C194.144 153.439 194.041 153.488 193.648 153.405C193.257 153.863 193.432 156.271 193.444 156.994C193.478 158.79 193.5 160.586 193.509 162.382C192.37 162.269 191.622 162.164 190.574 161.573C187.675 160.114 186.413 155.013 188.132 152.354C189.512 150.219 189.288 150.094 189.571 147.508C189.797 145.455 191.096 143.327 193.284 142.783Z" fill="#FDFDFC"/>
<path d="M220.192 154.997L220.342 155.019C220.447 155.403 219.679 156.183 219.709 157.029C220.297 157.876 223.212 156.393 223.948 155.948C223.842 159.513 223.485 163.266 223.365 166.939L221.74 166.955C220.335 166.006 219.509 164.976 217.822 164.069C217.518 164.736 217.376 165.124 217.153 165.826L216.943 167.038L210.22 167.043C210.085 164.131 209.728 160.772 209.728 157.897C212.993 157.626 213.492 157.088 216.37 155.904C217.369 155.492 218.706 155.668 220.192 154.997Z" fill="#FDFDFC"/>
<path d="M180.952 156.345C182.808 156.389 182.304 156.697 183.862 157.288C184.202 157.418 184.695 156.972 185.006 156.74C185.437 156.721 185.954 156.728 186.392 156.724C186.572 157.813 186.763 158.376 187.188 159.388C186.01 159.62 185.782 159.839 185.036 160.772C182.961 159.82 181.336 160.066 180.027 161.829C179.7 162.271 178.769 162.013 178.235 161.99C177.024 161.942 175.805 162.374 174.893 163.181C173.567 164.383 173.417 165.453 173.296 167.125L168.253 167.114L161.426 167.102C162.511 165.953 162.831 165.891 164.234 165.564C164.493 165.504 164.721 163.804 165.237 163.396C166.379 162.493 167.675 163.325 168.963 163.27C170.165 163.206 169.733 161.269 170.703 160.415C171.616 159.61 172.204 159.553 173.319 159.54C174.791 157.993 175.94 156.695 178.026 158.347C179.188 157.314 179.379 156.634 180.952 156.345Z" fill="#FDFDFC"/>
<path d="M187.118 160.251C187.659 160.287 187.977 160.732 188.329 161.118C189.84 162.773 191.349 163.164 193.469 163.435C193.512 164.555 193.472 165.915 193.469 167.052L179.853 167.114C178.013 167.113 176.146 167.072 174.304 167.047C174.423 165.836 174.642 164.886 175.602 164.028C177.106 162.686 178.738 163.069 180.551 163.187C181.495 160.641 183.412 160.909 185.25 162.291C185.857 161.458 186.28 160.851 187.118 160.251Z" fill="#FDFDFC"/>
<path d="M159.719 195.248C160.617 195.384 160.871 195.665 161.591 196.213C161.354 196.967 160.632 197.964 160.767 198.55C160.98 198.82 160.847 198.739 161.177 198.809C161.728 198.623 162.188 197.156 162.643 196.512C162.984 196.531 162.994 196.569 163.278 196.751C163.648 197.597 162.571 197.976 162.722 198.793C163.049 199.04 163.079 198.964 163.56 199.017C163.821 198.421 164.089 197.623 164.389 197.075C164.761 196.859 164.567 196.909 164.991 196.908C165.633 197.487 164.501 198.043 164.821 198.882C165.102 199.038 165.121 199.014 165.435 199.01C166.391 198.434 165.513 197.471 166.666 196.923L166.863 196.996C167.064 197.546 166.74 198.114 166.938 198.827C167.184 199.036 167.043 198.986 167.382 198.964C167.745 198.701 168.004 197.517 168.105 197.067C168.138 197.062 168.17 197.058 168.202 197.054L168.364 197.027C169.508 196.85 172.108 195.954 173.325 195.58C173.655 195.778 174.01 195.955 174.354 196.133C173.643 197.133 173.188 197.887 172.343 198.799C169.162 201.882 166.515 202.153 162.458 203.245C161.465 203.512 160.082 204.169 159.125 204.62C157.375 202.763 155.685 202.526 153.279 202.171C153.045 201.302 153.009 200.71 152.975 199.818C156.665 201.565 157.575 200.6 159.695 197.542C158.641 196.538 158.93 196.328 159.719 195.248Z" fill="#FDFDFC"/>
<path d="M200.582 156.022C202.692 156.656 202.976 157.653 205.955 157.785C205.984 160.632 205.756 164.143 205.661 167.039C203.883 167.114 201.784 167.086 199.981 167.1L194.546 167.112C194.531 165.838 194.533 164.563 194.551 163.289C198.766 162.851 200.444 160.007 200.582 156.022Z" fill="#FDFDFC"/>
<path d="M65.4635 155.478C66.1096 155.531 67.324 156.402 67.3201 156.911C66.7393 157.308 65.8348 157.429 65.1105 157.843C63.9702 158.495 63.1706 162.377 63.8885 163.183C64.8535 163.344 65.041 163.892 65.5823 164.665C64.8315 165.029 64.2675 165.188 63.4769 165.429C63.1329 164.836 62.5806 162.931 61.845 163.094C61.1587 164.023 62.8096 165.338 62.029 166.06C61.2621 165.92 61.1452 164.576 60.4226 164.227C60.0676 164.323 60.2085 164.23 59.977 164.502C59.8036 165.574 61.2232 166.376 60.6604 167.162C59.729 167.089 59.5661 165.084 58.5787 165.798C58.3079 166.757 59.7323 167.572 59.1406 168.496C58.5037 168.125 58.0715 167.014 57.4002 167.187C57.0223 168.004 57.7535 168.585 58.2539 169.155C57.0662 170.463 56.188 172.057 55.1455 173.071L53.7415 173.009C53.6109 170.124 54.1408 166.365 55.9438 164.057C57.7524 161.743 58.7085 160.255 60.0113 157.624C62.5839 157.533 63.4574 156.948 65.4635 155.478Z" fill="#FDFDFC"/>
<path d="M165.816 143.712C167.316 143.695 169.615 143.615 171.034 143.76C171.087 146.666 170.987 149.825 170.972 152.764C169.462 152.761 169.169 153.018 168.145 154.013C168.022 154.197 167.899 154.382 167.776 154.567C167.124 154.617 166.217 154.023 165.58 154.077C164.968 154.13 164.186 154.393 163.578 154.569C163.519 150.97 163.516 147.369 163.566 143.77L165.816 143.712Z" fill="#FDFDFC"/>
<path d="M167.668 148.8L167.901 148.835C168.429 149.235 168.225 149.652 167.884 150.12C167.452 149.966 167.287 149.897 167.18 149.432C167.325 149.002 167.277 149.137 167.668 148.8Z" fill="#356516"/>
<path d="M167.707 145.994C168.058 146.072 168.123 146.199 168.205 146.523C168.123 146.918 168.086 146.931 167.798 147.236C167.524 147.049 167.203 146.877 167.119 146.569C167.278 146.186 167.292 146.275 167.707 145.994Z" fill="#356516"/>
<path d="M165.425 151.794C165.604 151.698 165.824 151.714 165.988 151.836C166.152 151.957 166.233 152.161 166.194 152.362C166.156 152.562 166.006 152.723 165.809 152.775C165.548 152.844 165.278 152.707 165.179 152.456C165.081 152.205 165.186 151.92 165.425 151.794Z" fill="#356516"/>
<path d="M165.616 145.857C165.921 146.019 166.079 146.194 166.155 146.526C166.054 146.977 166.1 146.826 165.747 147.203C165.415 147.009 165.314 146.993 165.179 146.66C165.193 146.308 165.389 146.141 165.616 145.857Z" fill="#356516"/>
<path d="M165.616 148.799C166.052 148.939 166.052 148.955 166.156 149.364C166.063 149.757 166.045 149.771 165.805 150.106C165.434 149.958 165.338 149.865 165.231 149.482C165.346 149.003 165.257 149.184 165.616 148.799Z" fill="#356516"/>
<path d="M103.723 144.329C104.049 144.631 104.947 146.553 105.313 146.997C106.958 148.988 111.278 154.101 113.182 155.385C114.447 155.132 116.636 153.905 117.246 154.078L117.346 154.299C117.253 155.2 116.443 156.25 115.949 157.044L115.853 157.167C115.56 157.233 114.453 156.866 114.064 156.773C109.648 155.711 104.044 152.259 101.1 148.849C101.44 148.034 103.106 145.5 103.723 144.329Z" fill="#FDFDFC"/>
<path d="M208.101 140.223L208.261 140.298L208.403 140.964C208.507 142.669 208.505 144.326 208.527 146.028C208.543 147.232 208.378 148.916 209.019 149.938C209.802 149.323 210.322 148.913 211.035 148.208L211.472 148.392C210.664 149.632 209.394 151.471 208.849 152.796C208.53 153.825 208.702 155.159 208.657 156.187C208.491 159.824 209.103 163.444 209.185 167.04C208.341 167.057 207.437 167.035 206.589 167.03L207.188 154.989C207.31 152.735 207.474 150.297 207.437 148.047C207.422 147.08 205.805 145.517 205.821 144.428C206.494 144.773 206.488 145.357 207.178 145.544L207.411 145.388C207.872 144.575 207.999 141.338 208.101 140.223Z" fill="#FDFDFC"/>
<path d="M156.391 191.308C156.583 191.468 158.068 194.587 158.231 195.005C158.057 195.461 157.892 195.973 157.732 196.438L158.25 197.669C157.492 198.936 156.853 199.313 155.491 199.667C155.079 199.562 154.622 199.379 154.219 199.232L153.51 198.726C152.876 196.678 152.282 195.654 151.26 193.811C153.47 193.17 154.563 192.649 156.391 191.308Z" fill="#FDFDFC"/>
<path d="M67.3876 158.177C67.8897 158.131 71.4207 159.055 72.178 159.241C71.3254 161.555 71.0333 162.259 71.1903 164.72C70.8079 164.592 70.3717 164.472 69.9809 164.355C69.0382 164.123 67.5149 163.94 66.5092 163.793C65.6821 162.475 63.8003 161.487 65.2211 159.423C65.8206 158.552 66.3805 158.324 67.3876 158.177Z" fill="#FDFDFC"/>
<path d="M225.359 154.756C226.186 154.749 226.364 155.012 226.977 155.564C227.143 158.109 227.059 160.714 227.304 163.266C227.419 164.454 227.538 165.645 227.638 166.834C227.384 166.997 227.35 166.939 226.992 166.95L224.392 166.96C224.426 164.619 224.642 162.245 224.746 159.901C224.81 158.457 224.831 156.969 224.971 155.532C225 155.238 225.185 154.989 225.359 154.756Z" fill="#FDFDFC"/>
<path d="M156.999 150.108L162.516 150.121C162.534 151.56 162.533 153 162.513 154.439C161.471 154.35 160.923 154.466 159.984 154.852C158.732 155.644 158.73 156.07 157.805 157.132C157.597 157.371 157.495 157.368 157.25 157.363C156.765 156.838 156.983 151.142 156.999 150.108Z" fill="#FDFDFC"/>
<path d="M174.936 197.171C175.03 197.206 175.037 197.238 175.119 197.322C175.005 198.249 173.626 200.029 172.977 200.707C171.188 202.577 168.758 203.734 166.285 204.388C165.408 204.62 164.098 204.914 163.334 205.333C160.807 206.722 158.574 208.726 155.459 208.317C155.231 208.097 154.728 207.214 155.207 207.14C157.984 206.707 160.472 204.82 163.09 204.19C168.262 202.944 171.788 201.956 174.936 197.171Z" fill="#FDFDFC"/>
<path d="M118.705 155.26C119.677 155.563 121.069 156.799 122.005 157.305C122.574 157.613 124.116 158.388 124.216 159.024C123.578 159.754 121.645 158.778 120.626 158.993C119.77 159.175 119.633 159.261 118.883 159.662C118.284 160.105 118.066 160.36 117.598 160.923C115.788 160.408 115.426 160.765 113.873 159.383L114.691 158.333C115.218 158.362 115.742 158.344 116.27 158.334C117.144 157.543 117.791 156.152 118.705 155.26Z" fill="#FDFDFC"/>
<path d="M60.2917 152.423C60.5877 152.46 61.4882 152.887 61.8058 153.029C59.444 154.815 59.0689 157.246 57.7316 159.768C56.9416 161.258 55.9704 162.1 55.0242 163.374C53.5067 165.416 52.7251 169.141 52.6747 171.624C52.7047 171.952 52.7354 172.048 52.6271 172.364L52.4968 172.331C51.5685 170.717 52.3122 168.7 52.5771 167.005C53.0316 164.097 55.1685 162.17 56.3914 159.747C57.6535 157.246 57.5793 154.138 60.2917 152.423Z" fill="#FDFDFC"/>
<path d="M41.3801 150.872C41.5252 150.523 41.5382 150.224 41.5852 149.849C41.6871 150.153 41.7857 150.459 41.8807 150.765C41.9358 152.354 42.1271 153.9 42.1578 155.478C42.2309 159.239 42.2198 162.931 42.5288 166.686L40.6758 166.685C40.7888 163.798 41.0862 160.95 41.1609 157.994C41.2036 156.304 41.1792 152.216 41.3801 150.872Z" fill="#FDFDFC"/>
<path d="M153.486 203.198C154.295 203.445 158.095 204.089 158.009 205.169L157.7 205.369C154.317 206.207 154.714 206.336 153.486 203.198Z" fill="#FDFDFC"/>
<path d="M62.4045 153.737C63.4423 153.788 63.8891 154.197 64.759 154.77C63.8817 155.408 63.2988 155.781 62.3698 156.319C61.5903 156.556 61.0089 156.602 60.207 156.694C60.8126 155.568 61.45 154.605 62.4045 153.737Z" fill="#FDFDFC"/>
<path d="M169.202 98.538C169.648 98.5955 169.49 98.5211 169.846 98.7826C170.194 99.9034 168.454 100.42 167.847 102.064C166.152 101.398 168.529 99.2268 169.202 98.538Z" fill="#FDFDFC"/>
<path d="M170.623 103.024C170.798 102.664 170.977 102.411 170.939 102.026C170.745 101.67 170.883 101.777 170.558 101.641C169.848 101.846 169.507 102.66 169.002 102.782C168.726 101.872 169.972 100.573 170.802 100.296C171.237 100.381 171.086 100.295 171.406 100.589C171.638 101.242 171.39 101.951 171.103 102.56C170.999 102.773 170.893 102.985 170.783 103.195L170.623 103.024Z" fill="#FDFDFC"/>
<path d="M50.7998 143.794C51.4316 143.756 52.2381 143.772 52.8833 143.767C52.6676 144.138 52.5571 144.302 52.2911 144.639C51.9848 145.009 52.0291 145.095 51.6737 145.156C51.2846 144.935 51.0212 144.231 50.7998 143.794Z" fill="#FDFDFC"/>
<path d="M167.748 97.3307C168.093 97.3459 168.09 97.3386 168.411 97.4528L168.49 97.6476C168.36 98.0584 167.817 98.5674 167.497 98.9136L167.434 98.9494C166.838 98.8199 166.816 98.3786 166.991 97.8874C167.089 97.6149 167.513 97.4428 167.748 97.3307Z" fill="#FDFDFC"/>
<path d="M165.715 96.3C166.078 96.2993 166.468 96.2742 166.615 96.6354C166.515 97.0235 166.228 97.2491 165.941 97.5498C165.542 97.7088 165.702 97.7053 165.306 97.625C164.937 97.0403 165.274 96.6842 165.715 96.3Z" fill="#FDFDFC"/>
<path d="M41.4397 146.133C41.5984 146.675 41.6782 147.365 41.6745 147.93C41.7513 148.87 41.8392 149.822 41.8807 150.765C41.7857 150.459 41.6872 150.154 41.5852 149.85C41.5382 150.224 41.5253 150.523 41.3802 150.872C41.3526 150.366 41.3844 149.627 41.3919 149.102C41.337 148.098 41.3962 147.137 41.4397 146.133Z" fill="#FDFDFC"/>
<path d="M41.44 146.133C41.5987 146.675 41.6785 147.365 41.6749 147.93L41.5439 147.896C41.4644 148.334 41.4317 148.665 41.3923 149.102C41.3374 148.098 41.3965 147.137 41.44 146.133Z" fill="#356516"/>
<path d="M211.034 148.208C211.591 147.573 212.159 146.95 212.74 146.338C212.345 147.127 212.036 147.702 211.472 148.392L211.034 148.208Z" fill="#FDFDFC"/>
<path d="M208.101 140.223C208.024 139.635 208.15 138.471 208.381 137.926C208.403 138.831 208.467 140.087 208.403 140.964L208.261 140.298L208.101 140.223Z" fill="#356516"/>
<path d="M225.549 105.362C226.211 108.1 227.267 110.727 228.686 113.16C229.27 114.148 229.962 115.091 230.527 116.043C229.788 115.711 228.357 114.973 227.603 115.007C226.78 115.654 229.129 119.39 229.619 120.269C230.446 121.749 231.863 123.087 232.934 124.416C231.808 124.144 229.583 122.922 229.109 123.093C228.121 124.447 233.946 130.72 235.331 131.331V131.627V132.663V138.231V139.627V140.206V143.951V146.904V151.121V154.653C234.25 154.371 233.23 153.947 232.18 153.577C231.743 153.423 231.385 153.335 231.102 153.731C231.034 154.49 231.951 156.112 232.328 156.852C230.619 156.391 229.485 155.939 228.012 154.894C227.357 154.428 226.46 153.723 225.746 153.417C223.924 154.483 223.679 155.175 221.221 155.972C221.465 155.284 221.983 154.289 221.54 153.639C220.916 153.404 218.889 154.404 217.655 154.649C221.841 150.945 223.801 145.361 221.316 140.054C220.987 139.354 220.51 138.642 220.113 137.97C220.501 136.633 220.592 135.937 220.682 134.542C221.299 133.83 222.993 131.908 222.625 130.94L222.338 130.946C221.549 131.38 221.194 131.865 220.612 132.541C219.949 131.074 219.602 130.334 218.65 129.011C219.394 128.051 223.334 124.134 222.408 123.028C221.936 122.924 221.405 123.195 220.945 123.373C220.208 123.663 219.342 124.029 218.594 124.253C219.215 123.34 220.074 122.481 220.72 121.612C221.558 120.485 223.935 116.621 223.731 115.326C223.134 114.596 221.249 115.837 220.418 116.104C223.014 112.423 224.399 109.819 225.549 105.362Z" fill="#FDFDFC"/>
<path d="M235.331 139.627C233.769 138.464 228.605 132.359 229.173 130.482C229.236 130.429 229.297 130.376 229.358 130.323C230.466 130.569 231.884 131.127 232.964 131.374C234.004 131.611 234.363 131.618 235.331 131.627V132.663V138.231V139.627Z" fill="#356516"/>
<path d="M230.445 131.757C232.456 132.384 233.205 132.645 235.332 132.663V138.231C233.674 136.958 231.562 133.543 230.445 131.757Z" fill="#FDFDFC"/>
<path d="M235.331 151.121C234.618 150.732 232.237 147.463 232.547 146.586C233.025 146.304 234.696 146.772 235.331 146.904V151.121Z" fill="#356516"/>
<path d="M235.332 143.951C235.275 143.918 235.069 143.795 235.033 143.743C234.58 143.069 232.006 140.629 232.753 139.901C233.475 139.766 234.574 140.054 235.332 140.206V143.951Z" fill="#356516"/>
<path d="M222.432 116.518C221.601 116.817 219.277 117.696 218.745 116.694C218.866 116.213 220.571 114.047 220.947 113.497C221.311 112.959 221.644 112.401 221.945 111.825C222.465 110.848 222.908 109.889 223.339 108.888C223.875 107.648 224.658 104.082 225.384 103.178L225.563 103.142C226.384 103.834 227.155 107.857 227.814 109.131C228.472 110.405 228.987 111.671 229.795 112.953C230.463 114.011 231.807 115.705 232.163 116.748C231.441 117.527 229.622 116.767 228.719 116.447C230.293 119.503 231.855 121.853 234.267 124.303C234.409 124.447 234.471 124.703 234.487 124.9C233.988 125.875 231.441 125.061 230.591 124.816C231.795 126.167 233.818 129.119 235.332 130.027V131.331C233.947 130.72 228.121 124.447 229.11 123.093C229.583 122.922 231.808 124.144 232.934 124.416C231.863 123.087 230.446 121.749 229.62 120.269C229.129 119.39 226.781 115.654 227.604 115.007C228.358 114.973 229.788 115.711 230.528 116.043C229.963 115.091 229.271 114.148 228.686 113.16C227.267 110.727 226.211 108.1 225.549 105.362C224.399 109.819 223.015 112.423 220.419 116.104C221.25 115.837 223.134 114.596 223.731 115.326C223.935 116.621 221.558 120.485 220.721 121.612C220.075 122.481 219.216 123.34 218.594 124.253C219.342 124.029 220.208 123.663 220.946 123.373C220.793 123.828 220.75 123.878 220.813 124.336L220.976 124.583C220.103 124.867 217.477 125.779 216.869 124.785C216.849 124.543 216.887 124.302 217.07 124.128C219.492 121.842 220.96 119.497 222.432 116.518Z" fill="#356516"/>
<path d="M219.449 43.5869H222.325C224.11 44.9324 223.276 46.0725 222.874 47.7769C222.614 48.8793 224.425 48.4597 225.113 49.4022C225.182 49.8199 225.206 49.6266 225.058 50.006C224.247 50.4577 220.347 50.3371 219.206 50.3397L211.232 50.3313C210.458 50.3277 207.021 50.5436 206.694 50.025C206.759 49.9051 206.813 49.8057 206.936 49.7347C208.602 48.7757 209.48 49.2181 211.09 49.4739C211.332 47.9476 211.678 46.2661 213.515 45.8699C214.782 45.597 215.792 46.3381 216.803 46.9835C217.875 45.5593 217.644 44.7001 219.449 43.5869Z" fill="#FDFDFC"/>
<path d="M31.1995 94.0426C31.3679 93.8921 32.3059 93.0314 32.4107 92.9962C33.6758 92.5709 34.263 93.4387 34.7232 91.8068C35.884 87.6899 40.5669 87.1048 43.2095 90.2017C43.5495 90.6001 43.8422 90.9867 44.1481 91.3987C46.3888 90.5885 48.0662 91.0446 49.3554 93.1096C51.9098 92.7935 53.3127 92.9567 55.4089 94.5528C55.9385 94.9562 56.5536 95.5027 56.2341 96.1975C55.3567 96.7134 49.6461 96.05 48.2857 96.2888C47.9293 96.3513 47.2933 96.2171 46.9656 96.0197C46.8 95.7017 46.813 95.8599 46.9016 95.5317C47.325 95.1811 53.7062 95.4108 54.9412 95.3074C53.0425 94.2572 51.3066 93.2514 49.1466 94.3595C47.4982 92.1996 46.4068 91.0193 43.8344 92.9488C43.1438 91.9599 42.5107 90.6047 41.4948 89.9744C37.4799 87.4836 35.6272 91.1711 35.2033 94.3518C33.0071 93.3577 32.6539 93.5629 31.6277 95.684C30.1342 94.5001 28.0532 93.9015 26.3926 95.1532V93.9494C28.5367 93.2655 29.0689 93.3847 31.1995 94.0426Z" fill="#356516"/>
<path d="M217.845 43.5869H219.449C217.644 44.7001 217.875 45.5593 216.802 46.9835C215.791 46.3381 214.781 45.597 213.515 45.8699C211.678 46.2661 211.332 47.9476 211.09 49.4739C209.479 49.2181 208.602 48.7757 206.936 49.7347C206.812 49.8057 206.758 49.9051 206.694 50.025C207.021 50.5436 210.458 50.3277 211.232 50.3313L219.206 50.3396C220.347 50.3371 224.247 50.4577 225.058 50.006C225.206 49.6266 225.181 49.8199 225.113 49.4022C224.424 48.4597 222.613 48.8793 222.874 47.7769C223.276 46.0725 224.11 44.9324 222.325 43.5869H223.791C224.647 44.6367 224.354 46.4517 224.048 47.6532C225.04 47.9412 226.248 48.4757 226.207 49.6827C226.139 51.6411 222.265 51.2517 220.823 51.259L215.477 51.2767L208.845 51.2652C208.019 51.2629 205.671 51.4714 205.2 50.9407C204.9 49.9366 206.539 48.7919 207.346 48.4312C208.471 47.9279 209.11 47.9771 210.203 48.3833C210.866 45.3245 213.741 43.7233 216.501 45.576C216.953 44.6125 217.067 44.2948 217.845 43.5869Z" fill="#356516"/>
<path d="M26.3926 96.3574L36.9856 96.3348C38.1162 96.3308 41.759 96.1208 42.458 96.598L42.5612 96.8234C42.2963 97.2853 41.8108 97.2855 41.3165 97.2914C36.3429 97.3509 31.3665 97.3494 26.3926 97.3432V96.3574Z" fill="#356516"/>
<path d="M183.032 134.376C183.305 134.111 183.327 134.08 183.659 133.909L183.884 133.984C183.963 138.35 183.804 142.769 183.874 147.142C184.492 147.148 186.468 147.07 186.853 147.389C186.826 148.603 183.764 148.334 183.069 147.921C182.997 147.878 182.989 147.682 182.986 147.582C183.1 146.458 183.032 144.164 183.031 142.966L183.032 134.376Z" fill="#356516"/>
<path d="M147.128 82.5585C149.118 79.0512 148.845 75.8914 145.058 73.5524C144.811 73.3991 144.289 73.2136 144.174 72.963C144.152 72.5442 144.097 72.6627 144.288 72.3562C144.777 72.205 145.268 72.4624 145.712 72.6991C147.393 73.5901 148.639 75.1243 149.169 76.9511C149.658 78.6415 149.454 80.4572 148.6 81.9961C148.306 82.5183 147.661 83.366 147.216 83.7615L147.008 83.634C146.883 83.2278 146.869 82.9038 147.128 82.5585Z" fill="#356516"/>
<path d="M174.849 133.663C175.506 133.077 181.722 133.461 183 133.361C183.222 133.344 183.542 133.408 183.745 133.518C183.866 133.746 183.869 133.729 183.885 133.984L183.659 133.909C183.328 134.08 183.305 134.111 183.033 134.376L183.032 142.966C183.033 144.164 183.1 146.458 182.987 147.582C182.847 146.895 182.896 143.985 182.897 143.091L182.89 134.422C180.578 134.405 178.265 134.403 175.954 134.417C175.955 135.343 175.95 136.268 175.94 137.194C175.778 136.638 175.821 135.049 175.82 134.403C175.517 134.208 175.137 133.893 174.849 133.663Z" fill="#356516"/>
<path d="M181.594 69.736C184.519 69.5359 186.185 70.8043 187.207 73.501C187.434 73.4847 187.661 73.4739 187.89 73.4686C190.498 73.4234 191.073 75.28 191.05 77.4553C189.662 77.5999 187.258 77.5316 185.795 77.5299C182.973 77.5276 180.152 77.541 177.331 77.5699C176.036 77.5762 168.698 77.7772 168.107 77.3151C168.045 77.1345 167.977 77.0633 168.042 76.883C168.946 74.3435 170.803 74.0894 172.933 74.475C173.271 73.8034 173.453 73.5377 173.898 72.9235C175.293 72.2187 176.199 72.3603 177.671 72.6364C178.422 70.9214 179.811 70.068 181.594 69.736Z" fill="#356516"/>
<path d="M181.464 70.7576C184.628 70.447 185.609 72.0354 186.497 74.6652C187.333 74.5073 188.001 74.3122 188.831 74.6436C189.404 74.8726 190.191 75.8624 189.949 76.464C189.567 76.552 187.027 76.5189 186.511 76.5212L177.129 76.5492C174.48 76.5873 171.829 76.5851 169.18 76.543C170.637 75.0475 171.603 74.9277 173.498 75.7388C173.832 74.9786 174.186 74.3307 174.688 73.6713C176.034 73.191 176.714 73.4221 177.93 73.9575C178.941 72.3234 179.6 71.3302 181.464 70.7576Z" fill="#FDFDFC"/>
<path d="M134.122 68.6225C135.168 68.5062 135.908 68.6456 136.918 68.6547C138.44 68.6683 143.881 70.2836 143.588 72.2455L143.39 72.3203C142.839 72.1888 142.401 71.8263 141.936 71.5143C139.557 69.9193 136.899 69.5454 134.085 69.7095C128.531 70.0331 126.057 75.8808 120.404 76.0028C114.454 76.1313 111.831 71.9252 105.802 73.119C108.474 73.4345 109.171 73.9512 111.499 75.3805C112.239 75.8268 112.925 76.3381 113.78 76.5372C114.091 76.6094 114.363 76.6979 114.475 76.9979C112.599 79.7201 104.354 74.2333 99.3879 82.3518C100.487 81.9194 105.503 80.2489 106.048 81.6329C105.837 82.1134 103.943 82.7222 103.249 83.0563C103.077 83.1702 102.909 83.2888 102.744 83.412C101.145 84.6153 99.7146 86.8553 99.7984 88.8955C99.8287 89.6348 99.9279 91.0551 99.8354 91.7076C99.4115 91.7898 99.5505 91.8193 99.1747 91.6931C98.8288 91.268 98.7036 90.0277 98.6892 89.4673C98.6051 86.1926 99.9577 84.6951 101.986 82.4882C100.462 82.9383 99.8537 83.5982 98.4736 84.2971C98.3017 84.3843 98.3943 84.3611 98.1625 84.2864C97.6983 83.4966 98.3699 82.4417 98.6863 81.6944C99.9008 78.8251 102.643 77.3281 105.588 76.7615C107.765 76.3425 109.819 76.6188 112 76.8463C110.538 75.8494 107.43 74.0512 105.621 73.9747C105.214 73.9574 103.917 74.5381 103.299 74.4428C102.966 74.1664 103.055 74.3332 102.969 73.958C103.222 73.2125 104.381 72.5909 105.084 72.3007C110.33 70.1343 114.648 74.8282 119.863 74.9014C124.427 74.9654 126.663 71.2784 130.495 69.5629C131.928 68.9271 132.631 68.8241 134.122 68.6225Z" fill="#356516"/>
<path d="M81.0211 70.7361C83.7587 70.4936 85.1793 71.5393 86.3109 73.9591C87.3325 73.8599 88.1787 73.9346 89.0549 74.5493C89.6435 74.9621 90.3115 75.6986 90.4005 76.4376C90.4194 76.5956 90.3913 76.8065 90.2647 76.917C89.6657 77.4393 81.6875 77.2106 80.2083 77.2084C77.6434 77.2025 75.0661 77.214 72.5018 77.1936C71.9985 77.1896 71.5349 77.1922 71.2063 76.8395C71.0779 76.2881 71.2293 76.001 71.452 75.5146C72.755 72.6688 75.3026 71.1699 78.2816 72.5804C79.1628 71.5865 79.7568 71.146 81.0211 70.7361Z" fill="#356516"/>
<path d="M81.0784 71.7738C83.8878 71.3631 84.9129 73.0366 85.7564 75.3319C86.8282 75.1108 88.5008 74.7048 89.0812 75.9614L89.0029 76.1075C88.3274 76.278 80.9836 76.2116 79.9031 76.213C77.5485 76.2089 74.5773 76.2792 72.2783 76.1213C73.0989 74.3763 74.4447 72.6897 76.6831 73.113C77.0941 73.1907 78.3643 73.7092 78.6322 73.5384C79.7864 72.8025 79.6587 72.3304 81.0784 71.7738Z" fill="#FDFDFC"/>
<path d="M194.44 57.4944L194.647 57.5405C195.158 57.8784 195.595 60.5031 195.832 61.3026C196.469 63.462 197.283 64.1115 199.392 64.816C199.814 64.957 201.225 65.2663 201.358 65.7412C200.806 66.422 198.315 66.0961 196.733 68.0679C195.281 69.8776 195.652 72.5747 194.843 73.7394C194.628 73.6911 194.37 73.6841 194.296 73.4989C193.738 71.6119 193.592 70.2149 192.76 68.4126C191.763 66.2542 188.082 66.4765 187.917 65.531C189.187 64.808 190.813 64.7678 192.226 63.6507C194.003 62.2464 193.498 58.5095 194.44 57.4944Z" fill="#356516"/>
<path d="M194.643 61.2019C194.784 61.3532 194.733 61.2712 194.793 61.4751C195.525 63.9805 196.263 64.765 198.747 65.632C196.467 66.4917 195.212 67.7166 194.739 70.1643C194.585 69.9716 193.882 68.3641 193.734 68.0005C193.195 66.6726 191.778 66.0868 190.482 65.6003C193.108 64.9007 193.755 63.6603 194.643 61.2019Z" fill="#FDFDFC"/>
<path d="M34.9625 69.5348C35.1548 69.5785 35.4661 69.6207 35.53 69.8218C36.0637 71.5036 36.1687 73.2531 37.0571 74.8673C37.8801 76.3624 40.7549 76.304 41.5062 77.342C41.5095 77.4095 41.5128 77.477 41.5161 77.5446C40.3318 78.1058 38.3934 78.3239 37.4331 79.2998C35.6509 81.1108 36.3766 83.7595 35.2058 85.4001C33.8335 83.7727 34.594 81.3555 32.9607 79.4714C31.8093 78.1434 29.1745 78.144 28.624 77.2667C29.1591 76.7186 31.7443 76.2923 32.6327 75.5545C34.4074 74.0806 33.9728 71.0242 34.9625 69.5348Z" fill="#356516"/>
<path d="M35.1201 73.0355C35.4853 73.3882 35.8298 74.4327 35.9888 74.9368C36.3717 76.151 37.7231 76.8643 38.8434 77.3837C38.7443 77.4223 38.6459 77.463 38.5486 77.5057C36.2883 78.4807 36.0624 79.2959 35.1958 81.4744C34.8908 81.1513 34.4081 79.9379 34.1845 79.4768C33.5832 78.2366 32.6461 77.8723 31.4424 77.448C33.9181 76.062 34.1552 75.6476 35.1201 73.0355Z" fill="#FDFDFC"/>
<path d="M203.719 102.181C206.509 101.844 208.487 103.018 208.187 106.108C207.109 107.622 206.098 107.568 204.366 107.56C202.944 107.553 201.507 107.538 200.084 107.529C199.236 107.537 196.243 107.689 195.692 107.328C195.273 106.36 196.763 105.03 197.55 104.614C198.654 104.03 199.718 104.067 200.871 104.42C201.629 103.263 202.459 102.685 203.719 102.181Z" fill="#356516"/>
<path d="M204.065 103.087C205.043 103.03 205.787 103.017 206.533 103.74C207.535 104.712 207.522 105.604 206.601 106.513C204.846 106.676 201.761 106.585 199.874 106.598C198.821 106.608 197.804 106.572 196.751 106.536C198.356 104.782 199.243 104.909 201.2 105.827C202.019 104.541 202.531 103.512 204.065 103.087Z" fill="#FDFDFC"/>
<path d="M87.2077 85.3597L87.6087 85.3979C88.2788 85.8096 88.4398 88.1909 88.7055 88.9958C89.4501 91.2504 91.0915 91.1844 92.8824 92.0319C93.1234 92.146 93.1017 92.2229 93.1444 92.4108C92.6767 92.9865 91.492 92.8569 90.8447 93.2038C88.0381 94.7073 88.649 97.0243 87.7627 99.2321C87.561 99.1978 87.2551 99.1716 87.1632 98.931C86.602 97.4612 86.7083 96.0978 85.882 94.6234C85.0518 93.142 82.9253 93.252 81.9886 92.3558C81.968 92.2802 81.9474 92.2047 81.9268 92.1291C82.5958 91.5003 84.7266 91.1936 85.3501 90.5783C86.8165 89.1309 86.4423 86.8117 87.2077 85.3597Z" fill="#356516"/>
<path d="M87.4705 88.9559C87.6364 89.1234 87.5434 89.0046 87.6496 89.2101C88.7078 91.2554 88.5518 91.4208 90.6306 92.3062C90.5654 92.3276 90.5005 92.3498 90.4359 92.3729C88.6567 93.0132 88.3051 93.8371 87.557 95.4625C87.3585 95.3244 87.2445 95.0483 87.1304 94.832C86.2384 93.1424 86.1258 93.0243 84.4092 92.3392C86.3446 91.3287 86.5732 90.8894 87.4705 88.9559Z" fill="#FDFDFC"/>
<path d="M32.6496 55.1002C32.8144 55.1218 33.1479 55.1369 33.2171 55.2963C33.6961 56.5128 33.6901 57.6563 34.2793 58.8626C34.8369 60.0042 37.5072 60.0969 37.6059 61.1203C37.239 61.3753 35.6476 61.7864 35.0327 62.1238C33.8102 62.7947 33.6541 64.988 33.2468 66.3442C33.0463 66.3197 32.6317 66.3038 32.5438 66.1084C32.0692 65.0544 32.1686 63.774 31.519 62.7423C30.9017 61.7618 28.9536 61.5465 28.3037 60.9372C28.5953 60.1612 30.4146 60.1007 31.2354 59.2919C32.3897 58.1543 32.0294 55.9045 32.6496 55.1002Z" fill="#356516"/>
<path d="M32.8734 58.4438C33.0668 58.6278 33.151 58.8602 33.2948 59.0906C33.9485 60.1377 34.0456 60.3019 35.1136 60.8306C33.883 61.5437 33.5489 62.0464 32.9633 63.3098C32.7382 63.0936 32.6984 62.8937 32.5464 62.6177C31.9525 61.5386 31.748 61.4282 30.7041 60.8749C32.1251 60.1961 32.1764 59.829 32.8734 58.4438Z" fill="#FDFDFC"/>
<path d="M59.5928 115.558L70.942 115.554C72.5064 115.553 74.1483 115.542 75.7178 115.526C75.973 115.524 76.7456 115.749 76.9404 115.935C77.1278 116.113 77.053 115.979 77.0836 116.275C76.4885 116.862 73.7002 116.644 72.7836 116.65L64.2065 116.684C58.9952 116.648 53.7837 116.659 48.5726 116.645C47.8263 116.643 46.7227 116.832 46.3848 116.03L46.5107 115.845C47.6235 115.342 57.6541 115.563 59.5928 115.558Z" fill="#356516"/>
<path d="M152.649 90.2565C153.037 90.2872 153.197 90.2874 153.363 90.6745C153.734 91.5795 153.793 92.513 154.174 93.4269C154.697 94.6845 157.036 94.5182 157.242 95.6984C156.871 96.3198 155.822 96.2709 155.199 96.5637C153.774 97.2327 153.812 99.3102 153.229 100.637C151.955 100.485 152.358 98.8266 151.879 97.8899C151.664 97.4683 151.444 97.0844 151.2 96.6787C150.605 96.5035 148.599 96.0528 148.586 95.3746C148.895 95.0734 149.618 94.8623 150.039 94.7205C152.608 93.854 151.868 91.9512 152.649 90.2565Z" fill="#356516"/>
<path d="M152.949 93.4503C153.047 93.5679 153.235 93.9656 153.394 94.1729C153.782 94.6749 154.219 95.0621 154.682 95.4929C153.934 96.2476 153.474 96.6615 153.009 97.6142C152.915 97.5217 152.943 97.5622 152.88 97.4557C152.412 96.6674 151.823 96.0653 151.164 95.4373C152.184 94.7886 152.395 94.4586 152.949 93.4503Z" fill="#FDFDFC"/>
<path d="M155.645 66.1753C156.248 66.5006 156.818 68.7771 157.169 69.6748C157.735 70.0734 159.552 70.7057 159.686 71.0693C159.445 71.7097 157.531 72.0654 157.202 72.5398C156.548 73.4818 156.531 74.93 155.846 75.9824C154.897 75.4149 155.174 73.873 154.528 72.7932C153.75 71.4935 152.292 72.0569 151.8 71.215C151.883 70.4517 153.676 70.3956 154.352 69.6305C155.279 68.5818 154.767 67.0212 155.645 66.1753Z" fill="#356516"/>
<path d="M155.621 69.5447C155.973 69.6619 156.901 70.7759 157.21 71.1163C156.466 71.7002 156.221 71.8794 155.789 72.7255C155.45 72.3084 154.559 71.4464 154.474 71.1012C154.547 70.8072 155.34 69.9257 155.621 69.5447Z" fill="#FDFDFC"/>
<path d="M74.5763 107.397C77.3116 107.359 80.0471 107.344 82.7827 107.35C83.5328 107.352 85.3842 107.094 85.8599 107.615C85.935 107.992 85.947 107.813 85.8294 108.173C85.3614 108.402 72.4084 108.352 70.925 108.354C67.3955 108.357 63.8379 108.387 60.3072 108.367C59.8739 108.365 59.7729 108.35 59.537 108.097C59.5159 107.763 59.4699 107.911 59.6995 107.645C60.4768 107.314 63.5806 107.459 64.586 107.453L74.5763 107.397Z" fill="#356516"/>
<path d="M68.1225 139.318C70.885 139.372 88.5239 139.087 89.68 139.531C89.901 139.816 89.8496 139.657 89.8277 140.027C89.5838 140.383 89.6907 140.334 89.3471 140.492C82.2434 140.372 74.9434 140.56 67.8356 140.351C67.6155 140.345 67.4953 140.131 67.416 139.963C67.542 139.404 67.6214 139.42 68.1225 139.318Z" fill="#356516"/>
<path d="M205.802 68.0345C207.55 68.165 211.769 72.2298 209.683 74.6026C206.582 77.511 205.325 69.7893 205.802 68.0345Z" fill="#356516"/>
<path d="M206.759 69.7485C207.553 69.9947 209.03 71.6556 209.258 72.5053C209.406 73.0555 209.332 73.3726 209.099 73.8636C207.092 74.8465 206.86 70.9085 206.759 69.7485Z" fill="#FDFDFC"/>
<path d="M140.789 129.829C140.996 129.873 141.066 129.899 141.267 129.967C142.478 131.228 143.997 136.349 141.466 137.236C138.269 137.148 139.328 133.888 140.003 131.949C140.243 131.26 140.446 130.469 140.789 129.829Z" fill="#356516"/>
<path d="M141.046 131.891C141.482 132.182 142.133 134.861 141.894 135.441C141.706 135.895 141.721 135.92 141.315 136.182C140.901 136.165 140.822 136.195 140.518 135.951C139.724 134.679 140.873 133.176 141.046 131.891Z" fill="#FDFDFC"/>
<path d="M83.2231 142.799C85.6076 142.756 87.9927 142.743 90.3775 142.762C91.2959 142.761 93.1887 142.529 93.9047 142.995C94.0899 143.342 94.0449 143.156 93.9978 143.581C93.5446 143.977 88.4694 143.836 87.5542 143.836C86.3036 143.846 77.5134 144.032 77.0859 143.759C76.8653 143.618 76.8394 143.532 76.7969 143.282L76.9483 143.09C77.7087 142.72 82.0176 142.81 83.2231 142.799Z" fill="#356516"/>
<path d="M208.734 58.2714C210.719 58.2723 216.695 59.58 214 62.618C211.599 63.958 209.943 60.7466 208.797 59.108C208.572 58.7859 208.639 58.6016 208.734 58.2714Z" fill="#356516"/>
<path d="M210.286 59.4702C211.371 59.6332 214.235 60.1539 213.353 61.7669C212.231 62.6602 210.818 60.2649 210.286 59.4702Z" fill="#FDFDFC"/>
<path d="M106.815 112.354C107.416 112.48 107.16 113.166 106.971 113.539C106.244 114.977 104.373 118.221 102.357 117.258C101.929 116.984 101.553 116.765 101.445 116.224C101.007 114.035 105.244 112.732 106.815 112.354Z" fill="#356516"/>
<path d="M105.39 113.892L105.473 113.893L105.528 114.012C104.795 115.206 104.301 116.155 102.815 116.44C101.494 115.002 104.451 114.198 105.39 113.892Z" fill="#FDFDFC"/>
<path d="M68.7989 119.534C70.6229 119.501 80.0263 119.187 80.9873 119.74C81.1587 119.839 81.1234 119.835 81.1738 120.003C80.6221 120.782 78.1039 120.517 77.1478 120.51L68.394 120.577C67.5449 120.579 65.3727 120.806 64.7846 120.359C64.655 120.02 64.6654 120.19 64.7698 119.829C65.2015 119.519 68.0561 119.547 68.7989 119.534Z" fill="#356516"/>
<path d="M145.48 128.006C145.692 128.024 145.968 128.079 146.148 128.193C147.817 129.245 149.31 130.259 149.905 132.173C149.735 132.757 149.653 132.931 149.39 133.467C146.391 134.849 144.992 128.945 145.48 128.006Z" fill="#356516"/>
<path d="M146.629 129.785C147.795 130.441 149.059 131.209 148.654 132.694C147.392 132.806 146.638 130.744 146.629 129.785Z" fill="#FDFDFC"/>
<path d="M123.736 76.7117C124.1 76.7683 123.974 76.6801 124.17 76.9149C124.015 77.8014 121.995 79.2811 121.258 79.7585C118.658 81.4426 115.812 81.9883 112.775 81.3251C112.294 81.1447 112.191 81.1238 111.857 80.7417C111.881 80.6432 111.867 80.5026 112.08 80.4859C113.596 80.3673 114.656 80.8065 116.281 80.5985C119.574 80.177 121.252 78.592 123.736 76.7117Z" fill="#356516"/>
<path d="M138.061 75.1827C138.175 75.2221 138.26 75.2901 138.366 75.3576L138.418 75.6105C138.186 76.2397 137.265 76.9833 136.724 77.3662C134.127 79.1866 130.911 79.8972 127.789 79.3408C127.391 79.203 127.408 79.2019 127.277 78.8564C127.6 78.0906 130.073 78.5991 131.279 78.4307C134.36 78.0006 135.65 77.0271 138.061 75.1827Z" fill="#356516"/>
<path d="M183.103 88.3314C183.47 88.4507 183.553 88.7052 183.605 89.0429C183.382 89.6676 178.121 93.3575 177.215 93.8564C176.127 93.2917 177.152 92.6657 177.809 92.171C179.547 90.8639 181.316 89.5679 183.103 88.3314Z" fill="#356516"/>
<path d="M174.805 84.637C175.203 84.7617 175.326 84.7938 175.524 85.0968C175.508 85.7646 173.175 90.7929 172.707 91.3135C172.321 91.2525 172.145 91.2502 171.977 90.885C172.082 89.9307 174.256 85.7407 174.805 84.637Z" fill="#356516"/>
<path d="M184.337 97.1869C185.046 97.1252 185.307 97.007 185.829 97.568L185.813 97.8619L185.866 97.6425L185.767 97.904C184.992 98.3498 181.42 98.4871 180.266 98.5734C179.705 98.6224 178.944 98.8321 178.576 98.3734C178.605 97.9731 178.544 98.1515 178.766 97.818C179.408 97.4747 183.381 97.2613 184.337 97.1869Z" fill="#356516"/>
<path d="M128.202 88.03L128.415 88.0871C128.684 88.565 128.494 88.8347 128.194 89.2548C127.124 90.747 125.12 91.6187 123.333 91.662C123.011 91.3945 123.079 91.5527 123.032 91.2161C123.276 90.9145 125.038 90.4282 125.655 90.0455C126.759 89.361 127.265 88.8915 128.202 88.03Z" fill="#356516"/>
<path d="M180.257 144.607C180.767 144.586 181.356 144.534 181.522 145.119C181.382 145.439 181.347 145.442 181.039 145.638C180.521 145.644 179.763 145.682 179.703 145.005C179.893 144.736 179.958 144.732 180.257 144.607Z" fill="#356516"/>
<path d="M177.299 142.007C177.906 141.983 178.405 141.877 178.856 142.259C178.921 142.576 178.896 142.581 178.788 142.877C178.29 142.925 177.698 143.059 177.31 142.774C177.168 142.374 177.217 142.482 177.299 142.007Z" fill="#356516"/>
<path d="M177.297 144.601C177.767 144.611 178.36 144.561 178.744 144.779C178.928 145.142 178.871 145.029 178.834 145.496C178.378 145.536 177.731 145.681 177.38 145.474C177.188 145.073 177.263 145.114 177.297 144.601Z" fill="#356516"/>
<path d="M179.928 142.046C180.522 141.998 180.966 141.884 181.428 142.25C181.494 142.644 181.491 142.497 181.335 142.901C180.86 142.952 180.292 143.078 179.923 142.795C179.789 142.429 179.846 142.493 179.928 142.046Z" fill="#356516"/>
<path d="M180.252 139.394C180.771 139.416 181.189 139.366 181.51 139.809C181.421 140.196 181.447 140.076 181.083 140.394C180.578 140.368 179.997 140.364 179.773 139.86C179.948 139.516 179.884 139.627 180.252 139.394Z" fill="#356516"/>
<path d="M177.36 136.87C177.889 136.859 178.558 136.748 178.919 137.163C178.902 137.432 178.867 137.424 178.688 137.639C178.154 137.707 177.521 137.87 177.16 137.418C177.182 137.106 177.182 137.129 177.36 136.87Z" fill="#356516"/>
<path d="M177.757 139.406C178.295 139.472 178.728 139.463 178.96 140.015C178.73 140.269 178.868 140.165 178.495 140.28C178.002 140.396 177.253 140.529 177.229 139.8C177.388 139.54 177.479 139.529 177.757 139.406Z" fill="#356516"/>
<path d="M180.402 136.869C180.829 136.895 181.205 136.835 181.432 137.222C181.278 137.594 181.235 137.536 180.867 137.824C180.352 137.803 179.833 137.747 179.741 137.155C180.02 136.874 179.94 136.961 180.402 136.869Z" fill="#356516"/>
<defs>
<filter id="filter0_f_2626_99349" x="22.7996" y="42.2364" width="161.181" height="161.181" filterUnits="userSpaceOnUse" color-interpolation-filters="sRGB">
<feFlood flood-opacity="0" result="BackgroundImageFix"/>
<feBlend mode="normal" in="SourceGraphic" in2="BackgroundImageFix" result="shape"/>
<feGaussianBlur stdDeviation="27.4" result="effect1_foregroundBlur_2626_99349"/>
</filter>
<filter id="filter1_f_2626_99349" x="121.102" y="4.95911e-05" width="189.587" height="189.587" filterUnits="userSpaceOnUse" color-interpolation-filters="sRGB">
<feFlood flood-opacity="0" result="BackgroundImageFix"/>
<feBlend mode="normal" in="SourceGraphic" in2="BackgroundImageFix" result="shape"/>
<feGaussianBlur stdDeviation="27.4" result="effect1_foregroundBlur_2626_99349"/>
</filter>
<filter id="filter2_f_2626_99349" x="99.4227" y="111.758" width="164.918" height="164.918" filterUnits="userSpaceOnUse" color-interpolation-filters="sRGB">
<feFlood flood-opacity="0" result="BackgroundImageFix"/>
<feBlend mode="normal" in="SourceGraphic" in2="BackgroundImageFix" result="shape"/>
<feGaussianBlur stdDeviation="27.4" result="effect1_foregroundBlur_2626_99349"/>
</filter>
<filter id="filter3_f_2626_99349" x="23.5467" y="121.103" width="197.063" height="197.063" filterUnits="userSpaceOnUse" color-interpolation-filters="sRGB">
<feFlood flood-opacity="0" result="BackgroundImageFix"/>
<feBlend mode="normal" in="SourceGraphic" in2="BackgroundImageFix" result="shape"/>
<feGaussianBlur stdDeviation="27.4" result="effect1_foregroundBlur_2626_99349"/>
</filter>
<filter id="filter4_f_2626_99349" x="-0.00019455" y="70.6433" width="155.948" height="156.322" filterUnits="userSpaceOnUse" color-interpolation-filters="sRGB">
<feFlood flood-opacity="0" result="BackgroundImageFix"/>
<feBlend mode="normal" in="SourceGraphic" in2="BackgroundImageFix" result="shape"/>
<feGaussianBlur stdDeviation="27.4" result="effect1_foregroundBlur_2626_99349"/>
</filter>
<filter id="filter5_f_2626_99349" x="60.1766" y="129.326" width="195.942" height="196.315" filterUnits="userSpaceOnUse" color-interpolation-filters="sRGB">
<feFlood flood-opacity="0" result="BackgroundImageFix"/>
<feBlend mode="normal" in="SourceGraphic" in2="BackgroundImageFix" result="shape"/>
<feGaussianBlur stdDeviation="27.4" result="effect1_foregroundBlur_2626_99349"/>
</filter>
<filter id="filter6_f_2626_99349" x="85.5936" y="44.1053" width="181.739" height="182.112" filterUnits="userSpaceOnUse" color-interpolation-filters="sRGB">
<feFlood flood-opacity="0" result="BackgroundImageFix"/>
<feBlend mode="normal" in="SourceGraphic" in2="BackgroundImageFix" result="shape"/>
<feGaussianBlur stdDeviation="27.4" result="effect1_foregroundBlur_2626_99349"/>
</filter>
</defs>
</svg>
