<svg width="188" height="188" viewBox="0 0 188 188" fill="none" xmlns="http://www.w3.org/2000/svg">
<path d="M131.851 90.3492L132.297 90.4919C133.063 91.2788 132.877 92.2983 132.432 93.1869C130.935 92.7582 131.458 91.3662 131.851 90.3492Z" fill="#356516"/>
<path d="M57.7939 90.1884C58.9924 90.5631 58.4214 93.0312 58.1962 93.953C56.7762 93.3372 57.3263 91.2887 57.7939 90.1884Z" fill="#356516"/>
<path d="M123.35 134.025C123.582 133.951 123.755 133.783 123.909 133.599C124.285 133.472 124.196 133.444 124.542 133.507C124.385 135.547 124.037 137.208 123.484 139.174C123.181 140.254 122.552 142.216 123.722 142.907C122.898 143.421 123.003 143.522 123.123 144.482C122.654 143.878 122.387 143.222 121.843 142.948L121.484 143.243C120.198 146.084 119.246 144.503 117.135 144.487C114.593 143.798 107.044 140.543 104.764 142.115C104.343 142.256 102.939 142.815 102.604 143.045C102.585 142.859 102.518 142.627 102.472 142.44L101.85 142.137C103.785 140.517 103.119 140.803 103.836 138.43C103.979 137.956 104.43 137.727 104.867 137.559C110.303 135.764 117.387 136 122.739 137.949C122.933 136.554 122.865 135.355 123.35 134.025ZM118.612 141.34C118.68 142.063 118.688 142.982 119.059 143.578L119.409 143.677C120.034 143.289 120.462 142.565 120.891 141.951C121.302 141.493 121.803 141.012 121.889 140.43L121.649 140.174L120.966 140.214C119.819 141.097 119.126 140.043 118.612 141.34ZM105.158 138.775L104.757 139.283L104.899 139.513C106.927 139.557 120.569 139.551 121.398 138.893C119.028 137.148 108.03 137.857 105.158 138.775ZM114.333 142.167C115.316 142.421 116.524 142.698 117.463 143.035C117.542 142.387 117.741 141.501 117.471 140.959C117.018 140.735 116.94 140.791 116.412 140.894C115.427 140.937 112.943 140.972 112.117 141.34L112.19 141.564C113.054 141.943 113.395 141.993 114.333 142.167Z" fill="#356516"/>
<path d="M117.135 144.487C117.485 143.941 117.417 144.093 118.129 143.813C118.481 143.285 118.272 142.222 118.612 141.34C118.68 142.063 118.689 142.982 119.06 143.578L119.409 143.677C120.034 143.288 120.462 142.565 120.891 141.951C121.499 142.454 121.318 142.294 121.484 143.243C120.198 146.084 119.246 144.503 117.135 144.487Z" fill="#356516"/>
<path d="M71.3262 164.824C71.5063 165.598 71.429 165.875 71.906 166.345C74.3706 166.582 78.6489 166.165 81.3284 166.14C87.9965 166.079 94.665 166.171 101.329 166.418C102.318 166.456 112.735 166.918 112.778 166.903L112.879 166.894C112.722 167.09 112.57 167.28 112.405 167.47L112.668 167.386L112.464 167.946C112.377 168.179 112.372 168.188 112.404 168.431C110.144 168.109 107.849 168.261 105.596 168.104C91.331 167.109 77.383 167.917 63.128 168.193C62.6211 168.368 61.5102 168.513 60.9916 168.477C60.3255 168.412 58.2244 168.131 57.7412 167.779L57.8213 167.443C59.2682 167.135 60.6969 167.118 62.1767 166.96C64.3851 166.813 68.4366 166.45 70.4843 166.594L70.7788 166.557C71.1656 166.197 71.2236 165.394 71.3262 164.824Z" fill="#356516"/>
<path d="M57.8213 167.443C59.2682 167.135 60.6969 167.118 62.1767 166.96C62.8657 167.047 63.5029 167.121 64.1953 167.175L63.6509 167.371C64.0159 167.819 63.8242 167.685 64.3853 167.87C64.1332 167.864 63.6068 168.092 63.128 168.193C62.6211 168.369 61.5102 168.513 60.9916 168.477C60.3255 168.412 58.2244 168.131 57.7412 167.779L57.8213 167.443Z" fill="#356516"/>
<path d="M64.413 131.807C64.5612 131.016 64.664 131.004 65.2946 130.475C65.3387 131.127 65.3117 131.924 65.6893 132.428C66.6036 132.629 69.6704 132.257 70.8379 132.216C72.7298 132.148 79.6252 132.247 80.7936 133.98C81.1492 135.449 80.95 137.448 80.7159 138.932L79.6325 138.388C79.6841 137.135 79.7135 136.766 80.019 135.543C77.3964 136.285 72.0975 136.679 69.4088 136.4C67.7913 136.28 66.1772 136.122 64.5672 135.926C63.7234 135.794 63.8051 135.66 63.2376 136.013C63.0204 136.654 63.2973 137.381 63.8312 137.799C63.2824 138.193 62.4777 138.157 61.9246 137.778C61.8653 137.142 61.974 137.328 61.5879 136.992L61.1305 137.03L60.8193 136.23C61.5967 135.783 61.8407 134.677 62.1586 133.806C63.3318 133.215 64.44 133.125 64.413 131.807ZM69.6034 135.548C70.9489 135.513 78.1069 134.96 78.8659 134.362C76.9756 133.47 64.6607 133.034 63.8648 134.715C65.6961 134.783 67.779 135.221 69.6034 135.548Z" fill="#356516"/>
<path d="M78.8663 134.362L79.1285 134.574C79.7448 134.34 79.5368 134.322 80.0413 134.47C80.1785 134.683 80.3371 134.876 80.3712 135.12C80.3597 135.308 80.3286 136.146 80.374 136.279C80.6534 135.592 80.3481 135.01 80.794 133.98C81.1497 135.449 80.9505 137.448 80.7164 138.932L79.633 138.388C79.6846 137.135 79.714 136.766 80.0195 135.543C77.3968 136.285 72.0979 136.679 69.4092 136.4C67.7918 136.28 66.1776 136.122 64.5677 135.926C64.208 135.52 64.0938 135.201 63.8652 134.715C65.6966 134.783 67.7795 135.221 69.6038 135.548C70.9494 135.513 78.1073 134.959 78.8663 134.362Z" fill="#356516"/>
<path d="M63.8652 134.715C65.6966 134.783 67.7795 135.221 69.6038 135.548C70.4711 135.675 71.2418 135.753 72.1102 135.833C70.2719 135.991 70.7829 136.02 69.4092 136.4C67.7918 136.28 66.1776 136.122 64.5677 135.926C64.208 135.52 64.0938 135.201 63.8652 134.715Z" fill="#356516"/>
<path d="M102.605 143.045C102.939 142.815 104.343 142.256 104.765 142.115C105.185 142.715 105.72 143.794 106.214 144.072C106.979 144.188 107.325 144.254 108.06 144.485C107.868 144.886 107.731 145.313 107.374 145.533L106.759 145.77L106.583 146.178C105.959 146.144 105.352 146.019 104.854 146.328L104.687 146.783L104.624 147.078C104.526 147.83 104.641 148.143 104.825 148.885L104.828 149.204L105.176 149.07C105.247 149.286 105.306 149.422 105.338 149.649L105.157 150.318C105.488 151.179 105.672 151.644 106.119 152.443C107.554 152.737 109.81 152.848 110.556 153.892L110.447 154.148C109.07 154.489 106.836 153.749 105.949 154.231C105.822 155.057 106.776 155.851 107.419 156.276L106.761 156.709L106.316 156.473C106.095 157.009 106.417 157.427 106.71 157.922C106.183 159.074 107.106 159.154 107.863 160.034C106.368 159.64 102.687 155.959 102.123 154.759C101.698 153.027 101.176 151.694 100.963 149.877C100.775 148.274 100.916 143.315 101.85 142.137L102.472 142.44C102.518 142.627 102.586 142.859 102.605 143.045ZM103.85 146.312C103.433 145.884 103.646 146.009 102.984 145.893C102.388 146.06 102.33 146.103 101.944 146.589C101.79 147.26 101.769 146.984 102.031 147.628C102.513 148.154 103.072 148.157 103.774 148.319L103.857 148.338C103.78 147.487 103.737 147.15 103.85 146.312ZM103.713 154.925C104.288 155.039 104.121 155.088 104.607 154.909L104.764 154.349C104.601 153.024 103.949 152.805 102.83 152.852C102.95 153.845 102.98 154.174 103.713 154.925Z" fill="#356516"/>
<path d="M102.83 152.852C102.775 152.6 102.876 152.476 102.995 152.242C103.45 152.181 103.514 152.201 103.853 151.923C104.253 151.354 104.172 151.048 104.12 150.35L104.374 150.07C104.715 150.124 104.846 150.191 105.157 150.318C105.488 151.179 105.672 151.644 106.119 152.443C107.554 152.737 109.809 152.848 110.556 153.892L110.447 154.148C109.07 154.489 106.836 153.749 105.949 154.231C105.821 155.057 106.775 155.851 107.419 156.276L106.761 156.709L106.316 156.473C106.094 157.009 106.417 157.427 106.71 157.922C106.183 159.074 107.106 159.154 107.862 160.034C106.368 159.641 102.687 155.959 102.123 154.759C102.542 154.944 102.82 155.067 103.267 155.202L103.713 154.925C104.288 155.039 104.121 155.088 104.607 154.909L104.764 154.349C104.601 153.024 103.949 152.805 102.83 152.852Z" fill="#356516"/>
<path d="M102.604 143.045C102.939 142.815 104.343 142.256 104.764 142.115C105.185 142.715 105.72 143.794 106.214 144.072C105.791 144.316 105.693 144.394 105.213 144.453C104.692 144.133 104.364 143.66 103.978 143.184C103.511 143.567 103.232 143.773 102.724 144.099L102.547 143.94L102.604 143.045Z" fill="#356516"/>
<path d="M106.214 144.072C106.979 144.188 107.325 144.254 108.06 144.485C107.868 144.886 107.731 145.313 107.374 145.533C106.255 145.191 105.984 145.3 105.213 144.453C105.694 144.394 105.791 144.316 106.214 144.072Z" fill="#356516"/>
<path d="M103.85 146.312C104.072 146.426 104.519 146.629 104.687 146.783L104.624 147.078C104.526 147.83 104.642 148.142 104.825 148.885C104.346 148.694 104.256 148.66 103.857 148.337C103.78 147.486 103.737 147.15 103.85 146.312Z" fill="#356516"/>
<path d="M165.741 118.099C166.969 116.817 167.424 115.904 168.225 114.364C168.7 114.434 169.065 114.493 169.549 114.512C169.04 116.419 168.397 117.313 167.2 118.851C173.083 122.336 177.642 126.587 179.053 133.363C180.131 138.541 179.957 148.281 179.078 153.366C179.024 153.107 178.942 152.848 178.868 152.593L178.518 152.431C178.008 152.765 178.145 152.73 177.892 153.418C178.014 146.501 179.56 138.605 177.168 131.793C174.393 123.892 167.025 120.157 159.86 116.863L159.68 116.692C159.636 116.053 159.583 116.314 160.02 115.679C162.026 116.019 163.887 117.164 165.741 118.099Z" fill="#356516"/>
<path d="M121.271 162.461C123.277 162.565 126.222 164.009 127.533 165.334C128.069 164.744 127.99 164.227 128.363 163.913C128.761 164.289 129.063 164.27 129.598 164.33C129.311 165.048 128.878 166.238 128.486 166.858L127.933 168.195C128.32 168.799 138.02 173.894 139.353 174.539C139.319 174.697 139.391 175.93 139.424 176.162C136.289 174.992 132.368 172.082 129.281 170.652C126.355 169.296 121.668 169.472 118.397 169.097C116.417 168.87 114.4 168.673 112.404 168.431C112.373 168.188 112.378 168.179 112.464 167.946L112.669 167.386L112.406 167.47C112.57 167.28 112.722 167.09 112.879 166.894C113.107 166.545 113.543 166.136 113.837 165.816C114.037 166.284 114.205 166.97 114.675 167.047C116.433 167.336 125.236 168.428 126.536 168.295C127.056 167.955 126.886 168.15 127.117 167.44C127.093 167.117 127.009 166.978 126.883 166.686C124.852 165.002 122.818 163.501 120.093 163.391C120.762 163.153 120.836 163.012 121.271 162.461Z" fill="#356516"/>
<path d="M127.195 167.452C127.45 166.988 127.535 166.708 128.037 166.582L128.485 166.858L127.932 168.195C127.878 168.267 127.69 168.416 127.611 168.483C127.226 168.163 127.312 168.04 127.195 167.452Z" fill="#356516"/>
<path d="M24.7907 92.8698C24.4589 90.8596 24.7314 86.238 25.2851 84.2574C29.0348 70.8477 39.9628 65.8554 52.8339 68.7155L53.4191 69.4271C53.079 69.6924 52.873 69.8025 52.4953 70.0155C49.0188 68.7683 44.7644 68.8005 41.2056 69.6845C32.0461 71.9597 26.6973 79.8796 25.8606 88.9893C25.7877 89.7825 25.6717 90.3832 25.7576 91.1978C25.7112 92.0649 25.85 92.2356 25.422 92.8252C25.1962 92.8509 25.0168 92.885 24.7907 92.8698Z" fill="#356516"/>
<path d="M85.3601 41.7307L85.6653 41.8452C85.8019 41.1775 85.8588 40.57 85.9309 39.8927L86.0862 39.9311C86.7832 41.8425 85.8068 41.9144 86.259 43.1599L86.5087 43.3887C93.4544 43.8741 109.581 43.2672 117.308 43.3815C117.506 43.3845 117.584 43.0123 117.69 42.7489C118.081 43.3255 118.228 43.4199 118.892 43.6029C118.894 44.4119 119.019 44.2116 118.559 44.6805C116.557 45.4363 109.409 44.5646 108.142 45.1547L108.033 45.1106C107.38 44.8754 104.361 44.9586 103.512 44.9586L93.0461 44.9581C90.8189 44.9773 88.6042 45.0396 86.3802 44.9202C84.5595 44.8226 85.1642 43.0246 85.3601 41.7307Z" fill="#356516"/>
<path d="M128.127 78.0352C128.601 76.5079 129.226 75.0171 130.239 73.8496C133.35 70.2631 136.077 70.5969 140.311 70.7354C141.111 70.7616 143.856 70.3709 144.81 70.2791C150.006 69.7794 154.906 70.7921 159.018 74.1087L158.796 74.3619C159.009 74.6652 159.545 74.9846 159.862 75.2259L159.888 75.1451L159.666 75.3448C159.144 75.3116 157.828 74.3 157.25 73.935L156.847 74.0887C156.499 74.0178 154.464 72.8748 153.835 72.6594C150.027 71.3568 146.953 71.3438 143.07 71.8883C140.682 72.3205 139.787 72.2399 137.368 71.874C132.937 72.4378 131.485 73.8873 129.516 77.8575L129.388 77.6737C128.83 77.507 128.793 77.6893 128.127 78.0352Z" fill="#356516"/>
<path d="M137.368 71.874C138.001 71.6087 142.219 71.8527 143.07 71.8883C140.682 72.3205 139.788 72.2399 137.368 71.874Z" fill="#356516"/>
<path d="M127.197 104.397C127.493 104.384 128.04 104.315 128.27 104.423C128.279 105.106 129.221 110.362 129.549 110.633C131.897 112.573 138.514 109.928 140.48 110.389L140.575 110.663C140.166 111.437 139.542 111.532 138.931 112.023C138.128 112.099 138.349 111.968 137.778 112.439C136.784 112.321 136.478 112.221 135.707 112.801C135.191 113.82 135.368 115.247 135.384 116.448L135.409 116.587C135.554 117.414 135.356 117.948 135.75 118.35C136.082 118.259 136.218 118.225 136.528 118.079C137.175 118.429 137.627 118.651 138.303 118.936C135.955 119.621 131.666 121.785 129.78 123.258C129.387 123.312 129.35 123.337 129 123.186C129.052 122.713 129.227 122.396 129.417 121.96C130.487 120.948 133.088 119.594 134.413 118.966C134.294 117.916 134.233 117.048 134.182 115.995C134.206 114.64 134.25 114.043 134.48 112.712C126.863 112.971 127.964 110.732 127.197 104.397Z" fill="#356516"/>
<path d="M134.182 115.995L134.453 116.736C134.929 116.25 134.536 113.386 134.921 112.791L135.055 112.84C135.039 113.854 134.956 115.862 135.118 116.772L135.267 116.772L135.384 116.448L135.409 116.587C135.554 117.414 135.356 117.948 135.749 118.35C136.082 118.259 136.217 118.225 136.528 118.079C137.175 118.429 137.627 118.651 138.303 118.936C135.955 119.621 131.665 121.785 129.779 123.257C129.387 123.312 129.35 123.337 129 123.186C129.052 122.713 129.227 122.395 129.416 121.96C130.486 120.948 133.087 119.594 134.413 118.966C134.293 117.915 134.233 117.048 134.182 115.995Z" fill="#356516"/>
<path d="M35.6014 171.642C37.0808 170.506 41.3702 167.944 43.0806 166.871L43.6554 167.32L43.6508 167.406C43.6349 167.766 43.6369 167.786 43.7314 168.128C43.3163 168.505 43.1375 168.523 43.0955 168.971C43.6013 169.156 43.8064 169.113 44.3281 169.075L44.0279 169.393C44.3033 169.782 44.5248 169.808 44.976 169.974C42.044 170.425 39.3322 170.798 36.7734 172.367C36.3963 172.598 35.9131 172.873 35.5123 173.045C31.7558 175.49 21.1722 180.604 16.9493 179.065C16.8232 178.87 16.515 178.517 16.3574 178.325L16.412 178.07L17.1691 177.825C23.0968 178.555 30.4688 174.384 35.6014 171.642Z" fill="#356516"/>
<path d="M35.6019 171.642C37.0813 170.506 41.3707 167.944 43.0811 166.871L43.6559 167.32L43.6513 167.406C43.6354 167.766 43.6374 167.786 43.7319 168.128C43.3168 168.505 43.138 168.523 43.096 168.971C43.6018 169.156 43.8068 169.113 44.3286 169.075L44.0284 169.393C44.3038 169.782 44.5252 169.808 44.9765 169.974C42.0445 170.425 39.3327 170.798 36.7739 172.367C36.3968 172.598 35.9136 172.873 35.5128 173.045L34.9861 172.835C33.8586 173.566 32.4584 174.061 31.1758 174.428C32.2063 173.916 35.265 172.573 35.6019 171.642Z" fill="#356516"/>
<path d="M26.773 147.774L26.8661 148.949L27.041 149.078L27.863 148.852C27.491 151.948 27.462 154.245 26.8519 157.371C30.3375 156.151 33.8059 154.882 37.2564 153.566C38.6809 153.009 40.6303 152.101 41.999 151.628C43.7156 151.035 44.2296 151.592 46.2683 150.614C47.0107 150.549 47.4108 150.429 48.086 150.772C47.139 151.599 45.6853 152.674 44.4433 152.917L44.2381 152.565L43.8852 152.562C43.5386 152.93 43.4494 152.994 43.3719 153.486C43.178 152.903 43.3208 153.063 42.88 152.802C42.0764 152.925 39.5564 153.985 38.6811 154.325C34.9993 155.759 31.3011 157.151 27.587 158.5C26.8598 158.76 24.4059 159.679 23.8247 159.775L23.6602 158.858C24.1559 158.438 25.0547 158.057 25.6643 157.766C25.9925 154.484 26.4229 151.123 26.773 147.774Z" fill="#356516"/>
<path d="M136.768 83.3426C138.928 87.5889 141.964 92.2392 146.433 94.3483C149.554 93.148 150.786 93.4816 152.53 96.3471C152.597 98.2027 152.769 99.3661 151.794 101.022L150.706 100.765C151.574 98.776 152.151 94.0676 148.383 95.2343C147.45 95.5233 146.578 96.2852 145.509 95.5907C141.372 92.9047 137.582 88.8084 135.904 84.1113L136.232 83.6466C136.456 83.5725 136.587 83.4928 136.768 83.3426Z" fill="#356516"/>
<path d="M67.1677 142.094C67.5213 143.621 67.4785 147.641 67.0917 149.289C66.9061 150.08 65.8765 149.675 66.822 151.052C67.0685 153.194 63.8832 153.976 68.1881 154.343C68.1247 154.664 68.1319 154.855 67.9544 155.103L67.1265 155.375C64.7038 155.176 63.9935 153.142 61.8317 155.232C61.3173 155.122 61.1278 154.942 60.6986 154.644C62.034 153.442 62.8826 153.01 64.6005 152.729C65.311 152.612 65.6987 151.602 65.7096 150.921C64.7879 149.775 61.992 152.142 60.9238 150.429C61.3661 149.026 66.6228 150.653 66.2447 146.698C65.3132 145.793 61.3217 148.493 60.5078 146.703C61.739 144.728 64.9537 147.16 66.3841 143.904C66.7639 143.361 66.3443 142.827 67.1677 142.094Z" fill="#356516"/>
<path d="M173.228 173.451C173.304 173.964 173.317 174.401 173.657 174.798C174.275 174.473 174.062 173.982 174.69 173.464C171.593 183.917 162.969 184.269 153.913 181.692C154.694 181.25 154.857 181.324 155.229 180.655C163.523 182.272 169.814 182.639 173.228 173.451Z" fill="#356516"/>
<path d="M127.897 147.746C127.961 148.164 128.116 149.319 128.268 149.64C128.849 149.196 128.483 149.118 128.88 148.469C128.97 149.894 128.662 153.814 129.683 154.34C132.528 155.803 140.097 157.203 142.868 158.625C143.126 159.156 142.959 158.978 143.551 159.266L143.29 159.888C141.705 159.682 134.798 157.292 132.906 156.663L132.113 158.273C131.88 157.988 131.46 157.277 131.244 156.932C130.992 156.262 128.532 155.541 127.843 154.427C126.876 152.863 126.208 151.359 125.663 149.602C126.053 149.995 126.317 150.311 126.805 150.578C127.114 150.341 127.018 150.408 127.155 149.956C127.357 150.191 127.234 150.109 127.546 150.194C127.795 149.706 127.72 148.891 127.711 148.316L127.897 147.746Z" fill="#356516"/>
<path d="M101.175 24.7062L101.455 24.5993C101.596 23.5227 101.212 22.029 102.174 21.5902L102.359 21.6882C102.614 22.7713 102.423 23.3052 102.549 24.4242C103.142 25.015 106.147 25.2043 107.149 25.5406C107.964 25.8143 108.335 25.9627 109.142 26.3569C108.965 27.0644 109.054 27.4066 108.283 27.656C102.812 25.3166 97.6878 25.467 92.8333 29.5316C92.4292 29.8699 91.6065 30.8151 91.2358 31.0546L90.9105 30.845C90.2699 31.0741 90.1851 31.0965 89.5049 31.0102C93.7193 26.64 95.2706 25.5924 101.175 24.7062Z" fill="#356516"/>
<path d="M28.447 111.588L28.521 112.557L28.8469 112.777C31.8343 113.12 34.674 109.774 35.867 107.358C35.7229 108.098 35.4732 108.579 35.7967 109.1L36.4418 109.29C35.5668 110.936 34.0878 112.29 32.5336 113.284C33.0949 113.904 33.9917 114.958 34.5629 115.511C34.3147 115.718 33.725 116.182 33.5263 116.389C32.6442 115.505 31.8105 114.665 30.9689 113.741C28.4915 114.584 24.4847 116.084 22.3258 117.46C22.5465 116.715 22.4654 116.905 22.1768 116.04C23.3279 115.325 24.8374 114.952 26.1971 113.997L26.3025 113.922C26.9706 113.456 27.0071 113.196 27.2441 112.38C28.1188 112.44 28.1089 112.247 28.447 111.588Z" fill="#356516"/>
<path d="M160.37 145.409L160.631 146.282L160.919 146.32L161.412 145.889L159.807 154.966C159.286 157.886 159.141 160.019 157.985 162.814C159.762 163.434 160.116 164.018 161.147 165.641C159.248 164.878 156.333 163.679 154.396 163.208C154.251 162.294 154.081 162.639 154.442 161.944L157.16 162.742C158.314 157.094 159.234 151.004 160.37 145.409Z" fill="#356516"/>
<path d="M59.0278 136.781C59.6368 136.874 60.2391 136.503 60.8195 136.23L61.1307 137.03L60.0526 137.843C60.6148 138.103 61.2897 137.894 61.9247 137.778C62.4779 138.157 63.2826 138.193 63.8313 137.799C67.0128 137.631 67.6319 139.25 67.1676 142.094C66.3442 142.827 66.7639 143.361 66.384 143.904C66.2399 143.607 66.0934 143.331 65.9381 143.039C65.4051 142.648 64.6709 142.82 63.9848 142.888C63.9108 142.497 63.9189 142.516 63.6991 142.185L62.778 142.013C63.1263 141.944 63.4733 141.869 63.8188 141.787C64.6759 141.58 66.4106 141.115 66.1174 139.984C64.0487 138.057 58.3151 139.831 56.0143 140.794C55.3897 140.242 56.0018 140.185 55.1455 139.536C57.0161 138.79 57.5717 138.745 58.3316 136.983C58.6718 136.745 58.5605 136.817 59.0278 136.781Z" fill="#356516"/>
<path d="M59.0283 136.781C59.6373 136.874 60.2397 136.503 60.82 136.23L61.1312 137.03L60.0531 137.843L59.9907 137.942L59.686 137.994C59.4425 137.587 59.2446 137.201 59.0283 136.781Z" fill="#356516"/>
<path d="M10.6067 118.877C10.538 117.483 11.1662 114.401 11.7114 113.071C14.0475 107.373 17.4085 104.994 22.582 102.516C22.6564 102.904 22.7915 103.499 22.8343 103.871C16.9728 106.334 13.2177 110.414 12.0499 116.757C11.9188 117.469 11.8695 118.814 11.6642 119.471C11.5988 119.256 11.485 119.106 11.3637 118.916L10.6067 118.877Z" fill="#356516"/>
<path d="M39.2855 92.4211L39.9061 92.5058C40.0096 92.8366 40.0458 92.9627 40.0974 93.3046C39.9604 95.0959 39.9744 95.621 40.5527 97.3738C41.024 97.8366 41.3678 98.1423 41.8841 98.5568C42.5647 99.1036 44.1395 99.4585 44.1937 100.304C43.6139 100.789 42.8779 100.644 42.1274 100.587C40.6997 103.475 39.4239 104.326 37.4472 106.71C37.2401 106.96 36.6124 108.835 36.442 109.29L35.7969 109.1C35.4734 108.579 35.7231 108.098 35.8672 107.358C36.028 106.975 36.634 105.515 36.843 105.279C38.8295 103.033 40.0796 103.111 40.7155 99.9202C40.3795 99.3535 40.0599 98.7772 39.7568 98.1922C38.7193 96.1407 38.5823 94.5938 39.2855 92.4211Z" fill="#356516"/>
<path d="M106.761 156.709L107.419 156.276C110.127 157.422 112.741 157.558 114.951 160.11C114.586 160.652 114.532 160.727 114.581 161.385C113.74 160.914 113.047 160.374 112.136 160.559C111.941 161.548 113.949 164.32 113.836 165.816C113.543 166.136 113.106 166.546 112.879 166.894L112.778 166.903C112.455 164.417 111.557 162.799 110.486 160.602C109.531 160.481 108.786 160.274 107.862 160.034C107.105 159.154 106.183 159.074 106.71 157.922C107.579 158.766 109.997 159.657 110.981 159.013C110.336 157.721 108.429 158.431 106.885 156.839L106.761 156.709Z" fill="#356516"/>
<path d="M55.0334 116.426C59.4505 118.72 62.711 120.762 64.1817 125.8C64.7022 127.583 65.0856 128.529 65.295 130.475C64.6644 131.004 64.5616 131.016 64.4134 131.807C62.6766 124.616 62.3528 121.849 55.4875 118.319C54.9405 117.756 54.5855 117.497 54.5537 116.786L55.0334 116.426Z" fill="#356516"/>
<path d="M56.7125 159.335C57.0128 159.413 57.268 159.188 57.9398 159.354C57.6741 160.32 56.2724 166.828 56.5603 167.361C57.1109 167.502 57.2757 167.476 57.8219 167.443L57.7419 167.779C58.2251 168.131 60.3261 168.412 60.9922 168.477C57.4505 168.751 53.9727 169.226 50.4394 169.5L50.7523 168.706L50.6149 168.432L49.5273 168.266C51.5487 167.92 52.882 167.721 54.9329 167.596C55.2668 164.82 55.5373 161.885 56.7125 159.335Z" fill="#356516"/>
<path d="M109.142 26.3568C113.829 29.0531 116.488 32.7596 117.873 37.8894C118.103 38.7444 118.33 39.6007 118.551 40.4583C118.135 40.9907 118.343 40.8512 117.772 41.0742L117.31 40.9479C116.011 35.0307 113.761 30.5697 108.283 27.6559C109.054 27.4066 108.964 27.0644 109.142 26.3568Z" fill="#356516"/>
<path d="M166.132 89.1655C166.568 88.9643 167 88.7542 167.428 88.5358C168.172 90.9519 167.875 94.406 168.047 96.968C168.215 99.4671 168.61 101.377 169.22 103.793C169.329 104.646 169.429 105.492 169.583 106.338C168.976 106.879 169.132 106.912 168.458 106.98L168.368 106.539C166.796 101.151 166.92 94.7543 166.132 89.1655Z" fill="#356516"/>
<path d="M168.367 106.538C168.45 105.276 168.119 104.619 169.219 103.793C169.328 104.646 169.428 105.491 169.582 106.337C168.975 106.879 169.131 106.912 168.458 106.98L168.367 106.538Z" fill="#356516"/>
<path d="M11.0724 135.531L11.237 135.839C11.9695 135.386 11.5562 132.708 13.257 131.751C12.803 133.626 12.3748 135.397 12.0155 137.294C11.6239 139.361 11.4038 142.052 10.8033 144.004C10.6051 146.16 10.3882 148.313 10.1526 150.465C10.1076 150.916 10.0493 152.402 9.99596 152.702L9.87253 152.324L9.31235 152.367C9.14462 151.848 9.1502 149.685 9.07227 148.866C9.17774 147.365 9.33064 146.728 9.69986 145.257C9.74018 143.085 10.1616 137.528 11.0724 135.531Z" fill="#356516"/>
<path d="M9.69986 145.257L10.0576 144.379C10.0762 145.067 10.0818 145.755 10.0743 146.444L10.2291 146.404C10.3011 145.626 10.3707 144.901 10.4827 144.125L10.8033 144.004C10.6051 146.16 10.3882 148.313 10.1526 150.465C10.1076 150.916 10.0493 152.402 9.99596 152.702L9.87253 152.324L9.31235 152.367C9.14462 151.848 9.1502 149.685 9.07227 148.866C9.17774 147.365 9.33064 146.728 9.69986 145.257Z" fill="#356516"/>
<path d="M49.3864 113.923C49.6727 114.118 50.2172 114.452 50.4125 114.703L50.5519 114.99C51.6011 115.069 54.0139 115.982 55.0331 116.426L54.5533 116.786C54.5851 117.496 54.9402 117.756 55.4871 118.318C54.5333 117.84 52.898 116.966 51.9612 116.611C51.171 120.12 50.1566 124.091 45.7256 124.094C46.2463 123.653 46.5327 123.481 47.1181 123.128L47.225 122.664C47.3475 122.621 47.4688 122.574 47.5889 122.524L47.7336 122.464C49.2906 121.784 50.9613 117.047 50.2268 115.774C49.8027 116.144 49.0185 118.164 48.711 118.828L48.5353 118.721C48.0693 117.493 48.9054 115.129 49.3864 113.923Z" fill="#356516"/>
<path d="M101.176 24.7062C102.188 22.3663 100.332 7.26273 101.887 5.30045L102.262 5.26953C102.761 6.14177 102.771 22.508 102.55 24.4242C102.423 23.3052 102.614 22.7713 102.359 21.6883L102.174 21.5902C101.212 22.029 101.597 23.5227 101.455 24.5993L101.176 24.7062Z" fill="#356516"/>
<path d="M59.6936 104.291L60.6033 104.019C61.3089 104.351 61.9535 104.644 62.6746 104.94C62.8845 105.61 62.6087 106.458 62.5294 107.144C61.8875 112.689 56.3702 111.617 52.5511 110.487C51.8786 110.039 51.9689 110.523 51.5187 110.206C50.9162 109.485 50.8157 109.829 50.5146 108.953C51.543 108.045 61.3726 113.986 61.3134 106.391C61.3072 105.598 60.2396 104.812 59.6936 104.291Z" fill="#356516"/>
<path d="M147.693 118.806L147.904 119.437C148.321 119.506 148.565 119.36 148.966 119.204C148.233 121.456 147.957 122.397 147.888 124.746L148.123 125.312C148.842 125.543 149.349 125.154 150.107 124.789C150.706 125.097 151.042 125.098 151.184 125.802C150.538 126.035 149.822 126.207 149.432 126.749C149.468 127.479 150.214 127.564 150.871 127.684L150.263 127.953L150.282 128.175C150.654 128.276 151.017 128.381 151.395 128.456C149.876 128.906 148.979 128.014 147.721 127.219C146.404 127.174 145.57 127.354 144.296 126.968C144.1 126.422 143.751 126.331 143.433 125.724C144.429 125.814 145.872 125.803 146.908 125.822C146.676 124.451 146.77 123.403 146.954 122.058C147.167 120.729 147.286 120.084 147.693 118.806Z" fill="#356516"/>
<path d="M147.693 118.806L147.904 119.437C148.321 119.506 148.565 119.36 148.965 119.204C148.233 121.456 147.957 122.397 147.887 124.746C147.834 124.312 147.826 124.007 147.643 123.607L147.279 124.063C146.984 123.615 146.994 122.646 146.954 122.058C147.167 120.729 147.286 120.084 147.693 118.806Z" fill="#356516"/>
<path d="M34.5629 115.511C37.6413 118.553 42.308 123.896 47.225 122.664L47.1182 123.128C46.5327 123.481 46.2463 123.653 45.7256 124.094C40.883 124.083 36.612 119.656 33.5264 116.389C33.725 116.183 34.3147 115.718 34.5629 115.511Z" fill="#356516"/>
<path d="M177.892 153.418C178.145 152.73 178.008 152.765 178.518 152.431L178.868 152.593C178.942 152.848 179.024 153.107 179.078 153.366C178.62 157.826 177.673 163.968 176.411 168.192C176.427 167.564 176.452 167.259 176.336 166.638C175.873 166.242 176.101 166.335 175.468 166.306C176.397 163.691 177.522 156.216 177.892 153.418Z" fill="#356516"/>
<path d="M139.353 174.539C141.249 175.512 149.223 179.014 150.95 179.279C150.64 180.261 150.356 179.673 150.339 180.336L150.947 180.501C150.844 180.597 150.697 180.747 150.583 180.815C148.045 179.91 141.743 177.325 139.424 176.163C139.391 175.93 139.318 174.697 139.353 174.539Z" fill="#356516"/>
<path d="M52.8337 68.7155C54.4016 69.1251 62.6317 73.3988 63.2309 74.2518L63.136 74.5343C63.5643 75.0227 64.0815 75.4029 64.134 75.9201L63.9795 76.0605L63.1612 75.4694L63.1294 75.7025C61.098 74.3553 54.6009 70.8032 52.4951 70.0155C52.8728 69.8026 53.0788 69.6924 53.419 69.4271L52.8337 68.7155Z" fill="#356516"/>
<path d="M11.0723 135.531C11.9033 130.885 13.3729 124.662 16.3518 120.981C16.4396 121.687 16.4447 121.968 16.771 122.606C15.3151 125.073 14.3525 127.39 13.6592 130.18C13.5799 130.499 13.3932 131.536 13.2569 131.751C11.5561 132.708 11.9693 135.386 11.2369 135.839L11.0723 135.531Z" fill="#356516"/>
<path d="M89.5047 31.0102C90.185 31.0965 90.2698 31.0741 90.9103 30.845L91.2357 31.0546C89.7873 32.8566 89.2227 33.7863 88.2978 35.9425C88.1757 36.227 87.5469 37.7666 87.4568 37.9188C87.232 39.1078 86.6952 42.1163 86.2583 43.1599C85.8061 41.9144 86.7824 41.8424 86.0855 39.931L85.9302 39.8927C85.858 40.5699 85.8011 41.1774 85.6645 41.8452L85.3594 41.7306C85.4209 41.0416 85.469 39.9804 85.693 39.3593C86.2676 36.1635 87.6916 33.6169 89.5047 31.0102Z" fill="#356516"/>
<path d="M129.417 121.96C129.227 122.396 129.052 122.713 129 123.186C129.351 123.337 129.387 123.312 129.78 123.257C127.236 125.739 126.582 127.659 125.338 130.967C125.082 131.816 124.816 132.663 124.543 133.507C124.196 133.444 124.286 133.472 123.909 133.599C123.755 133.783 123.582 133.951 123.351 134.025C123.551 132.96 123.741 131.929 123.991 130.872C124.973 127.285 126.562 124.398 129.417 121.96Z" fill="#356516"/>
<path d="M123.991 130.872C124.193 131.115 124.328 131.247 124.602 131.406L124.623 131.545L124.379 131.392L124.633 131.371L124.679 131.658L124.946 131.082L125.338 130.967C125.082 131.816 124.816 132.663 124.543 133.507C124.196 133.444 124.286 133.472 123.909 133.599C123.755 133.783 123.582 133.951 123.351 134.025C123.551 132.96 123.741 131.929 123.991 130.872Z" fill="#356516"/>
<path d="M157.852 117.909C158.477 117.554 158.503 117.163 158.935 116.579C159.342 116.844 159.243 116.924 159.379 117.52C158.284 120.928 154.395 124.369 151.183 125.802C151.042 125.098 150.705 125.098 150.106 124.789C153.739 123.065 155.779 121.606 157.852 117.909Z" fill="#356516"/>
<path d="M106.196 59.003L106.556 59.1947C107.403 61.0141 109.337 71.0515 110.126 73.6112C110.197 73.8418 110.108 74.2457 110.035 74.4845C108.391 73.7309 106.567 62.2748 105.99 60.3948C105.9 60.1018 106.098 59.3307 106.196 59.003Z" fill="#356516"/>
<path d="M8.41024 157.113C8.36968 158.953 9.34969 158.878 9.49974 160.666C9.47951 164.218 9.72431 166.035 9.99809 169.518C8.63533 170.389 9.23445 170.26 9.19529 171.746C7.96 168.839 8.05512 160.274 8.41024 157.113Z" fill="#356516"/>
<path d="M52.6755 158.621C53.2343 158.342 54.3074 158.118 54.9215 158.015C57.8007 157.53 58.768 156.697 60.6991 154.644C61.1283 154.942 61.3178 155.122 61.8322 155.232C60.5357 156.565 59.1431 157.947 57.94 159.354C57.2682 159.188 57.013 159.413 56.7127 159.335C55.3603 159.405 54.1919 159.652 52.8679 159.819C52.6263 159.344 52.6633 159.14 52.6755 158.621Z" fill="#356516"/>
<path d="M127.649 91.424C128.16 91.6946 128.301 91.667 128.585 92.115C127.896 93.2096 127.155 94.2871 126.102 95.0637C123.398 97.0584 125.806 98.0095 127.435 99.2821C126.702 99.9934 126.635 99.9704 126.429 100.965C125.888 99.0313 125.249 99.4863 124.064 98.3981C121.908 96.4197 126.485 92.7543 127.649 91.424Z" fill="#356516"/>
<path d="M117.87 54.8405C119.596 54.729 127.402 62.7005 127.683 64.0144C127.434 64.0328 127.082 64.0159 126.883 63.8947C125.284 62.9211 118.425 56.1407 117.87 54.8405Z" fill="#356516"/>
<path d="M136.528 118.079C137.587 117.564 138.614 117.42 139.766 117.348L139.855 117.518C139.275 118.588 139.466 120.59 139.858 121.711C140.514 123.583 141.693 124.815 143.432 125.724C143.751 126.331 144.1 126.421 144.295 126.968C143.299 126.89 141.563 126.137 140.804 125.472C138.644 123.579 138.889 121.606 138.669 119.137L138.303 118.936C137.627 118.651 137.175 118.429 136.528 118.079Z" fill="#356516"/>
<path d="M63.1364 86.9461C63.0055 85.1641 62.5183 83.3649 61.8909 81.6955C61.6651 81.0946 60.5841 79.4397 60.9135 78.8329C63.6588 79.8527 63.2831 83.4973 64.2791 84.1725C64.8316 83.8793 64.7634 83.6899 65.091 82.9806L65.3533 83.0537C65.9322 82.7052 65.8092 82.688 66.1779 82.0037C65.9853 83.3218 65.8211 83.794 65.3893 85.0501C64.354 85.8645 64.2773 85.862 64.1108 87.1276L63.4845 87.2615L63.1364 86.9461Z" fill="#356516"/>
<path d="M10.6076 118.877L11.3645 118.916C11.4858 119.106 11.5997 119.256 11.6651 119.471C11.5756 121.003 11.6299 122.715 11.5336 124.114C11.5134 124.573 11.4834 125.031 11.4436 125.489C11.3075 126.982 10.0333 130.589 8.20516 130.394C7.82406 129.08 9.74138 127.783 10.0576 126.61C10.6878 124.273 10.3779 121.328 10.6076 118.877Z" fill="#356516"/>
<path d="M10.6075 118.877L11.3644 118.916C11.4857 119.106 11.5995 119.256 11.6649 119.471C11.5754 121.003 11.6298 122.715 11.5334 124.114C11.317 124.645 11.373 124.756 10.9535 125.054C10.4725 124.497 10.6402 119.96 10.6075 118.877Z" fill="#356516"/>
<path d="M67.9548 155.103C68.3985 155.188 69.4472 155.331 69.7415 155.582L69.7676 155.651C69.6115 155.779 69.3945 155.896 69.4448 156.088C70.0068 158.234 70.7386 162.942 71.327 164.824C71.2244 165.394 71.1664 166.197 70.7795 166.557L70.4851 166.595C69.5981 163.632 68.7754 158.959 68.3989 155.893C67.9713 155.458 67.8246 155.545 67.127 155.375L67.9548 155.103Z" fill="#356516"/>
<path d="M63.1362 86.9462L63.4843 87.2616L64.1105 87.1277C63.6734 90.7853 63.5797 91.6491 66.0178 94.781C66.6132 95.5457 67.0752 96.0579 67.4458 96.9682C67.1512 97.1296 66.6461 97.453 66.3402 97.4694C66.0867 96.858 65.2737 96.0183 64.8311 95.4671C62.5079 92.575 62.3045 90.4833 63.1362 86.9462Z" fill="#356516"/>
<path d="M81.5284 53.9405C81.797 53.9636 81.757 53.9844 82.0065 54.1524L82.0463 54.5412C81.4076 55.8438 74.5968 61.0863 73.0043 62.3133C72.9215 62.3008 72.7023 62.1805 72.6129 62.1361L72.5732 61.6579C73.0271 60.7256 80.0666 55.1388 81.5284 53.9405Z" fill="#356516"/>
<path d="M137.778 112.439C138.35 111.968 138.128 112.099 138.931 112.023C139.961 113.023 142.633 119.6 141.986 120.971L141.681 121.097C140.67 120.301 140.581 118.289 139.856 117.519L139.766 117.348C139.445 115.838 138.411 113.958 137.778 112.439Z" fill="#356516"/>
<path d="M127.896 147.746C127.935 146.347 129.089 138.089 129.914 137.528L130.216 137.648C130.561 138.534 129.169 146.847 128.88 148.469C128.483 149.118 128.849 149.196 128.267 149.64C128.115 149.319 127.96 148.164 127.896 147.746Z" fill="#356516"/>
<path d="M129.456 81.5246L129.601 81.5806C130.131 81.472 130.005 81.4514 130.384 80.9089L131.437 81.4692C129.952 84.696 129.475 86.3221 129.266 89.8688C128.725 89.5985 128.544 89.3626 128.137 88.9349C128.006 86.9194 129.162 83.3742 128.829 82.4828C129.275 82.1636 129.289 82.0567 129.456 81.5246Z" fill="#356516"/>
<path d="M163.047 80.4519L163.259 80.0368C163.719 80.6166 163.617 80.6851 164.202 80.8523L164.775 80.6368C166.292 83.4416 166.693 85.4086 167.427 88.5357C166.999 88.7542 166.567 88.9642 166.131 89.1654C165.587 85.8382 164.629 83.3857 163.047 80.4519Z" fill="#356516"/>
<path d="M148.65 106.202C148.69 105.142 148.558 104.535 149.093 103.692L149.293 103.806C149.438 104.399 149.518 105.782 149.562 105.882C150.275 110.259 150.042 111.414 149.545 115.743L148.872 116.018L148.701 115.762C148.812 114.961 148.791 114.742 148.706 113.931C148.683 113.519 148.759 113.101 148.797 112.691C148.996 110.52 148.81 108.372 148.65 106.202Z" fill="#356516"/>
<path d="M27.4751 140.401C27.5054 139.72 27.4866 138.821 27.7547 138.222L28.0501 138.048L28.0286 137.824C28.6448 138.871 28.3626 141.677 28.2746 142.951C28.2761 145.28 28.118 146.562 27.8625 148.852L27.0405 149.078L26.8655 148.949L26.7725 147.774C26.7982 145.926 27.3262 142.553 27.4751 140.401Z" fill="#356516"/>
<path d="M27.4756 140.401C27.5059 139.72 27.4872 138.821 27.7552 138.222L28.0506 138.048L28.0291 137.824C28.6453 138.871 28.3631 141.677 28.2751 142.951C28.0987 143.085 27.9392 143.144 27.739 143.234C27.406 142.717 27.4916 141.139 27.4756 140.401Z" fill="#356516"/>
<path d="M55.1455 139.536C56.0018 140.185 55.3897 140.242 56.0143 140.795C53.8223 141.821 53.0007 142.403 51.8131 144.529C51.4569 145.424 50.8925 146.353 50.4135 147.199C49.9909 146.969 50.1642 146.763 49.3252 146.385C50.1058 145.061 50.8914 143.663 51.8092 142.436C52.3437 141.21 53.96 140.09 55.1455 139.536Z" fill="#356516"/>
<path d="M156.848 74.0887L157.251 73.935C157.828 74.3 159.145 75.3116 159.667 75.3448L159.889 75.1451L159.862 75.2258C159.546 74.9846 159.009 74.6652 158.797 74.3619L159.018 74.1087C161.312 75.707 163.542 78.1151 164.776 80.6367L164.203 80.8523C163.618 80.685 163.719 80.6165 163.26 80.0367L163.047 80.4518C161.496 77.7717 159.26 75.9632 156.848 74.0887Z" fill="#356516"/>
<path d="M43.3711 153.486C43.4486 152.994 43.5378 152.93 43.8844 152.562L44.2373 152.564L44.4425 152.916C44.8589 154.474 46.5836 160.616 47.7465 161.301L47.7603 161.358L47.2374 161.721C46.9466 161.623 46.4154 161.421 46.1333 161.402C45.4149 160.402 43.5929 154.879 43.3711 153.486Z" fill="#356516"/>
<path d="M9.99754 169.518C10.76 173.151 11.4472 174.514 14.3149 176.909L13.9159 177.193C13.3598 177.309 12.519 176.902 11.9559 176.684C10.3956 175.123 9.67368 173.937 9.19474 171.746C9.2339 170.26 8.63478 170.389 9.99754 169.518Z" fill="#356516"/>
<path d="M175.468 166.306C176.101 166.336 175.873 166.242 176.336 166.638C176.452 167.259 176.427 167.565 176.411 168.192C176.142 169.313 175.309 172.566 174.69 173.464C174.062 173.982 174.274 174.473 173.656 174.798C173.317 174.401 173.303 173.964 173.228 173.451C174.425 170.969 174.727 168.92 175.468 166.306Z" fill="#356516"/>
<path d="M22.1771 116.04C22.4657 116.905 22.5468 116.715 22.3261 117.46C19.6361 119.32 18.7448 120.009 16.7707 122.605C16.4445 121.968 16.4393 121.687 16.3516 120.981C17.8955 118.59 19.8124 117.529 22.1771 116.04Z" fill="#356516"/>
<path d="M25.1766 95.4429C25.7606 95.4168 25.9556 94.9488 26.1497 94.5176C27.0822 97.4549 27.1903 98.3259 28.8101 100.983L27.9979 101.305C27.5426 100.618 27.4286 100.32 26.6276 100.183C26.0757 100.546 25.8892 100.708 25.2387 100.842L25.0615 100.78C25.2684 99.92 25.4742 99.594 25.8996 98.8082C25.5466 97.5247 25.3793 96.7587 25.1766 95.4429Z" fill="#356516"/>
<path d="M79.3768 141.098C79.4925 141.556 79.4899 141.911 79.7886 142.173L80.3552 141.868L80.4776 141.955C80.458 144.859 79.7003 147.288 79.6548 149.618L79.3645 149.561L79.1179 149.743C78.8269 149.69 78.6435 149.633 78.3485 149.682L78.1719 149.9C78.1965 149.378 78.5146 148.123 78.5991 147.485C78.8813 145.358 79.2189 143.242 79.3768 141.098Z" fill="#356516"/>
<path d="M97.7539 47.5439C99.8043 49.5422 102.91 49.6246 105.363 48.3325C105.263 49.0755 105.205 49.2148 104.91 49.9088C102.601 50.9228 100.237 50.7172 98.1281 49.39C97.8531 48.5871 97.7686 48.3824 97.7539 47.5439Z" fill="#356516"/>
<path d="M87.3213 67.153C88.3571 65.2823 90.7444 60.2183 92.0272 59.1353L92.2135 59.2247C92.0929 61.314 89.3878 65.4696 88.4096 67.6669C88.094 67.4827 87.6624 67.3055 87.3213 67.153Z" fill="#356516"/>
<path d="M126.43 100.966C126.636 99.9705 126.703 99.9935 127.436 99.2822C127.644 100.537 127.636 102.597 128.377 103.261L128.721 103.3C129.59 103.138 131.497 102.391 131.843 102.459L131.968 102.738C131.633 103.558 131.444 103.796 130.581 104.145C129.806 104.301 129.057 104.499 128.27 104.423C128.041 104.315 127.493 104.384 127.198 104.397C126.797 103.04 126.569 102.383 126.43 100.966Z" fill="#356516"/>
<path d="M128.72 103.3C129.59 103.138 131.496 102.391 131.843 102.459L131.968 102.738C131.633 103.558 131.443 103.796 130.581 104.145C129.87 104.042 129.035 104.418 128.587 103.829L128.72 103.3Z" fill="#356516"/>
<path d="M30.7244 103.126C31.6612 103.791 34.5418 105.132 34.9066 105.573C34.0507 106.131 32.0257 105.538 31.0868 105.483C30.6781 105.459 29.4809 107.108 29.1556 107.534C28.9246 106.461 28.6707 106.67 28.8743 105.745L29.1354 105.597C29.5128 105.082 29.7034 104.632 29.9753 104.058C30.603 103.622 30.3983 103.859 30.7244 103.126Z" fill="#356516"/>
<path d="M123.723 142.907C125.375 144.947 125.51 146.473 126.424 147.759L127.155 149.956C127.018 150.408 127.114 150.341 126.805 150.578C126.317 150.311 126.053 149.995 125.663 149.601C124.704 147.746 124.751 146.302 123.123 144.482C123.003 143.522 122.898 143.421 123.723 142.907Z" fill="#356516"/>
<path d="M53.5952 86.3987L53.835 87.5651C51.7769 89.3895 50.0643 90.2737 47.5629 91.4048C46.955 91.2407 46.7352 91.0769 46.2012 90.7523C49.3601 89.1493 50.771 88.4805 53.5952 86.3987Z" fill="#356516"/>
<path d="M9.07219 148.866C9.15012 149.685 9.14454 151.848 9.31227 152.367L9.87245 152.323L9.99588 152.702C9.933 155.629 9.66857 157.83 9.4999 160.666C9.34985 158.878 8.36985 158.953 8.4104 157.113C8.39293 154.885 8.94982 151.423 9.07219 148.866Z" fill="#356516"/>
<path d="M104.623 147.078C104.968 147.732 105.07 147.92 105.936 148.144C106.838 148.378 108.242 148.877 109.105 149.014C109.766 149.265 110.415 149.422 110.796 150.004L110.792 150.343C109.854 150.982 108.047 150.424 107.046 150.105C106.228 150.021 106.098 149.971 105.337 149.649C105.306 149.422 105.247 149.286 105.176 149.07L104.828 149.204L104.824 148.885C104.641 148.143 104.526 147.83 104.623 147.078Z" fill="#356516"/>
<path d="M169.583 106.338C170.167 108.949 170.245 111.915 169.55 114.512C169.065 114.493 168.701 114.434 168.226 114.364C169.158 110.856 169.155 110.554 168.458 106.98C169.131 106.912 168.976 106.879 169.583 106.338Z" fill="#356516"/>
<path d="M63.2314 74.2516C65.1795 75.9565 66.944 79.3972 66.1777 82.0037C65.8091 82.688 65.9321 82.7052 65.3532 83.0537L65.0908 82.9806C65.613 79.6623 64.7679 78.4372 63.1299 75.7024L63.1616 75.4692L63.9799 76.0604L64.1345 75.92C64.082 75.4028 63.5648 75.0226 63.1365 74.5342L63.2314 74.2516Z" fill="#356516"/>
<path d="M75.068 154.292L75.3426 154.817C75.2501 155.04 75.1534 155.292 75.048 155.506C73.6112 155.783 71.1585 156.205 69.7669 155.651L69.7408 155.581C69.4465 155.33 68.3978 155.188 67.9541 155.103C68.1316 154.855 68.1245 154.664 68.1878 154.343C69.9848 154.572 73.233 154.442 75.068 154.292Z" fill="#356516"/>
<path d="M131.244 156.932C131.46 157.277 131.88 157.988 132.113 158.273C131.461 159.897 130.338 162.969 129.598 164.331C129.063 164.27 128.76 164.289 128.363 163.913C129.066 162.625 130.787 158.304 131.244 156.932Z" fill="#356516"/>
<path d="M148.651 106.202L148.442 104.377C147.637 103.846 146.728 104.808 145.833 103.799C146.165 102.673 147.385 103.37 148.536 102.628C149.47 102.027 149.918 101.533 150.706 100.765L151.795 101.021C150.987 102.269 150.663 102.681 149.641 103.76C149.626 104.257 149.624 105.442 149.562 105.882C149.518 105.782 149.439 104.398 149.293 103.806L149.093 103.692C148.559 104.535 148.69 105.142 148.651 106.202Z" fill="#356516"/>
<path d="M148.689 160.261C149.903 160.713 153.813 161.584 154.442 161.944C154.081 162.639 154.252 162.294 154.396 163.208C152.802 162.625 150.537 162.396 148.034 161.451C148.367 161.018 148.47 160.748 148.689 160.261Z" fill="#356516"/>
<path d="M114.951 160.109C115.492 160.476 115.911 160.766 116.492 161.07C118.124 161.677 119.529 162.256 121.271 162.461C120.836 163.012 120.762 163.153 120.093 163.391C118.69 163.351 116.58 162.68 115.339 161.959L114.582 161.385C114.533 160.727 114.586 160.652 114.951 160.109Z" fill="#356516"/>
<path d="M114.951 160.109C115.492 160.476 115.911 160.766 116.492 161.07L116.462 161.676C116.128 161.967 115.8 161.927 115.339 161.959L114.582 161.385C114.533 160.727 114.586 160.652 114.951 160.109Z" fill="#356516"/>
<path d="M25.0616 100.779L25.2388 100.842C25.8893 100.708 26.0758 100.545 26.6277 100.183C26.3683 100.886 26.2598 101.241 25.8452 101.861C26.2357 102.519 26.6652 103.287 27.1091 103.899L27.0397 103.936L25.5961 104.112L24.8962 103.337L24.33 103.385L22.8343 103.871C22.7915 103.499 22.6564 102.904 22.582 102.516C22.9509 102.473 23.6526 102.24 24.0359 102.125C24.6568 101.731 24.7426 101.442 25.0616 100.779Z" fill="#356516"/>
<path d="M24.8965 103.338C25.0637 102.46 25.1755 102.38 25.8455 101.861C26.236 102.519 26.6654 103.287 27.1093 103.9L27.0399 103.936L25.5963 104.112L24.8965 103.338Z" fill="#356516"/>
<path d="M22.582 102.516C22.9509 102.473 23.6526 102.24 24.0359 102.125C24.3912 102.566 24.525 102.761 24.33 103.385L22.8343 103.871C22.7915 103.499 22.6564 102.904 22.582 102.516Z" fill="#356516"/>
<path d="M44.9074 169.015C46.3712 168.646 48.0191 168.466 49.5275 168.266L50.6151 168.432L50.7524 168.706L50.4396 169.5C49.5058 169.608 47.8955 169.834 47.0068 169.841C46.3647 169.899 45.6107 169.988 44.9764 169.974C44.5251 169.808 44.3037 169.782 44.0283 169.393L44.3285 169.075L44.9074 169.015Z" fill="#356516"/>
<path d="M44.3285 169.075L44.9074 169.015C45.8846 169.155 46.0227 169.349 47.0134 169.424L47.0068 169.841C46.3647 169.899 45.6107 169.988 44.9764 169.974C44.5251 169.808 44.3037 169.782 44.0283 169.392L44.3285 169.075Z" fill="#356516"/>
<path d="M66.3403 97.4693C66.6462 97.453 67.1513 97.1295 67.4459 96.9681C67.2032 99.0066 65.8878 99.2697 64.3647 100.359L63.8649 101.551C63.3911 101.295 63.2486 101.181 62.6943 101.222C62.7399 100.639 63.119 99.8528 63.3545 99.2899C64.0608 98.7771 65.3943 98.1172 66.3403 97.4693Z" fill="#356516"/>
<path d="M56.9516 82.1353L57.9195 82.7228C56.6451 84.8554 55.8241 86.0183 53.8345 87.5652L53.5947 86.3988C54.5092 85.0303 55.8437 84.0393 56.9516 82.1353Z" fill="#356516"/>
<path d="M43.0811 166.871C44.0418 166.262 46.515 164.457 47.3098 164.276C47.5402 164.83 47.46 164.662 48.0792 165.011C47.6603 165.584 44.4512 167.727 43.7319 168.128C43.6373 167.786 43.6353 167.766 43.6513 167.406L43.6559 167.32L43.0811 166.871Z" fill="#356516"/>
<path d="M52.6753 158.621C52.6632 159.14 52.6261 159.344 52.8677 159.819C51.4997 160.364 50.0921 161.35 48.8512 162.177C48.5253 161.767 48.2062 161.619 47.7608 161.358L47.7471 161.301C49.9021 160.045 50.0271 159.488 52.6753 158.621Z" fill="#356516"/>
<path d="M108.06 144.485C109.19 144.749 110.657 144.987 111.454 145.858L111.431 146.178C110.427 146.813 107.714 146.419 106.583 146.178L106.759 145.77L107.374 145.533C107.731 145.313 107.868 144.886 108.06 144.485Z" fill="#356516"/>
<path d="M42.7085 89.7942C44.1345 90.3553 45.0407 91.1699 46.2008 90.7524C46.7349 91.077 46.9547 91.2407 47.5625 91.4049C46.5006 91.8769 45.9802 92.1565 44.9873 92.764C43.8629 91.7447 43.4805 91.1232 41.9912 91.1601C42.318 90.7314 42.4869 90.2859 42.7085 89.7942Z" fill="#356516"/>
<path d="M27.0403 103.936L27.1097 103.9C27.5734 104.322 28.6614 105.471 29.1358 105.597L28.8747 105.745C28.6711 106.67 28.925 106.461 29.156 107.534L28.8009 108.839C28.4387 108.896 28.3552 108.896 27.9878 108.881L27.7058 108.266C27.9342 107.723 28.0544 107.405 28.2208 106.837C28.0197 106.19 27.3628 106.135 26.7796 105.548L25.5967 104.112L27.0403 103.936Z" fill="#356516"/>
<path d="M25.5967 104.112L27.0403 103.936C27.0025 104.398 26.9586 104.766 26.99 105.233L26.7796 105.548L25.5967 104.112Z" fill="#356516"/>
<path d="M142.868 158.625C144.831 159.212 146.727 159.71 148.689 160.261C148.47 160.748 148.367 161.018 148.034 161.451C146.281 160.959 144.992 160.514 143.29 159.888L143.551 159.266C142.959 158.978 143.126 159.156 142.868 158.625Z" fill="#356516"/>
<path d="M135.904 84.1112C135.534 82.6895 134.371 78.1281 135.912 77.301C136.676 77.7864 136.132 80.4317 136.34 81.484C136.479 82.1914 136.57 82.6293 136.768 83.3425C136.587 83.4927 136.456 83.5724 136.232 83.6466L135.904 84.1112Z" fill="#356516"/>
<path d="M87.3217 67.153C87.6628 67.3055 88.0944 67.4827 88.41 67.6668C87.6969 69.0194 86.7428 71.4127 85.601 72.3274L85.3655 72.2464C85.3455 70.8248 86.6484 68.4972 87.3217 67.153Z" fill="#356516"/>
<path d="M150.95 179.279C152.359 179.735 153.817 180.231 155.23 180.655C154.857 181.324 154.694 181.25 153.913 181.692C152.751 181.435 151.726 181.143 150.583 180.815C150.697 180.747 150.844 180.597 150.947 180.501L150.339 180.336C150.356 179.673 150.64 180.261 150.95 179.279Z" fill="#356516"/>
<path d="M78.1716 149.9L78.3482 149.682C78.6433 149.633 78.8267 149.69 79.1177 149.743L79.3643 149.561L79.6545 149.618C79.4542 150.585 78.9356 152.848 78.9565 153.711C77.9043 153.829 78.1096 154.2 77.1855 153.859C77.5964 152.857 77.9836 150.967 78.1716 149.9Z" fill="#356516"/>
<path d="M130.384 80.9087C131.232 79.6715 132.594 77.8831 134.091 77.4032L134.29 77.4746C134.313 78.7712 132.426 80.1261 131.437 81.4691L130.384 80.9087Z" fill="#356516"/>
<path d="M49.3251 146.385C50.1642 146.763 49.9909 146.969 50.4135 147.199C49.9947 147.935 48.7074 150.291 48.0853 150.772C47.4101 150.429 47.01 150.548 46.2676 150.614C48.1702 149.172 48.293 148.543 49.3251 146.385Z" fill="#356516"/>
<path d="M128.127 78.0352C128.793 77.6893 128.831 77.507 129.388 77.6737L129.516 77.8575C129.394 79.2917 129.395 80.0828 129.455 81.5246C129.288 82.0567 129.275 82.1635 128.828 82.4828C127.807 80.9661 127.959 79.8007 128.127 78.0352Z" fill="#356516"/>
<path d="M51.5188 110.206C51.969 110.522 51.8786 110.039 52.5511 110.487C51.9389 111.4 50.9129 113.639 50.4128 114.703C50.2175 114.452 49.6729 114.118 49.3867 113.923C49.8997 112.771 50.5841 111.009 51.5188 110.206Z" fill="#356516"/>
<path d="M160.37 145.409C160.549 144.163 160.85 142.392 161.474 141.308L161.784 141.1C162.482 141.958 161.76 144.86 161.412 145.889L160.92 146.321L160.631 146.282L160.37 145.409Z" fill="#356516"/>
<path d="M157.852 117.909C158.323 116.722 159.437 112.983 160.173 112.522L160.402 112.797C160.656 113.907 160.348 114.558 160.02 115.678C159.583 116.314 159.636 116.053 159.68 116.692L159.86 116.863L159.379 117.52C159.243 116.924 159.341 116.844 158.935 116.579C158.503 117.163 158.476 117.554 157.852 117.909Z" fill="#356516"/>
<path d="M46.1338 161.402C46.416 161.421 46.9471 161.623 47.2379 161.721L47.7608 161.358C48.2062 161.619 48.5253 161.767 48.8512 162.177C48.2727 163.195 48.6683 163.713 48.3455 164.747L48.079 165.011C47.4597 164.662 47.5399 164.83 47.3095 164.276C47.2568 163.515 46.4984 162.268 46.1338 161.402Z" fill="#356516"/>
<path d="M47.3096 164.276L47.9494 163.546L48.2024 163.589C48.2722 164.008 48.3318 164.316 48.3456 164.747L48.079 165.011C47.4598 164.662 47.54 164.83 47.3096 164.276Z" fill="#356516"/>
<path d="M147.692 118.806C147.958 117.206 148.357 115.523 148.706 113.93C148.791 114.742 148.812 114.961 148.701 115.762L148.871 116.018L149.545 115.743C149.463 116.905 149.372 118.097 148.965 119.204C148.565 119.36 148.321 119.506 147.904 119.437L147.692 118.806Z" fill="#356516"/>
<path d="M58.0488 79.493C58.2669 78.9481 58.4077 78.3806 58.9194 78.119L59.1795 78.1946C59.436 78.7402 59.2915 79.1159 59.161 79.6986C58.7493 80.9716 58.5784 81.5593 57.9201 82.7228L56.9521 82.1353C57.3116 81.1774 57.5925 80.415 58.0488 79.493Z" fill="#356516"/>
<path d="M58.0479 79.493C58.266 78.9481 58.4068 78.3806 58.9185 78.119L59.1786 78.1946C59.4351 78.7402 59.2906 79.1159 59.1601 79.6986C58.6335 79.7566 58.5423 79.6997 58.0479 79.493Z" fill="#356516"/>
<path d="M108.033 45.1106L108.141 45.1547C108.607 46.9581 106.387 49.143 104.911 49.9088C105.206 49.2148 105.263 49.0755 105.364 48.3325C105.501 48.096 107.846 45.2692 108.033 45.1106Z" fill="#356516"/>
<path d="M11.9561 176.684C12.5192 176.902 13.3599 177.309 13.916 177.193L14.3151 176.909C15.2828 177.462 16.051 177.7 17.1689 177.825L16.4118 178.07L16.3572 178.325C16.5148 178.517 16.8231 178.87 16.9491 179.065C15.1812 178.796 13.2386 177.961 11.9561 176.684Z" fill="#356516"/>
<path d="M39.2852 92.421C39.9846 90.7351 40.986 90.1511 42.7081 89.7942C42.4865 90.2859 42.3176 90.7314 41.9908 91.1601C41.0741 91.8477 40.4616 92.1668 40.097 93.3045C40.0454 92.9626 40.0092 92.8365 39.9057 92.5057L39.2852 92.421Z" fill="#356516"/>
<path d="M63.9854 142.888C62.7478 143.001 60.2228 144.039 59.4785 143.015C60.0651 142.366 61.9082 142.102 62.7786 142.014L63.6997 142.186C63.9195 142.516 63.9114 142.498 63.9854 142.888Z" fill="#356516"/>
<path d="M150.871 127.684C151.722 127.287 153.815 125.982 154.232 125.867C154.497 126.359 154.449 126.132 154.33 126.775C153.679 127.66 152.432 128.035 151.395 128.456C151.017 128.381 150.654 128.276 150.282 128.175L150.264 127.953L150.871 127.684Z" fill="#356516"/>
<path d="M98.1282 49.3901C97.1371 48.7861 94.9635 46.934 96.3818 45.7959C97.1617 46.1115 97.3224 46.7254 97.754 47.5441C97.7687 48.3826 97.8531 48.5873 98.1282 49.3901Z" fill="#356516"/>
<path d="M59.6932 104.291C59.1169 103.785 58.4582 103.058 59.1136 102.421C60.2951 102.228 60.8967 102.517 62.147 102.687C61.6048 102.928 61.4811 102.869 61.4267 103.535L61.2481 103.641L60.6029 104.019L59.6932 104.291Z" fill="#356516"/>
<path d="M62.6937 101.222C63.2479 101.181 63.3904 101.295 63.8643 101.551C63.7194 102.237 63.6175 103.136 63.1541 103.62C62.374 103.931 62.1702 103.787 61.248 103.641L61.4267 103.535C61.481 102.869 61.6048 102.928 62.1469 102.687C62.5363 102.178 62.5626 101.848 62.6937 101.222Z" fill="#356516"/>
<path d="M79.6331 138.388L80.7165 138.932C80.6379 139.645 80.5655 141.444 80.4778 141.955L80.3553 141.868L79.7888 142.172C79.49 141.911 79.4926 141.556 79.377 141.098L79.6331 138.388Z" fill="#356516"/>
<path d="M27.2441 112.38L27.7053 108.266L27.9873 108.881C28.3547 108.896 28.4382 108.896 28.8005 108.839C28.6921 109.653 28.5025 110.797 28.447 111.588C28.1089 112.247 28.1188 112.44 27.2441 112.38Z" fill="#356516"/>
<path d="M28.8103 100.983C29.4393 101.706 30.0772 102.42 30.7242 103.126C30.3982 103.859 30.6029 103.622 29.9752 104.058C28.8767 102.996 28.6707 102.622 27.998 101.305L28.8103 100.983Z" fill="#356516"/>
<path d="M75.0679 154.292C75.7266 154.11 76.5179 153.848 77.1852 153.859C78.1093 154.2 77.904 153.829 78.9562 153.711C78.1146 154.736 76.3304 155.197 75.0479 155.506C75.1532 155.292 75.25 155.04 75.3425 154.817L75.0679 154.292Z" fill="#356516"/>
<path d="M25.758 91.1979C25.9383 92.3819 26.0798 93.3209 26.1505 94.5176C25.9565 94.9489 25.7615 95.4169 25.1775 95.4429C25.0227 94.6744 24.9061 93.6637 24.791 92.8699C25.0172 92.8851 25.1966 92.851 25.4224 92.8253C25.8504 92.2357 25.7116 92.065 25.758 91.1979Z" fill="#356516"/>
<path d="M117.311 40.948L117.772 41.0743C118.344 40.8513 118.135 40.9908 118.552 40.4584C118.677 41.5056 118.812 42.5515 118.892 43.603C118.228 43.4199 118.081 43.3256 117.69 42.7489C117.43 41.9971 117.401 41.7452 117.311 40.948Z" fill="#356516"/>
<path d="M128.137 88.9348C128.544 89.3626 128.725 89.5985 129.265 89.8688C129.099 90.7215 129.024 91.3546 128.585 92.115C128.302 91.6671 128.161 91.6946 127.649 91.424C128.006 90.3922 128.144 90.058 128.137 88.9348Z" fill="#356516"/>
<path d="M126.424 147.759L127.232 147.573L127.563 147.038L127.711 148.316C127.72 148.891 127.795 149.706 127.546 150.194C127.234 150.109 127.357 150.19 127.155 149.956L126.424 147.759Z" fill="#356516"/>
<path d="M58.332 136.983C58.332 136.083 58.1712 134.6 58.8812 133.999C59.3066 134.76 59.1151 135.914 59.0282 136.781C58.561 136.818 58.6722 136.745 58.332 136.983Z" fill="#356516"/>
<path d="M23.8238 159.774C23.1135 160.135 22.6064 160.537 21.8594 160.15L21.9189 159.776C22.3048 159.24 23.0179 159.08 23.6593 158.858L23.8238 159.774Z" fill="#356516"/>
<path d="M61.1308 137.03L61.5881 136.992C61.9742 137.328 61.8655 137.142 61.9248 137.778C61.2898 137.894 60.6149 138.103 60.0527 137.843L61.1308 137.03Z" fill="#356516"/>
<path d="M104 152V149.064C101.803 148.595 101.646 150.826 102.431 151.413L104 152Z" fill="white"/>
<path d="M104 145V143.043C101.5 142 101.715 144.609 102.5 145L104 145Z" fill="white"/>
</svg>
