<svg width="331" height="259" viewBox="0 0 331 259" fill="none" xmlns="http://www.w3.org/2000/svg">
<g filter="url(#filter0_f_2628_100827)">
<circle cx="75.5586" cy="77.6992" r="20.7558" transform="rotate(-58.0445 75.5586 77.6992)" fill="#C6DEA1" fill-opacity="0.44"/>
</g>
<g filter="url(#filter1_f_2628_100827)">
<circle cx="238.532" cy="93.3016" r="37.2984" transform="rotate(49.968 238.532 93.3016)" fill="#C6DEA1" fill-opacity="0.44"/>
</g>
<g filter="url(#filter2_f_2628_100827)">
<circle cx="147.466" cy="166.847" r="37.2984" transform="rotate(49.968 147.466 166.847)" fill="#C6DEA1" fill-opacity="0.44"/>
</g>
<g filter="url(#filter3_f_2628_100827)">
<ellipse cx="124.047" cy="88.5437" rx="33.6387" ry="33.9966" transform="rotate(-58.0445 124.047 88.5437)" fill="#FBFFF4" fill-opacity="0.24"/>
</g>
<g filter="url(#filter4_f_2628_100827)">
<ellipse cx="236.531" cy="138.086" rx="33.6387" ry="33.9966" transform="rotate(49.968 236.531 138.086)" fill="#FBFFF4" fill-opacity="0.24"/>
</g>
<path d="M200.801 62.0118C206.083 60.6936 210.765 60.9991 215.574 63.7944C219.755 66.225 222.088 70.4893 223.231 75.0492C224.183 78.5608 223.44 82.3857 224.374 85.8717C224.911 87.8768 226.065 90.2603 227.362 91.9161C230.682 96.1529 231.533 103.202 227.191 107.213C228.957 108.321 231.769 110.775 232.674 112.61C235.262 117.864 237.33 126.073 238.461 131.779C240.151 140.309 246.065 164.336 241.593 171.425C241.428 171.684 241.26 171.942 241.088 172.197C241.13 174.828 241.376 177.744 239.742 179.953C239.878 180.688 240.07 181.577 240.173 182.304C239.412 182.471 239.417 182.411 238.951 183.122C238.675 182.095 238.32 180.933 238.208 179.889C236.317 180.264 234.842 180.416 232.911 180.454L232.904 182.814C232.399 183.239 232.055 183.535 231.5 183.895C231.456 185.696 231.258 190.586 231.432 192.191C232.332 190.616 232.6 189.733 232.636 187.906C232.648 187.369 232.578 186.484 233.135 186.324C234.77 187.355 233.223 192.781 231.906 193.32L231.192 193.329C230.92 193.757 230.809 194.932 230.724 195.499C230.215 198.98 229.637 202.451 228.991 205.909H227.454H211.473H210.023H187.944H186.27C185.849 197.739 185.299 192.389 185.89 183.995C185.423 183.569 184.979 183.15 184.743 182.546C184.101 180.898 184.503 177.815 185.203 176.265C182.858 173.717 182.81 171.152 183.327 167.874C179.665 170.411 181.337 171.959 178.228 174.113C178.259 175.558 177.379 187.573 174.256 184.869C173.777 183.76 174.397 183.359 175.199 182.78C176.17 180.475 176.377 177.037 176.731 174.472C174.643 174.056 173.245 173.37 171.682 171.894C170.366 174.635 167.383 178.788 167.999 181.39C168.741 184.525 168.511 186.603 171.067 188.595C170.651 187.782 170.39 187.279 170.095 186.422C169.656 185.579 169.388 182.407 170.223 181.698L170.596 181.799L170.888 181.967C171.464 181.778 171.746 181.656 172.365 181.657C172.951 181.071 173.636 179.409 174.605 178.802L174.864 178.874C175.54 180.312 173.162 182.594 173.068 183.732C172.776 187.306 177.803 187.466 173.415 190.561C171.505 190.267 170.573 190.193 168.997 188.811C167.002 187.062 166.345 183.76 166.29 181.197C166.268 180.232 166.404 179.27 166.693 178.348C167.114 177.002 169.693 171.918 170.65 170.91C169.426 168.609 170.296 166.929 171.021 164.599C170.581 163.214 170.125 161.13 170.337 159.727C171.02 155.202 172.86 150.843 174.117 146.445C176.083 139.312 177.954 132.153 179.728 124.971C181.023 119.802 182.516 112.877 186.348 108.891C187.627 107.56 189.8 106.263 191.406 105.3C186.863 104.076 185.272 101.209 185.51 96.3574C185.641 93.7035 187.382 91.1185 189.459 89.4664L189.415 89.1788L189.208 89.03C188.539 87.8536 188.728 86.2999 188.779 84.9541C187.545 83.9861 185.086 82.3396 186.888 80.8007C189.871 78.252 190.66 77.5048 190.756 73.4442C190.765 73.0708 191.629 71.4952 191.642 71.0051C191.696 70.7535 190.869 70.1094 190.886 69.7306C191.109 64.4802 195.469 60.0881 200.801 62.0118Z" fill="#527E31"/>
<path d="M187.264 184.56C199.664 189.775 217.706 189.65 230.147 184.667C230.116 186.823 230.086 189.497 229.801 191.613C229.161 196.374 228.194 201.155 227.453 205.909H211.472H210.023H187.944C187.825 204.275 187.749 202.597 187.6 200.97C187.096 195.483 187.219 190.066 187.264 184.56Z" fill="#FEFFFD"/>
<path d="M210.873 198.955C210.252 199.158 209.553 199.456 208.92 199.373C208.461 199.103 208.614 199.293 208.45 198.783C208.783 197.534 213.153 196.332 214.239 196.745L214.317 196.922C213.918 197.591 213.169 197.907 212.478 198.282C211.85 201.071 211.929 203.52 211.472 205.909H210.023C210.258 203.578 210.472 201.265 210.873 198.955Z" fill="#527E31"/>
<path d="M170.596 181.8L170.888 181.967C171.464 181.778 171.746 181.656 172.365 181.657C170.292 185.834 173.19 186.18 173.49 188.958L173.278 189.266L173.149 189.24L173.478 189.099L173.024 189.176C172.15 188.554 172.147 188.548 171.62 187.614L171.165 187.737L170.879 187.556C170.625 187.016 170.532 186.83 170.095 186.423C169.656 185.579 169.388 182.407 170.222 181.698L170.596 181.8Z" fill="#E7FCD1"/>
<path d="M170.095 186.423C169.656 185.579 169.388 182.407 170.222 181.698L170.596 181.8C170.557 184.031 170.585 185.534 171.62 187.614L171.165 187.737L170.879 187.556C170.625 187.016 170.532 186.83 170.095 186.423Z" fill="#426525"/>
<path d="M189.208 89.0301C190.067 88.676 190.452 87.7093 191.763 88.1632C191.518 89.0779 190.188 89.2441 189.459 89.4665L189.415 89.1789L189.208 89.0301Z" fill="#E7FCD1"/>
<path d="M173.22 164.564C170.845 162.323 172.07 157.812 172.965 155.073C174.429 150.595 175.852 146.272 177.056 141.711C178.272 137.153 179.449 132.583 180.586 128.005C182.012 122.24 183.305 114.7 187.349 110.088C190.095 106.955 194.47 106.286 198.125 104.83C200.638 109.338 204.87 111.619 209.85 109.425C209.973 109.37 212.762 110.588 213.508 110.681C216.293 111.03 218.297 109.915 220.867 109.143C223.43 108.697 222.636 109.502 225.826 108.242C227.565 109.385 229.042 110.573 230.294 112.262C233.971 117.221 235.987 127.542 237.241 133.627C238.672 140.57 243.931 164.871 240.585 170.049C239.534 171.676 237.338 172.225 237.056 173.008C237.512 174.168 238.887 173.342 239.579 172.955C239.555 174.53 239.583 176.103 239.29 177.653C237.496 178.87 235.114 178.968 233.005 178.988C232.88 176.748 232.39 176.335 233.549 174.206C235.379 170.838 234.408 166.322 233.879 162.669C233.401 159.438 232.938 156.205 232.493 152.97C231.642 146.493 231.528 139.842 231.757 133.317C231.81 131.803 232.417 125.459 231.725 124.488C231.487 124.475 231.429 124.413 231.242 124.585C230.06 125.674 230.248 142.083 230.328 144.775C230.452 148.602 230.789 152.419 231.338 156.209C231.912 160.123 232.717 163.961 233.002 167.918C233.263 171.534 232.971 172.749 230.393 175.22C231.614 177.378 231.474 179.479 231.356 181.939C222.913 188.283 194.932 188.39 186.317 182.209C185.991 179.799 185.62 178.492 187.554 176.623C183.954 173.627 184.375 170.221 185.149 165.91C185.299 165.075 186.603 162.865 187.017 162.003C187.946 160.032 188.74 158.001 189.394 155.922C191.679 148.468 193.065 140.202 193.956 132.47C194.656 126.411 194.277 118.618 190.19 113.783C189.83 113.359 188.643 112.643 188.079 112.627L187.909 112.8C187.947 113.3 189.078 114.395 189.43 114.883C193.019 119.863 193.344 127.085 192.39 132.959C190.776 142.888 188.768 160.776 181.154 167.808C178.28 166.937 176.513 166.92 173.975 165.043C172.319 167.575 178.775 168.688 179.989 168.953C179.579 169.842 178.534 172.383 177.513 172.52C175.354 172.81 171.923 171.225 171.523 168.885C171.242 167.242 172.313 165.805 173.22 164.564Z" fill="#FEFFFD"/>
<path d="M225.185 176.917L225.792 176.905C226.196 177.161 226.069 176.985 226.175 177.461C226.022 177.8 225.757 178.084 225.406 178.209C217.162 181.164 204.118 181.547 196.011 179.184C195.45 178.953 194.615 178.509 194.883 177.781C195.516 177.533 200.959 178.696 202.487 178.87C204.58 179.085 206.682 179.205 208.786 179.227C215.038 179.271 219.283 178.446 225.185 176.917Z" fill="#527E31"/>
<path d="M204.637 62.8506C207.642 62.3017 212.267 63.5889 214.892 65.1462C219.684 67.9879 221.813 73.9982 222.23 79.3116C222.45 82.1223 222.206 84.752 223.161 87.4975C224.437 91.1672 227.362 93.3023 228.226 97.1982C228.781 99.6923 228.744 102.261 227.349 104.486C225.923 106.759 224.337 107.173 221.956 107.74C223.856 103.979 223.334 101.856 221.055 98.3352C220.571 97.5877 219.683 95.7486 218.91 95.4694L218.663 95.6265C217.62 97.9393 223.706 101.476 220.821 106.472C219.211 108.442 217.288 109.108 214.774 109.161C212.938 109.201 211.71 108.536 210.15 107.719C205.282 109.463 201.979 108.867 199.391 103.868C195.627 96.5984 203.839 91.077 203.148 83.9745C202.826 80.6626 199.669 79.0358 198.597 75.992C197.864 74.0564 197.506 72.9674 197.439 70.7561C197.404 69.6164 197.483 68.5668 197.253 67.4736C194.866 66.5696 193.565 69.342 192.102 70.7007L191.975 70.8165C192.625 67.9018 193.231 64.9615 196.248 63.5266C197.954 62.7143 199.211 62.8433 200.947 63.4405C202.127 63.1185 203.42 62.9859 204.637 62.8506Z" fill="#FEFFFD"/>
<path d="M207.734 94.5376C207.93 94.5487 208.47 94.5815 208.526 94.7318C208.977 95.9386 208.711 97.8195 209.248 99.0958C209.997 100.876 211.437 101.083 212.744 102.247C213.038 102.506 212.968 102.973 212.968 103.338C208.549 103.019 206.666 98.4517 207.734 94.5376Z" fill="#527E31"/>
<path d="M193.779 71.1086C194.195 70.0502 195.477 68.4 196.19 67.4712C195.559 72.3345 196.198 75.3613 199.075 79.5831C200.282 81.356 202.191 82.6155 201.88 85.0726C201.429 88.6239 199.697 91.4328 198.04 94.4929C193.999 94.3743 190.516 95.9507 190.636 90.6203C191.759 90.1318 194.723 88.7638 193.847 87.1078C192.427 86.2623 190.255 87.639 190.1 86.3502C190.082 86.2041 189.999 84.8383 189.984 84.5873C189.312 83.5032 188.394 82.9884 187.603 82.0777C188.416 81.2539 189.574 80.3824 190.261 79.6135C192.512 76.7007 191.045 74.6667 193.779 71.1086Z" fill="#FEFFFD"/>
<path d="M190.261 79.6136C192.511 76.7008 191.045 74.6668 193.779 71.1087C193.572 72.2961 192.716 73.4346 192.339 74.575C191.675 76.5838 192.923 78.9591 190.261 79.6136Z" fill="#FEFFFD"/>
<path d="M192.85 77.3312C194.202 77.663 194.181 78.7566 193.709 79.869C192.242 79.7164 192.442 78.3553 192.85 77.3312Z" fill="#527E31"/>
<path d="M193.122 74.5825C194.297 74.6144 195.039 75.0788 195.026 76.2756C194.046 76.3293 193.121 75.5892 193.122 74.5825Z" fill="#426525"/>
<path d="M189.148 91.6342C189.396 91.9493 189.299 92.3737 189.311 92.8019C189.424 96.6387 194.629 96.1189 197.386 95.939C197.037 97.3245 197.039 98.1945 197.065 99.6067C195.113 100.142 194.735 100.209 193.453 101.753L191.734 104.011C190.964 103.797 189.785 103.547 189.207 103.027C185.76 99.9338 186.835 94.74 189.148 91.6342Z" fill="#FEFFFD"/>
<path d="M197.075 100.801C197.411 101.119 197.678 102.599 197.905 103.295C196.41 103.794 195.449 104.219 193.883 104.619L193.568 104.716L193.426 104.603C193.666 103.337 195.95 101.454 197.075 100.801Z" fill="#E7FCD1"/>
<path d="M86.7927 110.332L86.6807 110.224C85.1719 108.757 84.2867 106.902 84.297 104.761C84.3232 99.2846 89.0601 97.0161 90.8536 92.3152C91.5528 90.4669 92.0182 87.8713 92.0714 85.8817C92.364 74.9254 98.3025 66.4673 110.065 66.3856C112.31 66.37 114.398 66.8686 116.776 66.7242C120.28 66.5114 122.947 69.7076 123.753 72.823C123.93 73.5306 123.786 74.6715 123.892 75.4287C124.32 77.5694 124.772 80.0721 125.462 82.1174C125.88 83.3544 128.914 84.0366 128.703 85.8873C128.55 87.2321 127.591 87.9022 126.679 88.7248C127.085 89.8972 126.96 90.3852 126.792 91.6059C125.888 91.6 124.927 91.5528 124.018 91.5244C124.651 92.0113 125.658 92.5769 126.364 93.0011C126.547 93.9772 126.76 95.0961 126.695 96.086C126.466 99.5956 122.336 99.5767 119.74 99.3001C119.434 100.508 119.115 101.935 118.476 102.992C121.334 103.805 123.676 105.344 124.916 108.112C126.563 109.053 127.841 109.501 129.401 110.818C131.852 112.888 132.835 114.818 134.076 117.62C135.534 120.955 136.347 124.388 137.253 127.886C139.038 134.779 140.662 141.586 142.844 148.371C144.562 153.711 146.324 159.084 147.903 164.457C148.444 166.299 147.715 168.662 147.916 170.555C148.135 172.177 148.738 173.477 148.914 175.257C148.826 175.421 148.36 176.252 148.436 176.385C149.496 178.255 150.255 180.333 151.146 182.263C152.598 185.407 153.085 186.859 152.35 190.268C151.574 193.867 149.66 195.728 146.619 197.633C142.651 197.05 143.204 195.201 145.016 192.551C144.955 192.312 144.934 192.291 144.831 192.065L144.181 191.844C143.226 191.364 142.881 190.726 142.585 189.709C141.816 187.073 140.938 182.56 140.928 179.882C139.577 178.864 139.283 178.133 138.512 176.607C139.116 179.939 140.39 191.186 139.919 194.384C139.791 195.298 139.451 196.17 138.926 196.931C137.302 199.241 134.174 199.859 131.529 200.291C131.328 200.324 131.127 200.352 130.925 200.377C130.949 202.237 130.884 204.052 130.825 205.909H129.405L129.537 200.583C122.237 201.397 114.863 201.289 107.59 200.259C98.5141 198.9 96.7279 196.752 98.3268 187.547C93.5681 187.106 88.376 186.461 83.9653 184.605C83.5071 186.82 79.7886 204.943 79.5716 205.26C78.9458 205.4 78.8217 205.257 78.4343 204.816C78.1423 203.959 79.7271 196.693 79.9855 195.023C78.3289 191.469 78.7961 187.735 79.3562 183.938C78.1595 181.771 77.7701 179.016 78.111 176.579C76.623 174.638 76.0942 171.811 75.8955 169.412C74.9836 158.596 77.2984 147.895 79.4535 137.389C80.9127 130.379 81.9299 123.326 85.0128 116.79C85.1759 116.445 85.2232 115.44 85.209 115.043C85.1391 113.098 85.517 111.856 86.7927 110.332Z" fill="#527E31"/>
<path d="M142.224 180.133C144.131 179.442 145.72 178.778 147.365 177.513C148.44 180.432 151.391 185.776 151.058 188.365C150.347 188.537 150.585 188.572 149.989 188.392L149.703 188.179C148.731 188.537 149.111 192.622 148.258 193.768C147.662 194.567 147.457 196.342 145.863 195.794L145.621 195.557C147.956 193.549 148.472 191.222 147.148 188.444C146.696 187.499 146.268 186.475 145.355 185.877C144.875 185.807 145.098 185.765 144.672 186.039C144.361 186.585 144.117 186.768 143.662 187.182C143.109 184.652 142.578 182.724 142.224 180.133Z" fill="#FEFFFD"/>
<path d="M143.661 187.182C144.116 186.768 144.36 186.585 144.671 186.039C144.917 187.525 145.518 188.845 145.817 190.586C145.66 191.278 145.479 191.987 145.015 192.551C144.954 192.312 144.933 192.291 144.831 192.065L144.181 191.844L144.425 191.595C144.617 190.636 143.912 188.209 143.661 187.182Z" fill="#E7FCD1"/>
<path d="M150.044 189.154L150.259 189.502L150.538 189.547L150.955 189.244C150.606 191.1 150.396 191.985 149.668 193.698C149.809 191.936 150.096 191.058 150.044 189.154Z" fill="#E7FCD1"/>
<path d="M149.988 188.392C150.585 188.572 150.346 188.537 151.057 188.365L150.954 189.244L150.538 189.547L150.258 189.502L150.044 189.154L149.988 188.392Z" fill="#FEFFFD"/>
<path d="M108.053 68.0633C110.211 67.7831 112.288 68.1393 114.383 68.6043C114.447 68.6185 115.509 68.1955 115.656 68.1678C118.999 67.537 121.812 70.4538 122.564 73.4825C122.677 73.9393 122.703 74.0592 122.482 74.4314C121.964 74.5303 121.51 74.0903 120.777 73.9513L120.705 74.1784C121.033 75.1955 122.481 77.1947 123.001 78.4628C123.505 79.692 124.048 82.1992 124.661 83.0363C125.498 84.1801 126.575 84.5117 127.519 86.0375C126.913 86.7476 126.051 87.5888 125.39 88.2969C125.594 89.1502 125.839 89.6564 125.47 90.4227C124.515 91.2256 124.15 90.4714 122.83 90.6368C122.546 90.9071 122.547 90.8335 122.507 91.2366C122.263 93.6919 125.93 93.0235 125.601 95.3562C125.084 99.0116 121.533 97.9002 119.039 97.47C118.484 97.3744 118.287 97.4515 117.876 97.767C117.893 98.2182 118.173 98.3106 118.531 98.8507C118.512 99.6049 117.879 100.753 117.884 101.3C117.903 103.627 117.281 102.688 115.405 103.558C115.678 104.813 118.857 104.627 120.073 105.312C121.434 106.079 121.705 106.406 122.741 107.521C121.574 107.526 120.284 107.567 119.239 108.13C110.849 112.69 107.803 124.734 98.9736 128.542C93.3044 130.987 88.9096 124.126 87.5355 119.579C86.5758 116.404 86.1392 114.384 87.6741 111.342C89.5789 111.881 90.1385 111.561 92.0144 111.634C93.0878 111.675 94.5802 112.733 96.0009 112.599C97.6813 112.442 99.5082 111.874 101.208 111.868C105.222 112.922 107.972 112.966 111.3 109.853C113.31 107.973 114.596 104.589 114.625 101.56C114.605 99.9909 113.608 95.0159 113.36 93.0189C113.866 92.9287 114.403 92.9044 114.616 92.3963C113.161 90.7822 113.003 90.5391 113.637 88.3384C114.538 85.6066 116.331 83.3848 117.652 80.8192C118.613 78.9513 119.901 73.5882 118.282 71.9484C117.818 71.8548 118.045 71.8394 117.581 72.0382C117.24 73.5948 117.938 75.6863 117.111 78.1447C115.538 82.8121 112.392 85.2064 111.994 90.434C111.504 96.8546 115.459 103.336 110.043 108.776C107.918 110.912 105.854 111.143 102.997 111.131C103.852 110.437 104.637 109.803 105.341 108.941C106.045 108.081 107.082 106.012 105.929 105.202C104.906 105.369 104.248 108.439 103.019 109.141C100.911 110.346 97.1144 111.185 94.7438 110.928C90.0321 110.417 92.4541 105.635 91.7204 104.652L91.391 104.673C89.4948 105.684 90.1831 108.771 90.9518 110.335C88.3506 109.463 86.1315 108.642 85.8768 105.511C85.4637 100.434 90.4443 97.7454 92.11 93.2607C94.64 86.4495 92.8308 78.9279 97.9358 73.0152C100.421 70.0147 104.222 68.4371 108.053 68.0633Z" fill="#FEFFFD"/>
<path d="M121.015 81.0842C121.5 81.0534 121.619 81.0021 122.013 81.2363C122.649 81.9664 122.455 82.6449 121.937 83.4013C120.806 83.0075 120.435 82.1191 121.015 81.0842Z" fill="#527E31"/>
<path d="M121.033 77.8521L121.49 78.0476L121.589 78.342C121.38 78.9025 120.929 79.2427 120.484 79.6686C119.946 79.3442 119.756 79.2531 119.864 78.6094C120.242 78.1368 120.478 78.0909 121.033 77.8521Z" fill="#426525"/>
<path d="M115.205 113.478C115.425 113.829 114.953 114.692 114.75 115.227C111.204 124.57 109.407 134.861 107.453 144.656C106.612 148.875 105.099 156.82 104.845 160.966C102.677 163.295 101.725 170.31 101.016 173.661C100.191 177.56 99.1317 182.025 98.6041 185.934C93.9781 185.724 87.2783 184.832 83.3837 182.262C83.4181 179.898 83.6874 178.667 84.1259 176.321C83.5478 175.474 82.9465 174.627 82.867 173.572C82.5886 169.879 84.1022 164.282 84.5695 160.42C84.9592 157.201 86.0387 136.309 85.236 134.698C85.1211 134.468 85.083 134.506 84.8601 134.424L84.468 134.682C84.2762 135.055 84.2618 135.251 84.2566 135.661C84.1558 143.503 83.795 151.199 83.2644 159.021C83.0334 160.99 82.7501 162.953 82.4144 164.908C81.932 167.656 81.1727 170.969 81.2749 173.737C81.3206 174.971 81.8287 176.029 82.334 177.131C81.7781 180.14 82.1521 181.342 82.1953 183.959C82.2218 185.562 80.8823 191.519 80.3249 193.063C80.0219 190.351 80.3649 186.124 81.2591 183.538L80.2108 182.605C80.1631 182.47 80.1194 182.333 80.0799 182.195C79.83 181.34 79.2184 178.533 79.6337 177.774C80.2285 177.848 80.8159 178.061 81.1855 177.541C81.0898 176.038 79.2501 176.312 78.633 174.416C75.6106 165.12 78.0025 153.273 79.7068 143.948C81.2139 135.7 82.7647 126.663 85.5408 119.007C86.154 120.409 86.7121 121.848 87.325 123.256C89.4089 128.044 94.02 132.102 99.5081 130.033C104.757 128.054 107.793 123.057 110.909 118.73C112.199 116.94 113.759 115.165 115.205 113.478Z" fill="#FEFFFD"/>
<path d="M123.217 109.975C124.573 109.763 126.275 110.553 127.372 111.312C132.691 115.015 134.076 122.462 135.743 128.342C137.786 135.551 139.267 142.866 141.683 149.978C143.387 154.994 145.245 160.076 146.493 165.215C146.879 166.802 146.668 168.119 145.735 169.45C146.229 170.776 146.715 172.094 147.176 173.432C147.806 175.264 146.865 176.283 145.321 177.154C141.192 179.482 140.686 177.644 138.858 174.286C140.788 174.155 142.794 173.568 144.315 172.338C144.808 171.939 145.375 171.127 144.789 170.584C144.39 170.642 142.116 171.835 141.457 172.076C140.447 172.444 139.707 172.624 138.655 172.883L138.56 172.838C137.804 172.469 137.047 172.103 136.497 171.448C133.516 167.892 131.182 161.034 129.632 156.642C126.976 148.995 125.275 141.002 123.022 133.235C122.869 132.709 122.603 132.167 121.99 132.314C121.478 132.93 121.742 134.127 121.897 134.835C123.137 140.474 125.115 145.986 126.239 151.641C126.437 152.639 126.346 154.67 126.364 155.732C126.398 157.86 126.461 159.987 126.553 162.114C122.518 162.568 113.563 161.93 109.61 161.028C109.876 159.117 110.096 157.253 110.414 155.34C111.636 148.081 112.991 140.845 114.48 133.634C115.74 127.538 117.152 121.318 119.287 115.448C120.085 113.254 121.291 111.351 123.217 109.975Z" fill="#FEFFFD"/>
<path d="M108.064 162.458C113.872 163.95 124.399 164.189 130.378 163.565C132.055 167.471 133.707 171.42 137.007 174.154C137.304 179.302 138.256 184.553 138.403 189.73C138.453 191.474 138.736 194.57 137.61 196.053C135.98 198.2 131.646 198.563 129.1 198.928C122.058 199.627 114.887 199.792 107.893 198.548C104.378 197.922 100.387 198.072 99.5044 193.826C99.4996 193.718 99.4955 193.609 99.492 193.501C99.2788 186.761 101.846 178.94 102.928 172.283C103.222 170.477 104.332 163.86 105.37 162.751C106.825 162.447 106.636 165.511 106.595 166.384C106.259 173.658 105.9 180.906 105.983 188.193C105.996 189.409 105.493 198.236 108.001 197.414C108.518 196.352 107.775 195.788 107.662 194.797C107.47 193.103 107.544 191.027 107.56 189.303C107.618 183.626 107.72 177.951 107.867 172.276C107.944 169.179 108.154 165.495 108.064 162.458Z" fill="#FEFFFD"/>
<path d="M120.989 108.947L121.284 109.067C121.252 109.448 119.085 112.199 118.675 113.167C113.683 124.944 112 138.199 109.583 150.692C108.923 154.104 108.603 157.622 107.91 160.965C107.604 161.226 107.348 161.189 106.939 161.213C106.464 161.034 106.564 161.152 106.351 160.793C106.805 155.664 108.136 149.53 109.015 144.462C110.78 134.286 113.115 124.013 116.656 114.297C117.506 111.964 118.676 109.997 120.989 108.947Z" fill="#E7FCD1"/>
<path d="M127.781 156.812C128.433 157.336 129.574 161.033 129.776 161.941C129.231 161.972 128.821 162.05 128.317 161.859C128.171 161.359 127.882 157.696 127.781 156.812Z" fill="#E7FCD1"/>
<path d="M146.155 190.314L146.242 189.588L146.445 189.444C147.951 190.703 146.099 194.023 145.237 195.215C144.444 194.181 145.929 192.978 146.123 191.803C146.208 191.285 146.18 190.831 146.155 190.314Z" fill="#E7FCD1"/>
<path d="M232.911 180.454C234.842 180.416 236.317 180.264 238.208 179.889C238.319 180.933 238.675 182.095 238.951 183.122C239.528 185.253 239.681 186.8 239.763 188.992C239.536 190.498 239.275 191.007 238.858 192.415C237.879 194.698 236.328 196.314 234.031 197.469C233.836 197.566 233.696 197.555 233.491 197.525L233.342 197.412C233.161 196.938 232.852 196.829 232.412 196.609L232.039 196.756L231.887 196.915C231.778 195.185 233.593 193.288 234.307 191.836C234.531 191.236 234.406 190.491 234.71 189.917C235.133 189.123 234.465 187.61 234.087 186.889L233.974 186.886C234.459 188.58 233.808 193.063 231.786 193.74C231.289 193.906 231.299 194.897 230.724 195.499C230.808 194.932 230.92 193.757 231.192 193.329L231.905 193.32C233.223 192.781 234.77 187.355 233.135 186.324C232.578 186.484 232.647 187.369 232.636 187.906C232.599 189.733 232.331 190.616 231.432 192.191C231.258 190.586 231.456 185.696 231.499 183.895C232.055 183.535 232.399 183.239 232.904 182.814L232.911 180.454Z" fill="#FEFFFD"/>
<path d="M234.31 186.208C234.857 186.379 235.163 186.514 235.74 186.513C236.581 188.403 237.064 189.417 238.112 191.215C238.143 191.643 238.155 191.843 238.246 192.26C238.623 192.465 238.427 192.415 238.858 192.415C237.879 194.698 236.328 196.314 234.03 197.469C233.836 197.566 233.696 197.555 233.49 197.525L233.342 197.412C233.16 196.938 232.851 196.829 232.411 196.609L232.039 196.756C232.572 194.888 234.074 193.387 234.675 191.524C234.9 190.824 235.061 190.045 235.221 189.327C235.102 188.714 234.507 186.924 234.31 186.208Z" fill="#E7FCD1"/>
<path d="M234.31 186.208C234.857 186.379 235.163 186.514 235.74 186.513C236.582 188.403 237.064 189.417 238.112 191.215C237.676 193.815 235.819 195.37 233.883 197.015C234.543 195.353 237.659 191.539 236.504 189.889C236.1 189.62 236.086 189.605 235.615 189.61L235.221 189.327C235.103 188.714 234.508 186.924 234.31 186.208Z" fill="#527E31"/>
<path d="M235.221 189.327L235.614 189.61C235.515 191.905 234.829 193.546 233.829 195.549C233.504 196.197 233.313 196.673 233.342 197.412C233.16 196.938 232.851 196.829 232.411 196.61L232.039 196.756C232.572 194.888 234.074 193.387 234.675 191.524C234.9 190.824 235.061 190.045 235.221 189.327Z" fill="#527E31"/>
<path d="M234.31 186.208C234.212 185.583 234.083 185.173 234.305 184.593L234.573 184.332C235.48 184.543 235.645 185.682 235.74 186.513C235.163 186.514 234.857 186.379 234.31 186.208Z" fill="#87AE6E"/>
<path d="M239.763 188.992C240.384 189.089 240.478 189.324 241.026 189.781C240.32 195.439 238.625 196.577 234.056 199.628C232.632 198.962 231.653 198.691 231.887 196.915L232.039 196.756L232.412 196.609C232.852 196.829 233.161 196.938 233.343 197.412L233.491 197.525C233.696 197.555 233.836 197.566 234.031 197.469C236.328 196.314 237.879 194.698 238.858 192.415C239.275 191.008 239.536 190.498 239.763 188.992Z" fill="#527E31"/>
<path d="M240.172 182.304C240.643 184.374 241.467 187.749 241.026 189.781C240.478 189.324 240.384 189.089 239.763 188.992C239.682 186.8 239.528 185.253 238.951 183.122C239.417 182.411 239.412 182.471 240.172 182.304Z" fill="#87AE6E"/>
<path d="M101.871 205.909C101.698 204.9 101.39 204.037 101.898 203.189L102.189 203.089C103.165 203.619 103.177 204.92 103.316 205.909H101.871Z" fill="#527E31"/>
<path d="M103.774 0.589811C105.968 0.413934 108.169 0.850062 110.129 1.8496C113.612 3.60437 115.525 6.24029 116.711 9.8406C119.174 9.38449 122 10.1623 123.146 12.5345C123.356 12.9695 123.977 14.6404 124.325 14.7997C125.562 15.2369 126.103 15.1004 127.273 15.8277C129.616 17.2853 131.931 22.3657 127.491 22.7549C125.33 22.9442 122.499 22.817 120.136 22.8059L105.78 22.7788L90.1445 22.7737C87.3771 22.7791 84.5862 22.8414 81.8192 22.7354C80.5435 22.7153 79.3259 22.1557 79.3291 20.6769C79.337 16.9155 82.0165 15.0676 85.3759 14.8479C86.3895 11.3543 88.6973 9.9554 92.3227 10.59C93.4628 4.81379 97.9965 1.16519 103.774 0.589811Z" fill="#527E31"/>
<path d="M103.179 2.27038C107.673 1.84554 111.565 3.59938 113.98 7.53503C114.879 8.99996 115.122 10.3888 115.415 12.0421C117.765 10.7738 120.296 10.9451 121.812 13.3101C122.482 14.3561 122.621 15.3591 122.85 16.5466C125.408 16.6023 127.121 16.6333 128.215 19.4995C128.419 20.0312 128.451 20.3718 128.199 20.8871C127.447 21.4354 121.424 21.2339 120.121 21.2336L106.345 21.2268L89.575 21.234C88.0385 21.2339 82.5934 21.3378 81.3014 21.0384C81.0994 20.8317 80.8547 20.5858 80.909 20.2683C81.5352 16.6071 83.9275 16.347 86.7142 16.4766C87.3744 11.8963 89.405 11.3153 93.5024 12.5738C94.6407 6.8242 96.9995 3.27196 103.179 2.27038Z" fill="#FEFFFD"/>
<path d="M230.565 14.9542C235.926 14.4525 239.728 17.484 241.457 22.3778C241.674 22.9926 246.303 21.5488 247.75 27.1835C249.274 27.3232 250.185 27.5924 251.48 28.5147C253.566 29.975 254.321 34.4176 251.02 34.8723C249.12 35.134 246.748 34.9734 244.805 34.9578L234.113 34.9185C229.748 34.899 225.382 34.902 221.017 34.9271C218.692 34.9352 216.372 34.9514 214.025 34.9109C210.524 34.8503 210.352 32.1385 211.722 29.6022C212.56 28.0541 214.273 27.4518 215.891 27.0205C216.895 25.1134 217.94 23.7242 220.263 23.6627C220.418 23.6586 220.937 23.5268 220.985 23.357C222.409 18.3702 225.345 15.5907 230.565 14.9542Z" fill="#527E31"/>
<path d="M230.502 16.4984C236.153 16.22 238.949 19.3597 240.192 24.5546C240.509 24.4709 240.829 24.3947 241.151 24.3264C244.872 23.5622 245.797 25.8384 246.385 28.8597C247.701 28.8211 249.317 28.6719 250.33 29.6498C251.153 30.4448 252.18 32.1021 251.208 33.109C250.286 33.5393 236.084 33.3606 233.83 33.3594C231.629 33.3662 213.628 33.6158 212.872 33.1234C212.645 32.9752 212.49 32.6942 212.459 32.4257C212.353 31.5132 213.107 30.3894 213.683 29.7336C214.642 28.6442 215.769 28.5056 217.144 28.4143C217.298 28.0033 217.461 27.5965 217.636 27.1942C218.207 25.8985 218.66 25.6078 219.919 25.1131C220.692 25.1879 221.75 25.4275 222.534 25.5812C223.054 20.6641 225.322 17.2706 230.502 16.4984Z" fill="#FEFFFD"/>
<path d="M247.691 50.0305C253.886 50.1934 257.248 53.5791 258.253 59.5085C264.159 61.0486 267.475 68.5811 264.683 73.7851C270.634 78.213 271.593 88.4256 266.546 93.9968C264.763 95.9651 264.456 94.9628 264.272 97.8515C263.963 102.705 259.195 106.622 254.515 106.928C254.075 106.958 253.521 106.544 253.574 106.029C254.226 105.257 255.912 105.041 256.897 104.692C260.51 103.41 263.941 99.2959 262.536 95.3231C263.01 94.9732 263.512 94.614 263.97 94.2497C268.915 90.3226 269.568 82.2222 265.784 77.2907C264.845 76.0672 264.014 75.322 262.865 74.3522C264.523 70.9471 264.564 67.1347 262.217 64.0333C260.654 61.9679 259.257 61.4254 256.804 61.0659C256.225 55.7608 254.212 52.269 248.492 51.6265C242.701 51.4937 238.982 55.3279 238.668 60.9968C232.728 61.3599 230.582 68.3175 233.04 73.1456C231.47 74.2784 229.991 75.4142 229.053 77.1393C226.348 82.1178 227.812 87.9911 231.776 91.8229C232.831 92.8428 233.886 93.8297 234.918 94.8628C233.587 99.8047 235.517 103.844 240.618 105.028C241.291 105.184 242.43 105.229 242.927 105.617C243.196 106.098 243.167 105.889 243.083 106.396C242.798 106.688 242.696 106.813 242.243 106.786C235.227 106.368 232.803 101.965 232.965 95.5297C231.594 93.7567 229.905 92.4515 228.562 90.5442C226.392 87.4612 225.811 83.4469 226.459 79.7864C226.985 76.8235 228.788 74.3962 231.243 72.7074C231.038 72.1196 230.866 71.5211 230.728 70.9144C229.687 66.179 232.405 60.6179 237.368 59.5496C237.782 53.8707 242.278 50.4899 247.691 50.0305Z" fill="#527E31"/>
<path d="M65.3127 46.0838C71.1741 45.6989 75.8265 49.7765 76.2544 55.6107C81.1915 57.5887 83.4638 63.1808 81.9401 68.1379C87.7566 71.8253 88.2829 82.1516 83.9946 87.0998C83.0319 88.2108 82.1809 88.8714 81.0259 89.751C82.4049 94.7216 79.4328 99.5404 74.6632 101.165C73.7131 101.489 72.7106 102.003 72.1636 100.9C72.1877 100.662 72.1511 100.437 72.3788 100.332C72.8774 100.111 73.4034 100.077 73.9249 99.8649C77.0272 98.6027 79.7887 95.7444 80.1293 92.307C80.2451 91.1393 79.9426 90.0406 79.6745 88.9147C83.823 85.8717 85.5742 82.7287 85.2158 77.4546C84.9443 73.4616 83.3259 71.2278 80.4101 68.6713C81.1342 66.2194 80.9879 63.5929 79.9959 61.2364C78.8812 58.6609 77.3177 57.6383 74.8314 56.653C74.8231 50.7311 70.2872 46.8573 64.425 47.6567C59.7304 49.0299 58.0589 52.088 58.1432 56.783C57.603 56.8938 57.0329 57.0126 56.5085 57.1816C54.7873 57.7466 53.3683 58.9835 52.5749 60.6104C51.1163 63.5487 51.7952 66.0732 52.7506 68.9663C48.3834 70.3811 46.5422 75.8886 47.1284 80.066C47.6581 83.8406 49.269 85.9451 52.1833 88.1442C51.9209 89.5001 51.5917 91.1056 51.7544 92.4819C52.2227 96.4408 55.1225 99.1028 58.9009 100.026C59.8426 100.255 61.2886 100.065 62.0217 100.569C62.1891 100.684 62.1233 100.771 62.1132 101.036C61.2376 102.288 59.721 101.942 58.4508 101.564C52.7045 99.8514 48.7801 95.0038 50.5194 88.9795C46.6589 85.526 44.9629 81.3194 45.8307 76.0518C46.4366 72.374 47.9757 70.1104 51.0113 67.9976C50.7789 67.5287 50.5539 66.9651 50.4147 66.4604C49.7744 64.1084 50.105 61.5981 51.3323 59.4914C52.5172 57.4666 54.3356 56.1866 56.5901 55.6112C56.7612 50.1481 59.9217 46.7515 65.3127 46.0838Z" fill="#527E31"/>
<path d="M66.0545 69.0461C66.4161 69.1211 66.4532 69.1516 66.7771 69.3036C67.1037 69.7735 66.8458 75.0346 66.8334 75.8942C66.7577 80.3208 66.7536 84.7483 66.8211 89.1751C68.8135 86.408 70.4363 82.883 72.2682 79.9727C72.5986 79.4479 72.6499 79.3039 73.1441 79.2039C73.576 79.4617 73.4113 79.2861 73.6234 79.7772C73.4545 81.0012 68.0165 90.3041 67.1243 91.7892C67.152 93.3809 67.336 95.2782 67.4091 96.9152L68.4342 117.029C69.4608 117.612 71.3525 118.408 70.8173 119.805C69.9091 120.326 68.7195 118.77 67.813 118.538C66.732 118.261 65.212 119.421 64.2565 119.311C62.4614 118.142 63.4523 113.714 57.4893 117.081C57.1929 115.582 56.8441 114.529 55.5646 113.544C54.5269 112.744 53.2069 112.404 51.9116 112.601C50.2172 112.854 49.1426 113.782 48.1622 115.11C47.5687 116.133 47.4891 116.896 47.3476 118.062C46.5889 117.784 45.7715 117.55 44.9951 117.313C42.6853 118.221 42.9866 119.16 41.1407 120.389C41.0232 120.468 40.8888 120.336 40.7653 120.259C40.2714 119.178 41.1508 118.057 41.9414 117.341C43.2256 116.178 44.4643 116.001 46.1493 116.082C46.5739 114.945 47.1413 113.907 47.9958 113.035C49.1879 111.796 50.8338 111.095 52.5544 111.093C55.2153 111.11 56.6037 112.436 57.9389 114.373C58.3029 114.901 59.8368 114.149 60.5664 114.202C62.0462 114.308 62.9349 115.093 63.9734 116.094C64.0042 112.838 64.3598 109.529 64.4274 106.257C64.7705 102.638 64.2599 98.3225 64.6721 94.7816C65.1572 90.6147 65.5062 88.3737 65.2577 84.0961C64.8782 83.6675 63.9208 82.4298 63.6347 81.9432C62.8514 80.6108 59.4794 76.8183 59.8055 75.4171C60.2732 75.2162 60.0342 75.2558 60.552 75.309C61.8703 76.4711 64.1322 80.4449 65.3665 82.1873C65.5243 79.398 65.3047 71.0648 66.0545 69.0461Z" fill="#527E31"/>
<path d="M65.8093 107.7C66.0161 107.198 65.913 107.229 66.2865 106.965L66.5266 107.163C66.6626 109.449 66.8097 114.891 67.1146 116.968L65.3271 117.336C65.4174 114.885 65.5735 112.482 65.6752 110.049C65.8467 109.135 65.8214 108.64 65.8093 107.7Z" fill="#E7FCD1"/>
<path d="M66.0191 99.7178C66.5019 101.068 66.4842 103.364 66.4851 104.85C66.4976 105.502 66.5529 106.544 66.5263 107.163L66.2862 106.965C65.9127 107.229 66.0157 107.198 65.809 107.7C65.8211 108.64 65.8464 109.135 65.6749 110.049C65.559 108.113 65.7004 101.422 66.0191 99.7178Z" fill="#E7FCD1"/>
<path d="M66.0191 99.7178C66.5019 101.068 66.4842 103.364 66.4851 104.85C66.3606 104.134 66.2857 103.539 66.2091 102.815L66.0894 102.806C65.6178 103.794 65.7917 106.455 65.809 107.7C65.8211 108.64 65.8464 109.135 65.6749 110.049C65.559 108.113 65.7004 101.422 66.0191 99.7178Z" fill="#87AE6E"/>
<path d="M247.641 71.8115C247.886 71.8684 248.142 71.945 248.386 72.0129C248.912 72.5837 248.696 91.2857 248.699 93.9026C249.71 92.5967 254.067 84.8033 254.552 84.477C255.04 84.4187 254.915 84.3585 255.246 84.5715C255.533 85.8218 250.026 94.5419 249.078 96.2952C249.504 98.4992 249.397 103.7 249.399 106.11C249.401 110.836 249.44 115.561 249.521 120.286C252.711 117.796 252.904 119.765 254.545 119.305C255.328 119.086 256.383 116.552 258.652 116.288C262.874 115.798 264.307 117.546 266.234 120.935C266.338 121.124 269.312 120.872 269.986 121.633C270.574 122.296 271.691 123.739 271.065 124.537C270.339 124.549 269.36 123.305 268.639 122.687C267.386 122.085 266.415 122.537 265.148 122.945C264.956 122.499 264.739 121.734 264.593 121.262C263.55 117.843 260.267 116.505 257.324 118.727C256.195 119.58 255.83 120.323 255.135 121.528C251.581 119.449 250.649 120.526 249.525 124.037C248.504 123.526 248.099 123.09 246.899 122.632C246.155 122.932 244.873 123.65 244.204 123.06C244.294 122.196 245.153 121.653 245.822 121.105C246.159 116.709 246.367 112.305 246.451 107.897C246.524 103.077 246.272 98.7551 247.14 93.9688C247.271 93.2387 247.421 86.407 247.207 85.8678C246.26 83.4967 243.09 79.7037 242.124 77.0826C242 76.7532 242.103 76.5686 242.274 76.3329L242.58 76.3787C243.863 77.2886 246.456 81.8602 247.431 83.4656C247.315 81.8422 247.022 72.7545 247.641 71.8115Z" fill="#527E31"/>
<path d="M247.292 113.914C247.284 112.186 247.333 110.477 247.375 108.752C247.411 107.347 247.072 106.678 247.776 105.341L247.979 105.216C248.426 105.87 248.244 117.352 248.12 118.917C248.14 119.67 248.21 120.858 248.112 121.57C247.739 121.732 247.94 121.712 247.49 121.539C246.783 120.693 247.304 115.474 247.292 113.914Z" fill="#87AE6E"/>
<path d="M247.292 113.914L247.667 113.516C248.37 114.22 247.941 117.706 248.12 118.918C248.14 119.67 248.21 120.859 248.112 121.57C247.739 121.733 247.94 121.712 247.49 121.539C246.783 120.693 247.304 115.474 247.292 113.914Z" fill="#E7FCD1"/>
<path d="M147.762 45.4411C150.073 45.2398 153.374 45.436 155.764 45.4246C158.545 45.4114 161.803 45.2673 164.527 45.4586L164.509 69.8582C165.571 69.8475 166.654 69.8265 167.715 69.8279L167.659 66.953C167.637 66.349 167.563 65.9929 167.876 65.5336C168.911 65.4076 170.807 65.4589 171.925 65.4593C174.254 65.4541 176.584 65.4644 178.913 65.4902C179.022 67.6479 178.954 69.8412 178.956 72.0054L179.014 80.5314C180.06 80.5273 181.493 80.4342 182.425 80.8281C182.755 81.1915 182.669 80.9801 182.666 81.4946C182.173 81.8971 178.764 81.7035 177.89 81.6845C177.935 76.6572 177.939 71.6298 177.902 66.6025C175.701 66.5258 173.194 66.567 170.963 66.5552L168.855 66.5911L168.852 71.0272C167.342 71.06 164.896 71.1577 163.411 70.9785C163.453 62.7719 163.569 54.6863 163.52 46.4528C158.804 46.4561 153.433 46.6029 148.772 46.4909L148.826 63.485C148.83 64.6247 148.907 71.9961 148.654 72.818L148.449 72.9445C147.782 72.7842 147.731 72.1948 147.728 71.5677C147.722 70.0795 147.754 68.5805 147.788 67.0912C147.947 59.9762 147.449 52.5263 147.762 45.4411Z" fill="#527E31"/>
<path d="M149.428 106.043L149.606 105.866C149.474 104.924 149.505 103.815 150.479 103.266L150.735 103.349C150.641 104.544 149.875 104.172 149.679 104.962C150.209 106.04 152.047 107.029 153.153 107.404L153.217 107.186C158.022 108.499 170.113 111.304 173.38 114.852C174.385 115.943 174.999 117.312 174.885 118.814C174.526 123.509 162.048 128.35 158.162 130.409C155.593 131.77 152.958 133.327 150.667 135.123C149.129 136.329 147.693 137.666 146.66 139.34C146.235 140.029 145.651 141.988 145.16 142.336C144.886 142.532 144.715 142.508 144.395 142.47C144.268 142.15 144.272 142.067 144.339 141.728C146.083 132.767 163.39 127.27 170.306 122.724C171.689 121.815 173.236 120.476 173.542 118.755C173.792 117.343 172.983 116.167 171.985 115.27C166.544 110.381 151.826 109.58 149.428 106.043Z" fill="#527E31"/>
<path d="M64.4517 129.593C64.6476 129.578 64.8436 129.566 65.0398 129.557C66.8332 129.479 67.606 130.097 68.8665 131.246C69.3151 131.165 69.933 130.972 70.3822 131.015C71.5815 131.13 74.2536 131.697 73.5689 133.411C72.2298 133.69 71.4495 131.246 68.5407 133.122C65.4562 129.168 63.0951 131.017 61.2839 134.443C61.2244 134.556 59.5713 134.54 59.2709 134.661C58.8971 134.813 58.5606 135.016 58.2101 135.227C57.5858 133.879 57.034 133.003 55.5428 132.451C54.3683 132.025 53.0726 132.082 51.9401 132.609C50.6995 133.192 49.9708 134.177 49.5143 135.433C49.3242 136.332 49.4965 137.027 48.8186 137.601C48.0871 137.847 47.1529 137.34 46.4123 137.046C45.3698 137.419 45.1481 137.499 44.264 138.116C43.2457 138.825 42.8013 140.378 42.0515 140.562L41.8213 140.391C40.5906 138.049 45.1609 135.333 47.8955 135.996C48.3896 133.663 49.4573 131.862 51.837 131.056C54.9199 129.978 56.7656 131.468 59.2658 132.971C60.0795 133.461 61.8824 130.752 62.7432 130.342C63.4024 130.028 63.695 129.845 64.4517 129.593Z" fill="#527E31"/>
<path d="M140.623 102.71C141.098 102.952 141.113 102.594 141.844 103.085C139.821 104.094 138.639 104.719 137.643 106.765C141.142 111.406 151.188 110.257 155.091 114.792C157.739 117.87 153.078 120.204 150.794 121.013C149.25 121.559 139.621 124.852 138.885 123.771L138.973 123.412C139.644 122.847 145.266 121.563 146.426 121.232C163.51 116.349 149.996 112.997 141.738 110.766C139.694 110.214 137.825 109.299 136.788 107.4C136.757 104.729 138.363 103.723 140.623 102.71Z" fill="#527E31"/>
<path d="M131.433 59.9923C133.359 59.8694 142.604 59.6935 143.764 60.2195C144.006 60.3295 144.033 60.3874 144.113 60.6288C144.651 62.2739 144.22 67.0789 144.228 69.0745C144.231 70.0092 144.386 70.9742 144.32 71.9035C144.293 72.2742 144.22 72.5507 144.054 72.8812C143.657 73.1271 143.839 73.0747 143.322 73.0126C142.905 72.4034 143.191 62.5763 143.208 60.9534L137.934 60.9715L132.4 60.9735C132.576 62.2739 132.516 64.9654 132.514 66.3785L132.487 75.7499C131.383 75.8764 128.42 76.089 127.686 75.1958L127.791 75.0201C128.836 74.4877 130.257 74.6412 131.428 74.6842C131.751 69.843 131.095 64.632 131.433 59.9923Z" fill="#527E31"/>
<path d="M73.0235 145.318L75.126 144.552C74.2678 145.447 73.6786 145.993 72.5687 146.564C72.0369 147.035 68.222 149.1 67.2601 149.729C61.4384 153.531 56.5695 157.452 52.2848 162.969C51.4822 164.003 49.2887 167.509 48.7312 167.926L48.4041 167.816C48.3154 167.464 48.3357 167.271 48.5083 166.932C53.1694 157.759 63.8011 149.227 73.0235 145.318Z" fill="#527E31"/>
<path d="M73.0239 145.318L75.1265 144.552C74.2682 145.447 73.679 145.993 72.5691 146.564L72.4971 146.265C72.7226 146.083 72.8967 145.961 73.1324 145.797L73.0239 145.318Z" fill="#426525"/>
<path d="M149.428 106.043C148.297 103.905 151.07 102.398 152.698 101.662C159.526 98.5804 167.554 99.0423 174.886 98.8515C176.571 98.8077 178.375 98.8285 180.022 98.9263L180.261 99.0984L180.299 99.3532C179.606 99.9383 176.138 99.6839 174.979 99.7446C167.421 100.141 158.879 99.3621 152.02 103.044C151.334 103.425 150.366 104.223 150.155 104.986C150.432 106.188 152.224 106.617 153.216 107.186L153.152 107.403C152.047 107.028 150.209 106.04 149.678 104.962C149.875 104.172 150.641 104.544 150.734 103.349L150.479 103.266C149.504 103.814 149.473 104.924 149.605 105.866L149.428 106.043Z" fill="#527E31"/>
<path d="M253.655 128.33C256.095 128.028 256.634 128.584 258.026 130.479L258.251 130.419C260.209 129.9 263.76 129.762 264.413 132.287C264.33 132.781 264.447 132.588 264.063 132.893C262.948 132.694 262.117 131.385 260.818 131.476C259.674 131.557 258.672 131.801 257.565 132.064L256.819 131.004C255.177 128.654 253.661 129.858 251.785 131.088C249.42 129.942 248.724 129.709 246.18 130.47C245.812 130.58 245.823 130.499 245.563 130.316L245.586 130.003C247.164 127.93 249.577 128.621 251.632 129.418C252.405 128.896 252.795 128.719 253.655 128.33Z" fill="#527E31"/>
<path d="M180.675 20.2865C181.52 20.2134 183.273 20.1683 183.875 20.893L183.781 21.1766C183.042 21.8208 181.999 21.3576 180.715 21.7968C178.32 22.6156 177.605 24.7582 176.526 26.8533C175.116 24.9337 174.991 23.997 172.761 22.7604C172.146 22.5389 171.682 22.536 171.071 22.4136C170.246 22.2482 169.043 22.8955 168.537 22.1559L168.643 21.8372C170.815 19.5644 174.254 21.6353 175.961 23.2577C176.212 23.4965 176.419 23.1693 176.617 22.9204C177.834 21.3818 178.732 20.8782 180.675 20.2865Z" fill="#527E31"/>
<path d="M249.834 141.842C252.502 142.681 262.219 145.863 263.738 147.769L263.725 148.006C263.159 148.255 262.429 147.971 261.873 147.762C261.161 147.493 260.206 146.858 259.545 146.573C257.527 145.706 251.516 143.048 249.71 142.783C249.885 142.724 250.043 142.621 250.208 142.528L250.251 142.298L249.834 141.842Z" fill="#527E31"/>
<path d="M131.782 99.4759C134.142 99.3536 137.24 99.4683 139.586 99.8589C140.472 100.006 140.875 100.152 141.32 100.85C140.565 100.84 131.911 99.9587 131.815 99.9056L131.782 99.4759Z" fill="#426525"/>
<path d="M249.71 142.783C248.634 142.481 246.572 142 245.767 141.307L245.885 141.133C247.318 141.045 248.466 141.453 249.834 141.842L250.251 142.298L250.207 142.528C250.042 142.621 249.885 142.724 249.71 142.783Z" fill="#426525"/>
<path d="M169.169 74.9663C169.433 75.01 169.869 75.0235 169.992 75.1846C170.464 75.7995 170.246 77.6209 170.217 78.3929C169.858 78.3275 169.494 78.3423 169.305 78.0754C168.886 77.4825 169.123 75.7501 169.169 74.9663Z" fill="#426525"/>
<path d="M140.623 102.71C141.59 101.995 143.228 101.344 144.442 101.224L144.709 101.327C144.444 102.002 142.558 102.753 141.844 103.085C141.113 102.594 141.098 102.952 140.623 102.71Z" fill="#426525"/>
<path d="M153.298 52.5563C154.832 52.8995 154.452 54.1374 154.094 55.3404C152.591 55.0772 153.017 53.6824 153.298 52.5563Z" fill="#426525"/>
<path d="M153.289 58.488C154.77 58.6826 154.277 60.2461 154.12 61.3165C152.678 61.0083 152.942 59.6362 153.289 58.488Z" fill="#426525"/>
<path d="M157.908 52.7221C158.373 52.752 158.455 52.7211 158.782 53.0089C159.147 53.8166 158.941 54.5522 158.822 55.4421C158.418 55.4129 158.404 55.4367 158.044 55.2221C157.548 54.4206 157.785 53.6859 157.908 52.7221Z" fill="#426525"/>
<path d="M158.443 58.4736C159.416 58.9073 159.257 60.7848 158.534 61.4346C157.607 60.8692 157.615 59.1608 158.443 58.4736Z" fill="#426525"/>
<path d="M139.045 72.3252C139.449 72.3178 139.618 72.2706 139.945 72.502C140.32 73.206 140.118 74.1077 140.051 74.9521C138.502 74.7997 138.932 73.5331 139.045 72.3252Z" fill="#527E31"/>
<path d="M138.19 66.2528L138.768 66.3672C139.332 66.9746 139.118 68.2117 138.837 68.915C137.696 68.3612 137.794 67.3056 138.19 66.2528Z" fill="#426525"/>
<defs>
<filter id="filter0_f_2628_100827" x="-0.00019455" y="2.14061" width="151.118" height="151.117" filterUnits="userSpaceOnUse" color-interpolation-filters="sRGB">
<feFlood flood-opacity="0" result="BackgroundImageFix"/>
<feBlend mode="normal" in="SourceGraphic" in2="BackgroundImageFix" result="shape"/>
<feGaussianBlur stdDeviation="27.4" result="effect1_foregroundBlur_2628_100827"/>
</filter>
<filter id="filter1_f_2628_100827" x="146.432" y="1.20232" width="184.199" height="184.199" filterUnits="userSpaceOnUse" color-interpolation-filters="sRGB">
<feFlood flood-opacity="0" result="BackgroundImageFix"/>
<feBlend mode="normal" in="SourceGraphic" in2="BackgroundImageFix" result="shape"/>
<feGaussianBlur stdDeviation="27.4" result="effect1_foregroundBlur_2628_100827"/>
</filter>
<filter id="filter2_f_2628_100827" x="55.367" y="74.7476" width="184.199" height="184.199" filterUnits="userSpaceOnUse" color-interpolation-filters="sRGB">
<feFlood flood-opacity="0" result="BackgroundImageFix"/>
<feBlend mode="normal" in="SourceGraphic" in2="BackgroundImageFix" result="shape"/>
<feGaussianBlur stdDeviation="27.4" result="effect1_foregroundBlur_2628_100827"/>
</filter>
<filter id="filter3_f_2628_100827" x="35.3455" y="-1.14441e-05" width="177.403" height="177.087" filterUnits="userSpaceOnUse" color-interpolation-filters="sRGB">
<feFlood flood-opacity="0" result="BackgroundImageFix"/>
<feBlend mode="normal" in="SourceGraphic" in2="BackgroundImageFix" result="shape"/>
<feGaussianBlur stdDeviation="27.4" result="effect1_foregroundBlur_2628_100827"/>
</filter>
<filter id="filter4_f_2628_100827" x="147.882" y="49.4976" width="177.299" height="177.176" filterUnits="userSpaceOnUse" color-interpolation-filters="sRGB">
<feFlood flood-opacity="0" result="BackgroundImageFix"/>
<feBlend mode="normal" in="SourceGraphic" in2="BackgroundImageFix" result="shape"/>
<feGaussianBlur stdDeviation="27.4" result="effect1_foregroundBlur_2628_100827"/>
</filter>
</defs>
</svg>
