<svg width="185" height="185" viewBox="0 0 185 185" fill="none" xmlns="http://www.w3.org/2000/svg">
<path d="M102.65 21.0676C103.813 21.7092 103.527 22.8186 103.481 23.9836C105.325 23.9174 107.804 24.0565 109.723 24.0763C112.898 24.0794 116.073 24.0529 119.247 23.9969C119.195 23.0544 118.99 21.9802 119.88 21.3941C121.027 21.5493 120.726 23.0926 120.683 23.9715C123.672 23.9505 127.957 23.2992 128.127 27.4871C128.284 31.357 128.056 35.2253 128.039 39.0927L128.045 47.6603C128.047 49.2858 128.049 50.8549 127.984 52.4784C127.862 55.5398 126.048 55.8565 123.416 55.8636L106.054 55.8617C103.102 55.867 100.08 55.9606 97.1523 55.7368C96.2018 55.664 94.9764 54.5736 94.8841 53.6667C94.6313 51.1844 94.7545 48.4225 94.7579 45.9383L94.6637 33.8144C94.6521 31.5416 94.653 28.8616 94.9265 26.6059C95.3209 23.3525 99.6999 23.9629 102.173 23.9671C102.031 22.7952 102.034 22.0634 102.65 21.0676ZM126.633 33.5379C121.192 33.7485 114.881 33.4963 109.348 33.5472C105.852 33.5794 99.332 33.7906 96.031 33.5382L96.0512 33.7183C96.1957 35.0831 96.1368 37.5037 96.1402 38.9624L96.1519 48.2977C96.1443 55.1107 95.5807 54.4331 102.478 54.4277L111.299 54.4187L119.487 54.4133C127.389 54.4343 126.4 55.4413 126.673 48.0661C126.769 49.1545 126.741 50.3901 126.828 51.541C127.047 51.2905 126.963 50.8755 127.003 50.4165C127.162 50.6344 127.178 50.6816 127.398 50.8485C128.032 49.6074 128.142 38.4995 127.617 37.2214C127.257 36.9146 127.441 36.9826 126.959 36.9834L126.667 37.2825L126.633 33.5379ZM96.1818 32.2613C99.073 32.075 102.727 32.3037 105.712 32.2453C112.586 32.1112 119.733 32.1351 126.616 32.2563C126.626 30.7628 126.655 29.233 126.643 27.743C126.422 24.303 123.14 25.5683 120.641 25.4106C120.68 26.5928 120.864 27.4294 120.234 28.4162L119.96 28.5376C119.081 27.8951 119.315 26.3696 119.442 25.4068C114.225 25.3756 108.639 25.5048 103.488 25.379C103.546 26.5322 103.756 27.5384 103.099 28.4796L102.831 28.5701C101.974 28.0631 102.123 26.3462 102.114 25.444C100.529 25.371 99.1289 25.3807 97.5391 25.4058C95.9876 26.0186 96.0771 27.3134 96.0766 28.7926C96.0762 29.9399 96.1413 31.113 96.1818 32.2613ZM126.735 41.1451L126.753 41.0782C126.957 40.3973 126.951 38.9113 127.107 38.005C128.383 41.0349 127.656 46.4614 127.287 49.7168C126.386 46.6615 127.265 42.9175 126.735 41.1451Z" fill="#356516"/>
<path d="M109.906 36.5946C110.871 36.5909 112.875 36.4549 113.682 36.6911C114.341 37.4092 113.916 40.5111 113.256 41.1357C112.971 40.7035 112.983 38.554 112.999 37.9735C111.818 37.8831 110.594 37.8656 109.406 37.8307C109.351 39.361 109.4 41.023 109.417 42.5641C110.556 42.8489 113.877 42.0132 114.252 43.3214C113.73 44.1867 109.329 44.1616 108.475 43.8542C108.175 43.102 108.113 37.4705 108.433 36.8247C108.907 36.5361 109.336 36.5987 109.906 36.5946Z" fill="#356516"/>
<path d="M113.382 45.7968C114.399 46.6028 114.11 49.842 113.96 51.0796C112.261 51.156 110.112 51.0685 108.334 51.1056C108.227 49.7742 108.102 49.199 108.248 47.8438C108.252 47.6979 108.258 47.5521 108.266 47.4063C108.3 46.7719 108.327 46.4302 108.797 46.0087L109.157 46.0549C109.915 46.8104 109.204 48.6154 109.606 49.6608C110.028 49.8 112.404 49.7747 112.996 49.7797C112.958 48.5928 112.712 46.6695 113.382 45.7968Z" fill="#356516"/>
<path d="M118.408 37.9851C118.412 38.0673 118.415 38.1496 118.417 38.232C118.434 38.9233 118.448 40.7693 117.996 41.2382C117.127 40.7353 116.819 37.6898 117.325 36.8236C117.966 36.3459 121.569 36.63 122.539 36.6555L122.618 38.3607C122.631 39.0982 122.734 40.3458 122.393 40.9444C122.009 41.1133 122.163 41.0772 121.666 40.9306C121.414 40.0198 121.434 38.7554 121.421 37.7949C120.339 37.9459 119.485 37.9683 118.408 37.9851Z" fill="#356516"/>
<path d="M121.666 40.9306C121.673 40.1392 121.463 39.273 122.224 38.9466L122.148 39.0806L122.389 39.012L122.618 38.3607C122.631 39.0982 122.735 40.3458 122.394 40.9444C122.01 41.1133 122.163 41.0772 121.666 40.9306Z" fill="#356516"/>
<path d="M104.819 45.929C105.398 46.3692 105.438 50.2264 104.996 50.8238C103.95 51.1157 101.198 51.1157 100.122 50.8797C99.6851 50.363 99.9118 48.6615 99.9521 47.9071C99.9762 47.3586 99.9847 47.0798 100.099 46.5289L100.453 46.3628L100.292 46.1251L100.17 46.326L100.446 46.273C100.94 46.8816 100.926 48.9617 100.939 49.7712L104.366 49.7774C104.266 48.5824 103.925 46.8318 104.819 45.929Z" fill="#356516"/>
<path d="M100.351 40.8029C101.403 41.3693 100.647 41.8025 101.161 42.5225C101.815 42.6732 103.594 42.6153 104.277 42.5271C104.317 41.9294 104.242 41.1348 104.765 40.8042L105.05 40.9019C105.296 41.2396 105.265 42.471 105.283 42.972L105.285 43.4347C104.704 44.3959 101.184 44.1517 100.258 43.5579C99.3532 42.9778 99.8246 41.4434 100.351 40.8029Z" fill="#356516"/>
<path d="M117.273 45.9779C118.587 45.9621 120.499 45.9105 121.75 46.0824C122.375 46.1911 122.214 46.0842 122.632 46.4192C122.652 46.8322 122.689 46.6688 122.429 47.0399C121.273 47.1079 119.601 47.044 118.329 47.0846C118.336 47.8861 118.492 50.5179 117.863 51.0451L117.637 50.9176C117.098 49.7883 117.18 47.2581 117.273 45.9779Z" fill="#356516"/>
<path d="M121.749 46.0823C122.374 46.1911 122.213 46.0842 122.631 46.4192C122.651 46.8322 122.688 46.6688 122.428 47.0399C121.398 46.8996 119.605 46.9117 118.808 46.4609L118.917 46.2845C119.498 46.0966 120.854 46.1934 121.749 46.0823Z" fill="#356516"/>
<path d="M117.365 42.5559C118.511 42.608 121.887 42.2374 122.554 42.9925C122.671 43.5727 122.67 43.3329 122.468 43.9599C121.505 43.8591 117.73 44.0468 117.243 43.7226C117.111 43.304 117.25 42.995 117.365 42.5559Z" fill="#356516"/>
<path d="M114.393 26.7977C118.076 26.6405 117.047 27.3762 117.04 30.1574C117.039 30.3957 117.447 31.5598 117.554 31.8709C116.977 31.3484 116.847 31.222 116.406 30.5856C116.113 30.0113 115.974 29.5436 115.299 29.4174C114.86 29.8625 114.992 30.5196 114.605 31.2437L114.422 31.1375C114.113 30.4681 114.152 27.5644 114.393 26.7977ZM116.29 28.8732C116.515 28.5104 116.518 28.4599 116.479 28.0334C116.184 27.5135 115.875 27.4159 115.302 27.311C115.049 27.7546 114.886 27.9357 114.904 28.4416C115.312 28.8731 115.631 28.8069 116.29 28.8732Z" fill="#356516"/>
<path d="M110.31 26.7812C111.085 26.7626 112.26 26.6659 112.81 27.2237C114.655 29.0946 112.452 29.6527 110.973 29.5884C111.015 30.1551 111.062 30.9666 110.69 31.423L110.439 31.3484C109.911 30.6048 110.237 27.7838 110.31 26.7812ZM112.342 28.8337C112.6 28.4097 112.561 28.6006 112.531 28.1217C112.21 27.5819 111.761 27.4221 111.171 27.2848C111.009 27.8237 110.923 28.0362 110.929 28.6145C111.323 29.2202 111.709 28.9881 112.342 28.8337Z" fill="#356516"/>
<path d="M107.395 26.5343C107.638 26.5873 107.659 26.643 107.855 26.8069C108.199 27.9492 109.279 30.1077 109.197 31.1209L108.977 31.1889C108.503 30.951 108.298 30.4995 108.027 30.0427C106.561 30.2287 106.566 30.4118 105.522 31.4682C105.875 29.7597 106.484 28.0219 107.395 26.5343ZM107.735 29.826C107.986 29.1058 108.09 28.4939 107.343 28.0961C107.175 28.7581 107.044 28.8434 107.194 29.4224C107.381 29.5689 107.535 29.6947 107.735 29.826Z" fill="#356516"/>
<path d="M126.667 37.2824L126.958 36.9834C127.441 36.9825 127.257 36.9145 127.617 37.2214C128.142 38.4994 128.032 49.6073 127.397 50.8485C127.178 50.6815 127.162 50.6343 127.003 50.4164C126.962 50.8754 127.047 51.2904 126.828 51.541C126.741 50.3901 126.769 49.1544 126.673 48.066C126.651 46.1805 126.556 42.9473 126.735 41.145C127.264 42.9175 126.385 46.6614 127.287 49.7168C127.656 46.4614 128.383 41.0349 127.107 38.0049C126.95 38.9112 126.957 40.3972 126.753 41.0782C126.619 40.3334 126.666 38.1526 126.667 37.2824Z" fill="#356516"/>
<path d="M127.107 38.0049C128.383 41.0349 127.656 46.4614 127.287 49.7168C126.386 46.6614 127.265 42.9175 126.735 41.145L126.753 41.0782C126.957 40.3973 126.951 38.9112 127.107 38.0049Z" fill="#356516"/>
<path d="M27.9111 41.4601C28.9405 41.4031 28.9615 41.3698 29.8525 41.9923L29.9473 42.0597L30.3486 41.8185C31.7358 43.2659 32.2011 44.1734 32.3984 46.1974C32.9836 45.8729 34.2756 45.1163 34.8145 44.8888C35.5141 44.4989 35.8332 44.4106 36.6074 44.171C37.3765 45.1093 38.7839 44.5485 39.8086 44.6983C37.9695 45.0816 36.5206 45.8546 35.0127 46.2227C21.796 52.1098 14.1481 75.7139 30.8467 82.6876C35.2148 84.5114 38.1632 80.6342 39.8232 77.1866C38.5076 75.3059 37.9501 73.4966 38.2744 71.1515C38.7719 67.5544 42.8984 64.8304 45.4268 68.4962C45.7013 68.8942 46.0325 69.5085 46.084 69.9981L45.9258 70.1847C44.827 70.1183 43.5774 68.5665 42.1973 67.9444C41.0247 68.5779 40.0369 69.2333 39.6553 70.6231C39.3207 71.8417 39.4391 73.6185 39.9873 74.7921C40.6863 76.2874 43.4969 76.7455 43.9395 77.7227C43.5306 78.4609 41.5164 78.1426 40.7578 78.0333C39.6154 81.2692 37.7226 82.9821 34.6768 84.4923C34.5416 84.8786 34.3403 85.4119 34.25 85.8077C33.3268 89.8495 32.0397 92.8711 29.3086 96.0157C33.4689 98.4362 37.3657 101.305 41.3779 103.895C42.8619 104.852 46.6068 106.838 47.7422 104.775C48.1752 104.07 48.3221 101.883 47.7441 101.205C47.5827 101.041 46.8922 101.298 46.3682 100.985C45.9093 99.6061 50.0245 89.3601 51.0049 88.877C52.8068 88.9462 57.866 91.6511 60.5039 89.5128C61.3989 88.7872 61.7689 85.87 62.2637 84.506C61.0622 84.3341 57.8806 83.7483 58.1309 82.127C59.0623 81.3068 61.1787 83.9995 62.7285 82.9806C63.6247 81.808 62.848 80.1607 64.1113 78.252C65.4248 77.703 66.1981 77.4605 67.2539 76.4874C65.2168 73.7866 63.1129 71.0047 63.7812 67.5489C64.536 63.6466 64.2999 60.6602 62.3613 57.1886C61.9734 56.4938 61.6115 55.8022 62.209 55.2276C63.4486 55.323 65.0851 59.0769 65.2393 60.2608C65.2962 60.6994 65.413 61.6755 65.8301 61.8692C66.4147 61.3537 66.5335 59.7133 66.5811 58.9737C66.73 56.6551 66.2654 54.0686 64.6396 52.3097C62.891 50.3507 61.1994 50.0214 58.9912 48.9532C58.4719 48.7021 57.459 47.9053 56.96 47.5216C57.3869 47.3666 57.5555 46.7164 57.6992 46.3145C58.532 46.7382 60.1103 48.0214 60.5234 48.1974C64.0759 49.7097 65.9203 50.509 67.2793 54.4464C68.662 58.4522 67.8945 60.9246 65.8135 64.4561C65.2701 66.0649 64.6538 68.7619 65.1895 70.3653C65.8466 72.332 67.1683 73.7597 68.1201 75.4747C69.457 77.8843 66.7262 78.9528 64.9238 79.4767C64.1372 83.5505 64.0065 84.6351 62.2998 88.6856C75.4724 95.3653 70.9113 100.111 74.6582 111.43C75.0613 111.573 75.5124 111.731 75.8086 112.051C77.0961 113.443 79.1765 118.624 78.5234 120.468L78.3086 120.501C77.4387 119.672 75.9327 115.266 75.4062 113.828C71.7505 116.081 69.8741 116.839 65.4121 116.416C66.189 120.382 66.5282 124.424 67.1338 128.433C67.5977 131.504 68.1498 134.527 68.3701 137.62C71.4895 136.433 76.0359 134.751 77.3555 131.62C77.8871 130.359 78.3782 126.829 78.9277 125.943C79.5886 124.135 80.7927 121.815 82.3066 120.545C83.5279 119.013 85.4892 115.759 87.002 114.742C87.6135 114.332 89.139 114.729 89.4277 114.316C91.7722 110.955 93.4147 102.746 96.5117 100.575C99.6744 100.205 103.285 100.49 106.485 100.441C108.103 100.417 109.853 101.387 109.202 103.301C107.856 107.261 105.666 111.042 104.292 114.99C105.446 116.574 105.275 116.992 104.794 118.799L104.498 119.76C103.999 120.714 103.675 121.208 103.073 122.081C103.08 122.387 103.124 123.799 103.036 124.051C102.368 125.944 101.721 128.031 100.85 129.831C100.525 130.503 98.9629 131.435 98.5381 132.135C98.004 133.015 98.07 134.071 97.4316 134.868C94.7683 138.143 90.632 139.197 87.4258 141.091C88.7783 144.044 88.5171 149.552 86.9521 152.362C87.0117 152.36 87.0712 152.355 87.1309 152.353L86.2686 153.885C86.2525 153.887 86.2366 153.89 86.2207 153.892C85.3255 154.664 84.3286 155.567 83.2412 156.036C79.8079 157.515 75.0499 156.535 71.6113 155.532C67.8683 158.599 63.6883 162.408 59.958 165.238C60.0435 165.285 60.1316 165.328 60.2197 165.374L59.3086 166.467C59.1362 166.39 58.9612 166.314 58.7861 166.233C57.7124 166.728 56.7745 167.498 55.7773 168.098C53.8498 169.254 51.3224 170.853 49.2246 171.636C45.6362 172.975 41.2913 173.213 37.7842 171.547C33.9622 169.731 31.1866 166.567 28.9102 163.083C28.2431 162.061 27.5581 161.184 27.1318 160.039C27.399 158.783 24.6289 155.562 24.3271 153.654C24.5233 153.605 24.4218 153.616 24.6533 153.706C24.6274 153.439 24.6139 153.441 24.6816 153.185L24.96 153.267C25.133 153.664 25.1858 153.776 25.5566 154.007C26.3072 154.942 26.5878 156.193 27.2295 157.266C30.6595 163 33.647 169.079 40.6064 171.011C44.9233 172.209 50.1955 169.89 53.877 167.767C55.2346 166.983 57.7668 165.007 59.0635 164.017C63.0513 160.992 66.9068 157.796 70.6191 154.439C72.0699 153.122 73.3134 151.64 74.8945 150.471C75.6643 149.901 76.641 149.149 76.8809 148.185C76.5933 147.163 72.0037 138.892 71.2871 137.935C70.5773 138.302 69.8589 138.598 69.1416 138.942C64.0892 141.369 59.32 144.058 54.1738 146.31C54.6051 145.823 54.8702 144.891 55.1699 144.703L54.9766 144.569C55.4049 144.201 58.7015 142.625 59.7109 141.972L60.2334 139.904L60.4199 140.131C60.7633 139.468 60.9011 138.588 61.3506 138.203L61.5752 138.265L61.7715 138.9C61.687 139.795 61.5402 140.31 61.2451 141.167C62.3321 140.725 66.3469 139.096 66.9199 138.312C67.3522 136.767 64.9095 122.771 64.1963 120.808C62.1734 115.242 58.459 108.038 53.5771 104.353C52.2419 103.345 50.564 102.51 49.3057 101.387C49.4783 102.84 49.6094 104.69 48.623 105.91C48.0716 106.593 47.322 106.912 46.4668 106.989C41.7002 107.423 32.6762 99.0017 27.4561 97.004C19.9463 99.8661 14.4466 104.095 10.9805 111.555C9.05005 115.709 8.63314 119.498 7.92383 123.928C6.82914 130.802 6.07301 137.726 5.65918 144.674L4.88281 156.98C4.74785 159.128 4.66975 161.612 4.44043 163.72C4.31459 163.252 4.30968 161.919 4.30176 161.379L4.0957 161.246C3.88081 161.469 3.94711 161.692 3.92969 162.076L3.75977 162.018C3.73896 161.558 3.7251 161.215 3.65332 160.756C3.56254 161.23 3.46754 161.703 3.36816 162.177C3.41681 152.834 4.3503 143.18 5.21973 133.882C5.84574 126.789 6.74136 119.123 9.05566 112.389C11.7586 104.523 18.3677 99.1874 25.8105 96.0411C27.492 95.2256 28.5649 94.9167 29.6514 93.3956C31.6234 90.6345 32.0017 87.5433 33.4043 84.6788C28.9611 84.2314 25.0703 81.3723 22.4922 77.7608C19.024 72.9026 19.4435 65.0051 21.373 59.63C23.1908 54.5667 27.0156 49.5978 31.4268 46.5069C30.8371 44.8081 30.4901 44.4207 29.4336 43.002C29.4704 42.8727 29.5994 42.4599 29.5527 42.3741C29.3836 42.065 28.2052 41.4565 27.9111 41.4601ZM85.8438 141.564C84.461 142.173 79.1341 146.256 78.2285 147.314C78.2808 147.978 78.4363 149.187 77.9248 149.637C76.4785 150.907 73.7717 153.523 72.3467 154.599L74.3457 154.877C76.8479 155.303 81.489 155.911 83.6318 154.31C87.1319 151.693 87.6785 145.617 86.0859 141.764C86.0467 141.669 85.9224 141.612 85.8438 141.564ZM88.5898 115.499C86.7332 116.582 86.0478 117.997 84.7109 119.628C83.1056 121.587 81.3401 123.46 80.4082 125.853C79.465 128.237 78.9305 131.642 77.6572 133.804C76.9092 135.074 74.0262 136.721 72.6816 137.516C73.3806 138.657 74.0937 139.856 74.7715 140.996C75.4817 142.191 76.6226 145.076 77.5586 145.838C78.5047 145.636 80.7256 143.337 81.5488 142.597C86.0815 138.521 92.4744 138.909 96.4854 133.785C96.4433 133.123 96.2884 131.933 96.7988 131.544C97.7492 130.82 99.7686 129.587 100.111 128.316C99.2604 128.264 97.7108 129.945 96.7012 129.622C96.564 128.87 97.0654 128.381 97.6621 127.999C100.382 126.262 101.441 126.462 101.786 123.033C100.704 123.877 97.3639 126.446 96.0801 126.396L95.8252 126.207C95.8801 124.351 101.836 122.993 103.368 118.993L103.828 117.233C103.726 116.622 103.838 116.718 103.48 116.35C102.619 116.526 100.829 118.834 99.9902 119.537C97.2846 121.837 93.6201 123.103 90.2705 124.101C89.5758 124.307 85.2315 125.257 85.4883 123.908C86.0456 120.982 88.147 118.655 88.5898 115.499ZM88.7471 119.935C88.1106 120.892 87.7472 122.007 87.2314 123.047L87.3408 123.244C87.7858 123.133 88.2201 123.123 88.4062 122.74C88.7721 121.987 88.8607 121.09 88.958 120.278C88.8604 120.044 88.9177 120.087 88.7471 119.935ZM107.954 102.123C105.906 101.934 99.9736 101.83 97.8965 101.988C97.3599 102.121 96.545 102.267 96.3057 102.81C94.4437 107.031 91.9339 111.543 90.6475 115.952C90.7374 116.188 91.0152 116.912 90.9795 117.116C90.6931 118.754 89.9573 121.248 89.4453 122.815C91.3466 122.314 94.8269 121.248 96.4619 120.15C102.857 116.177 103.381 112.884 106.317 106.461C106.934 105.112 107.568 103.549 107.954 102.123ZM51.416 90.4483C50.708 92.0541 48.1684 97.7011 48.2334 99.1612C48.4855 99.5134 51.554 101.13 52.1807 101.494C54.5896 102.894 56.6971 105.076 58.499 107.19C60.6594 109.724 61.9159 113.029 63.4873 115.958C64.0577 116.152 63.8383 116.161 64.3398 115.988C65.3923 114.774 64.4527 111.15 63.0293 110.472C62.3589 110.152 61.2497 108.923 60.6582 108.412C59.8954 107.287 59.3279 105.849 58.7139 104.613C57.7017 102.578 55.7749 100.338 55.4707 98.0919C54.6165 97.6181 54.0462 97.3951 53.7461 96.3722C53.2986 94.8462 54.7081 92.5943 55.4365 91.1466C53.7473 91.0917 53.1075 90.9331 51.416 90.4483ZM61.9854 90.2472C59.4797 91.507 53.8238 91.9188 54.9668 96.2276L55.1973 96.4972C55.5076 96.4506 55.7205 96.3513 55.8721 96.0665C56.7735 94.3729 57.7634 93.0394 59.7705 92.6427C60.3266 92.5327 61.6297 92.2598 62.1572 92.6202C62.2617 93.7272 58.7489 94.3321 57.9482 95.4405C57.1483 96.5484 56.642 98.404 57.1455 99.6456L57.333 99.628C57.95 98.7632 58.1337 97.5911 58.5879 96.5772C59.616 95.851 62.1465 94.3886 63.377 95.0753L63.4121 95.3399C62.1946 96.8143 58.3386 96.6898 58.5898 101.133C58.6187 101.641 58.7912 102.295 59.1934 102.637C60.0052 102.352 60.0037 99.4984 60.6318 98.7589C61.4226 97.8289 64.2676 96.9708 65.1777 97.7696C65.1524 98.6776 62.3659 98.9868 61.373 99.6436C61.0747 100.379 60.2459 103.535 61.7324 103.895C62.0825 103.979 62.2147 103.881 62.4746 103.673C62.7943 102.712 62.805 102.198 63.2178 101.215C64.249 100.911 65.4931 100.32 66.3301 101.241C66.432 101.948 64.3596 106.07 65.166 107.823C65.9301 109.484 66.9781 110.063 67.5928 111.102C67.0522 111.724 66.1318 111.261 65.4658 110.991C65.9925 112.583 66.1466 113.493 66.3252 115.176C68.4717 115.345 69.986 115.103 71.9746 114.227C72.4482 114.018 73.1876 113.63 73.3789 113.13C73.3171 111.872 72.8315 110.229 72.5889 108.944C71.8211 104.88 71.4466 100.214 69.7578 96.419C68.7457 94.1448 64.3083 91.2263 61.9854 90.2472ZM59.6865 104.435C60.3979 105.808 63.2184 109.577 64.5742 110.15C64.6792 110.008 64.7186 109.994 64.7627 109.838C63.7985 108.063 63.538 106.662 63.873 104.638C62.7175 104.98 62.0631 105.193 60.8574 104.83C60.5283 104.731 59.9882 104.482 59.6865 104.435ZM64.168 102.304C63.8056 102.667 63.641 102.695 63.6143 103.111C63.7927 103.245 63.8366 103.294 64.0322 103.392C64.4002 102.985 64.4399 103.076 64.4893 102.637L64.168 102.304Z" fill="#356516"/>
<path d="M34.8148 44.889C35.5145 44.4991 35.8328 44.4102 36.6071 44.1706C37.3762 45.1094 38.7835 44.5486 39.8084 44.6985C37.9692 45.0818 36.5211 45.8551 35.0132 46.2232L34.7818 46.0647C34.7457 45.5983 35.3643 45.8923 35.6876 45.3686L35.4025 45.033C35.2069 45.0849 35.051 44.9755 34.8148 44.889Z" fill="#356516"/>
<path d="M78.9268 125.944C79.5877 124.135 80.7921 121.815 82.3064 120.545L82.3673 120.895C81.5773 121.865 79.7174 124.709 79.2405 125.82L78.9268 125.944Z" fill="#356516"/>
<path d="M103.827 117.234C103.891 116.956 103.901 117.049 104.035 116.815C104.391 117.379 104.264 116.894 104.419 117.146C104.655 117.53 104.757 118.396 104.794 118.799L104.498 119.76C104.093 119.43 103.856 119.204 103.368 118.994L103.827 117.234Z" fill="#356516"/>
<path d="M97.6126 102.766C99.2629 102.777 99.6482 104.238 98.2882 104.957C97.6024 104.961 97.2797 105.02 96.788 104.565C96.4136 103.652 96.906 103.278 97.6126 102.766Z" fill="#356516"/>
<path d="M60.0841 54.5475C60.6787 54.7648 60.9775 55.2649 60.7839 55.9079C59.1563 61.3151 54.0308 66.3899 48.5415 67.9584C48.0797 67.8081 47.9755 67.7025 47.9092 67.2488C48.3023 66.5241 49.8009 66.1155 50.5381 65.7037C53.823 63.8686 56.4668 61.7797 58.2334 58.3665C58.6868 57.4903 59.5443 55.0348 60.0841 54.5475Z" fill="#356516"/>
<path d="M60.2675 68.1572C60.5182 68.1868 60.5718 68.2457 60.7881 68.3763C61.3828 69.3384 61.229 70.9815 60.3263 71.7105C60.0763 71.6283 60.0281 71.5909 59.8012 71.4697C59.0713 70.4911 59.596 69.032 60.2675 68.1572Z" fill="#356516"/>
<path d="M142.341 45.555C142.82 45.1507 142.814 45.0059 143.328 44.9949L143.793 45.3154C143.477 46.6116 143.086 48.4486 142.693 49.6807C140.865 56.8872 134.563 63.7403 128.257 67.4847C120.809 71.8704 111.931 73.1383 103.553 71.0128C100.076 70.1256 97.7131 69.1307 94.6404 67.3822C92.127 68.4266 83.8441 72.3497 81.5187 72.1595L81.2512 72.0117C80.9819 70.9222 83.6895 65.0367 84.3918 63.8975C85.1707 63.1623 85.0465 62.2544 85.628 61.8655L86.0502 61.912C86.2174 62.1789 86.153 62.1275 86.0814 62.5431C85.7171 62.9766 85.5863 62.9721 85.5878 63.4397L85.8426 63.8614C84.7259 66.4341 84.2339 68.313 82.5813 70.6055C84.1998 70.0564 85.6346 69.6507 87.2578 69.0242C89.4607 68.1742 92.6294 66.3992 94.8012 65.9025C96.7674 66.5247 99.1509 68.1065 101.309 68.841C107.731 71.0272 116.162 71.1111 122.478 68.6494C131.515 65.1271 137.392 58.8898 141.002 49.987C141.682 48.5322 141.967 47.1057 142.341 45.555Z" fill="#356516"/>
<path d="M142.341 45.555C142.82 45.1507 142.814 45.0059 143.328 44.9949L143.793 45.3154C143.477 46.6116 143.086 48.4486 142.693 49.6807C142.52 49.0049 142.455 49.1643 142.663 48.5952C142.263 48.3928 142.473 48.4335 142.006 48.4987C141.603 49.138 141.665 49.5083 141.163 49.9705L141.002 49.987C141.682 48.5322 141.967 47.1057 142.341 45.555Z" fill="#356516"/>
<path d="M15.8365 55.6372C11.2393 49.3094 15.7744 40.5105 23.2307 39.7405C25.7835 39.4805 28.3371 40.2258 30.349 41.8183L29.9472 42.0596L29.8528 41.9922C28.9615 41.3695 28.9406 41.4032 27.9107 41.4602C28.204 41.456 29.3833 42.0648 29.5526 42.3741C29.5995 42.4596 29.4705 42.8735 29.4338 43.0025C27.6185 41.5585 25.5287 40.9242 23.2122 41.1879C20.8333 41.4656 18.6639 42.6823 17.1867 44.5675C15.6592 46.5222 15.1248 49.1209 15.3968 51.5569C15.5106 52.5764 16.0175 54.1658 17.0947 54.536C18.2683 54.2421 18.0301 52.9587 18.7898 52.5454C19.9921 53.279 19.1408 54.8198 18.5668 55.6883C18.4686 55.8365 18.3687 55.9834 18.2668 56.1292C17.4125 56.5508 16.7726 56.8854 15.9449 57.3744C16.9563 57.7485 17.583 57.9623 18.6376 58.23C19.1641 58.417 19.7364 58.553 20.0802 58.9806L20.1693 59.3185C19.6498 59.8695 19.036 59.6648 18.3292 59.5752C16.2928 58.8426 12.9014 57.9769 15.8365 55.6372Z" fill="#356516"/>
<path d="M18.3291 59.5752C18.0898 59.0183 18.0013 58.9217 18.1567 58.4506L18.6375 58.23C19.164 58.417 19.7364 58.5529 20.0801 58.9806L20.1692 59.3185C19.6498 59.8695 19.036 59.6648 18.3291 59.5752Z" fill="#356516"/>
<path d="M83.7819 21.3081C84.4142 22.0836 84.917 21.2445 85.3782 21.4571C81.0987 29.2448 79.7797 33.4992 80.1233 42.2956C80.4336 43.3534 80.5328 44.7546 80.7676 45.8996C81.3827 47.7331 81.6984 49.3577 82.4035 51.1986C82.5226 51.4252 82.6482 51.6435 82.7417 51.8805C82.0522 52.0944 81.8521 52.1267 81.2988 52.6054L80.7048 51.1537L80.4642 50.3427L80.4241 50.275C79.9671 49.2644 79.3434 46.4871 79.0848 45.3776C78.8742 44.7488 78.7167 43.1016 78.715 42.4355C78.155 36.7167 79.3195 30.247 81.6621 24.9851C82.0818 24.0424 83.2101 22.2531 83.7819 21.3081Z" fill="#356516"/>
<path d="M78.7148 42.4355C79.1617 41.7256 78.6771 39.137 78.975 37.9997L79.5967 37.6812C79.9684 38.3038 79.6187 40.5283 79.7718 41.2829C79.8538 41.6862 79.8821 41.9155 79.9513 42.3155L80.1232 42.2956C80.4334 43.3535 80.5327 44.7546 80.7675 45.8996C81.3825 47.7331 81.6983 49.3578 82.4034 51.1986C82.5224 51.4252 82.6481 51.6435 82.7416 51.8805C82.052 52.0944 81.852 52.1267 81.2986 52.6054L80.7047 51.1538L80.464 50.3427L80.424 50.275C79.967 49.2644 79.3433 46.4872 79.0847 45.3776C78.874 44.7489 78.7165 43.1016 78.7148 42.4355Z" fill="#356516"/>
<path d="M79.085 45.3776C79.9619 46.4484 79.9125 48.3059 80.4672 49.1959L80.5631 49.1573L80.6099 48.8169C80.9038 48.8093 80.9361 48.8555 81.1958 48.9891C81.4048 48.4091 80.5779 46.9504 80.7677 45.8996C81.3828 47.7331 81.6985 49.3578 82.4037 51.1986C82.5227 51.4252 82.6483 51.6435 82.7418 51.8805C82.0523 52.0945 81.8522 52.1267 81.2989 52.6055L80.705 51.1538L80.4643 50.3427L80.4242 50.2751C79.9672 49.2645 79.3436 46.4872 79.085 45.3776Z" fill="#356516"/>
<path d="M80.7051 51.1538C81.4688 50.9027 81.1959 51.0805 81.7344 50.4771C81.9727 50.7721 82.1325 50.9319 82.4038 51.1986C82.5228 51.4252 82.6484 51.6435 82.7419 51.8805C82.0524 52.0945 81.8523 52.1267 81.299 52.6055L80.7051 51.1538Z" fill="#356516"/>
<path d="M80.4248 50.275C80.6422 49.7255 80.5119 49.7965 80.9148 49.5986C81.3158 49.8168 81.1816 49.7092 81.41 50.1821L81.3563 50.5297C80.9995 50.6864 80.8024 50.5744 80.4648 50.3427L80.4248 50.275Z" fill="#356516"/>
<path d="M122.652 8.05298C131.015 11.1622 137.81 17.4514 141.555 25.5494C142.108 26.7556 142.313 27.3726 142.604 28.6741L142.449 28.77C142.477 28.9714 142.478 29.0737 142.48 29.2776L142.227 29.5345C141.247 29.5492 141.532 28.3085 140.691 27.889C137.656 20.2088 135.088 18.2535 129.155 13.0636L127.992 12.3417C125.503 10.969 123.857 10.1586 121.238 9.08177C122.352 9.04497 122.222 9.06468 122.652 8.05298Z" fill="#356516"/>
<path d="M127.991 12.3417C128.572 12.3293 128.609 12.2355 129.059 12.5067C129.111 12.718 129.158 12.8467 129.154 13.0637L127.991 12.3417Z" fill="#356516"/>
<path d="M101.886 7.49239C103.211 7.11492 105.779 6.60857 107.133 6.40906C107.81 6.54738 109.098 6.41145 109.554 6.63698L109.69 6.88006C109.296 7.29641 108.736 7.3225 108.162 7.39001L107.86 7.65688C106.944 7.826 104.691 8.41473 103.973 8.43709C96.039 10.4542 90.1644 14.9256 85.3786 21.4572C84.9173 21.2445 84.4145 22.0837 83.7822 21.3081C88.4908 14.0718 93.862 10.4203 101.886 7.49239ZM104.046 8.28125L104.594 7.84519C104.559 7.64959 104.538 7.5397 104.483 7.34934L103.813 7.75648C103.794 8.08774 103.769 7.9598 104.046 8.28125Z" fill="#356516"/>
<path d="M101.886 7.49239C103.211 7.11492 105.779 6.60857 107.133 6.40906C107.81 6.54738 109.098 6.41145 109.555 6.63698L109.69 6.88006C109.296 7.29641 108.736 7.3225 108.162 7.39001L107.86 7.65688C106.944 7.826 104.691 8.41473 103.974 8.43709C103.559 8.48498 102.444 8.65942 102.232 8.21762C102.581 8.19546 102.64 8.25445 102.865 8.07764L102.468 8.00649L102.41 7.83949L102.841 7.6618L102.583 7.58993C102.382 7.76011 102.344 7.81339 102.097 7.91668L101.886 7.49239ZM104.046 8.28125L104.594 7.84519C104.56 7.64959 104.539 7.5397 104.483 7.34934L103.813 7.75648C103.794 8.08774 103.769 7.9598 104.046 8.28125Z" fill="#356516"/>
<path d="M104.483 7.34937C104.539 7.53972 104.56 7.64961 104.594 7.84521L104.047 8.28127C103.77 7.95982 103.794 8.08776 103.813 7.75651L104.483 7.34937Z" fill="#356516"/>
<path d="M27.1322 160.039C25.252 157.806 13.8846 131.437 14.2232 129.087C14.282 128.68 14.4003 128.589 14.7087 128.365L15.0089 128.461C15.4214 128.966 17.8317 135.714 18.3706 136.97C19.4234 139.424 20.4867 142.587 21.5412 145.064C22.8159 148.058 24.3644 150.974 25.5569 154.007C25.1859 153.776 25.1333 153.664 24.9603 153.267L24.6821 153.185C24.6143 153.441 24.6277 153.439 24.6536 153.707C24.4216 153.616 24.5237 153.605 24.3275 153.654C24.6292 155.562 27.3994 158.783 27.1322 160.039Z" fill="#356516"/>
<path d="M39.8701 136.511C40.0581 136.218 40.1004 135.995 40.4057 135.557C40.8538 135.589 40.8456 135.711 41.2386 136.073C41.733 136.839 43.5304 142.299 44.1733 143.671C44.6349 144.655 45.8901 147.509 46.2646 148.509C49.2291 146.869 52.1082 145.937 54.9762 144.569L55.1703 144.703C54.8705 144.891 54.6054 145.823 54.1741 146.309C50.2809 148.312 46.2936 149.844 42.4584 151.666C41.9426 151.873 42.0621 151.923 41.6653 151.78L41.5766 151.456C41.6808 150.917 41.7626 150.86 42.1623 150.473C43.1403 149.961 44.101 149.417 45.0431 148.842C43.8262 146.83 40.4223 138.814 39.8701 136.511Z" fill="#356516"/>
<path d="M42.458 151.666C41.9422 151.873 42.0617 151.923 41.6649 151.78L41.5762 151.456C41.6804 150.917 41.7622 150.86 42.1619 150.473C42.2702 150.868 42.3689 151.266 42.458 151.666Z" fill="#356516"/>
<path d="M38.2519 132.538C36.5332 127.292 34.2172 122.076 32.2703 116.91C32.0671 116.371 32.0754 116.085 32.334 115.595C32.6105 115.521 32.6944 115.474 32.9678 115.597C34.0623 116.089 38.2987 128.346 38.9584 130.172C39.0967 130.817 40.868 135.3 41.2388 136.073C40.8459 135.711 40.854 135.589 40.4059 135.557C40.1006 135.995 40.0583 136.218 39.8704 136.511C39.3114 135.369 38.6904 133.736 38.2519 132.538Z" fill="#356516"/>
<path d="M38.252 132.538C38.5177 132.05 38.5295 131.956 38.5337 131.393L38.5335 131.269L38.6971 131.641L38.9303 131.519C39.1122 130.893 38.4666 130.719 38.5509 130.11L38.9584 130.172C39.0967 130.817 40.868 135.3 41.2389 136.073C40.8459 135.711 40.8541 135.589 40.406 135.557C40.1007 135.995 40.0584 136.218 39.8704 136.511C39.3115 135.369 38.6905 133.736 38.252 132.538Z" fill="#356516"/>
<path d="M140.69 27.889C141.532 28.3085 141.247 29.5492 142.227 29.5346L142.48 29.2777C142.478 29.0738 142.477 28.9714 142.448 28.77L142.604 28.6742C143.137 29.9345 143.389 31.5943 143.663 32.9355C144.634 36.0719 144.387 42.0582 143.792 45.3154L143.327 44.9949C142.814 45.0059 142.819 45.1507 142.34 45.555C142.969 40.1736 143.038 37.6812 142.169 32.2918C141.717 30.7618 141.227 29.3855 140.69 27.889Z" fill="#356516"/>
<path d="M140.69 27.889C141.532 28.3085 141.247 29.5492 142.227 29.5346L142.48 29.2777C142.478 29.0738 142.477 28.9714 142.448 28.77L142.604 28.6742C143.137 29.9345 143.389 31.5943 143.663 32.9355L143.469 32.8987C143.176 32.4304 143.131 30.6896 142.568 29.6378C142.082 30.2343 142.574 31.6302 142.169 32.2918C141.717 30.7618 141.227 29.3855 140.69 27.889Z" fill="#356516"/>
<path d="M60.2337 139.904C61.8944 134.759 60.6682 130.949 59.2107 125.911C58.8942 124.816 57.4056 121.968 58.4001 121.072L58.676 121.088C59.5019 121.728 59.8712 123.431 60.2294 124.402C61.842 128.771 62.5458 134.299 61.7714 138.9L61.5754 138.265L61.3509 138.204C60.9014 138.588 60.7631 139.467 60.4197 140.131L60.2337 139.904Z" fill="#356516"/>
<path d="M107.133 6.40912C112.074 5.99802 115.144 5.9885 119.862 7.16378C120.965 7.42009 121.597 7.65704 122.652 8.05305C122.222 9.06476 122.352 9.04505 121.238 9.08185L120.699 8.9507C116.157 7.38508 112.522 7.40177 107.86 7.65694L108.162 7.39007C108.736 7.32256 109.296 7.29647 109.69 6.88012L109.554 6.63704C109.098 6.41152 107.81 6.54745 107.133 6.40912Z" fill="#356516"/>
<path d="M119.862 7.1637C120.965 7.42 121.597 7.65695 122.652 8.05297C122.222 9.06467 122.352 9.04496 121.238 9.08176L120.699 8.95061C120.821 8.78607 120.936 8.65352 121.068 8.49808L121.689 8.58402L121.784 8.49599C121.338 8.07633 120.608 8.28598 120.098 8.03729C119.841 7.91193 120.079 7.65593 119.862 7.1637Z" fill="#356516"/>
<path d="M46.6421 42.9519C49.8648 43.1597 52.3221 43.6777 55.3094 44.9827L56.0362 45.4309C56.4475 45.6568 57.3035 46.1557 57.6988 46.3148C57.5551 46.7166 57.3869 47.3668 56.9599 47.5218C56.4836 47.2141 56.187 47.0411 55.6791 46.7836C51.7788 45.0162 48.7418 44.3452 44.5098 44.2184C45.4186 43.9023 46.5236 44.3032 47.4624 43.8228L47.5118 43.6017C47.2272 43.2184 47.0689 43.1751 46.6421 42.9519Z" fill="#356516"/>
<path d="M55.3097 44.9827L56.0365 45.4309C56.4478 45.6568 57.3038 46.1557 57.6991 46.3148C57.5554 46.7166 57.3871 47.3668 56.9602 47.5218C56.4839 47.2141 56.1873 47.0411 55.6794 46.7836L54.9999 46.0409C54.7333 45.983 54.861 46.0247 54.627 45.7894C54.7027 45.4371 55.0259 45.2304 55.3097 44.9827Z" fill="#356516"/>
<path d="M55.2402 45.7787C55.7562 45.8697 55.9556 45.8645 56.1614 46.3387L55.9888 46.4402C55.5849 46.3501 55.5527 46.1644 55.2402 45.7787Z" fill="#356516"/>
<path d="M82.7417 51.8806C83.3392 53.4728 84.2759 55.1537 85.1866 56.6009C85.8151 57.5998 86.7838 58.7367 87.2146 59.7902L86.8471 61.2183C86.5292 60.7888 86.2555 60.3714 85.8288 60.0468C84.6188 58.8685 81.9764 54.2172 81.2988 52.6055C81.8521 52.1267 82.0522 52.0945 82.7417 51.8806Z" fill="#356516"/>
<path d="M40.6963 43.1603C42.2525 42.9782 45.1593 42.6429 46.6425 42.9519C47.0694 43.1751 47.2277 43.2184 47.5123 43.6016L47.4629 43.8227C46.5241 44.3031 45.419 43.9023 44.5103 44.2184C43.7375 44.1179 42.027 44.3351 41.1975 44.4298C40.9232 44.4839 40.0432 44.6774 39.8087 44.6985C38.7839 44.5486 37.3765 45.1094 36.6074 44.1706C37.6077 43.715 39.5941 43.2003 40.6963 43.1603Z" fill="#356516"/>
<path d="M36.6074 44.1706C37.6077 43.715 39.5941 43.2003 40.6963 43.1603C40.0846 43.3688 39.5635 43.4491 39.1853 43.9313C39.3788 44.552 40.5986 44.4182 41.1975 44.4298C40.9232 44.4839 40.0432 44.6774 39.8087 44.6985C38.7839 44.5486 37.3765 45.1094 36.6074 44.1706Z" fill="#356516"/>
<path d="M102.855 87.8947C102.765 87.0371 102.382 84.5694 103.149 84.0045C103.741 84.5547 103.803 85.8502 103.899 86.654C104.052 87.7075 104.436 92.6052 104.069 93.3613L103.76 93.5192C102.736 92.8018 103.082 89.1672 102.855 87.8947Z" fill="#356516"/>
<path d="M102.855 87.8947C102.765 87.0371 102.382 84.5694 103.149 84.0045C103.741 84.5547 103.803 85.8502 103.899 86.654L103.623 86.8874L103.227 86.8533L103.086 86.5457C103.048 86.5745 102.994 86.881 102.977 86.9561L103.125 86.9995C102.741 87.5783 102.987 87.2295 102.855 87.8947Z" fill="#356516"/>
<path d="M118.079 99.4786L118.176 99.4483C119.581 98.9945 124.219 96.6702 125.258 97.0644C125.286 98.2711 120.723 99.6489 119.585 100.002L118.197 100.673C117.574 100.871 117.002 101.175 116.456 100.714C116.575 100.231 116.583 100.348 116.997 99.9359L118.079 99.4786Z" fill="#356516"/>
<path d="M116.997 99.9359L118.079 99.4786L118.412 99.8183C119.043 99.7124 119.052 99.6148 119.585 100.002L118.197 100.673C117.574 100.871 117.002 101.175 116.456 100.714C116.575 100.231 116.583 100.348 116.997 99.9359Z" fill="#356516"/>
<path d="M114.809 88.3681C115.37 88.2852 115.57 88.2498 116.042 88.5819C115.834 88.938 115.572 89.4224 115.343 89.7497C114.772 90.6592 112.737 94.1411 112.248 94.7332C111.816 95.0728 112.004 95.0266 111.53 95.0054C111.208 94.574 111.297 94.7756 111.245 94.1784C111.757 93.613 113.037 91.2836 113.465 90.5168C113.92 89.805 114.368 89.0888 114.809 88.3681Z" fill="#356516"/>
<path d="M114.809 88.3681C115.37 88.2852 115.57 88.2498 116.042 88.5819C115.834 88.938 115.572 89.4224 115.343 89.7497L114.695 89.4483C114.082 89.7284 114.153 90.4687 113.465 90.5168C113.92 89.805 114.368 89.0888 114.809 88.3681Z" fill="#356516"/>
<path d="M111.245 94.1784C111.74 94.2747 112.011 94.2276 112.248 94.7331C111.816 95.0728 112.004 95.0266 111.53 95.0054C111.208 94.5739 111.297 94.7756 111.245 94.1784Z" fill="#356516"/>
<path d="M3.36816 162.177C3.46757 161.703 3.56267 161.229 3.65348 160.755C3.72533 161.215 3.73905 161.558 3.75986 162.017L3.92956 162.077C3.94706 161.692 3.88069 161.469 4.09566 161.246L4.30181 161.379C4.30974 161.919 4.31442 163.251 4.44028 163.719C4.31971 164.886 4.55618 167.775 3.63383 168.306L3.4071 168.139C2.98927 167.204 3.10885 162.979 3.36816 162.177Z" fill="#356516"/>
<path d="M85.8293 60.0468C86.256 60.3713 86.5297 60.7887 86.8476 61.2182C86.5635 62.0503 86.2446 63.0994 85.8424 63.8614L85.5876 63.4396C85.5861 62.9721 85.7169 62.9766 86.0811 62.5431C86.1528 62.1274 86.2172 62.1789 86.05 61.912L85.6278 61.8655C85.0463 62.2543 85.1705 63.1623 84.3916 63.8975C84.6353 62.9361 85.4367 60.9963 85.8293 60.0468Z" fill="#356516"/>
<path d="M116.107 86.6512C116.482 86.288 116.435 86.2139 116.891 86.1402C117.127 86.4965 117.109 86.6243 117.086 87.1277C116.603 87.5958 116.389 88.009 116.042 88.5819C115.571 88.2498 115.371 88.2852 114.81 88.3681C115.247 87.7073 115.602 87.266 116.107 86.6512Z" fill="#356516"/>
<path d="M116.106 86.6512C116.482 86.288 116.435 86.2139 116.891 86.1402C117.126 86.4965 117.108 86.6243 117.086 87.1277C116.588 87.0036 116.478 86.9953 116.106 86.6512Z" fill="#356516"/>
</svg>
